%TF.GenerationSoftware,KiCad,Pcbnew,9.0.6*%
%TF.CreationDate,2025-12-18T22:22:39+05:30*%
%TF.ProjectId,Attiny85_USB_panel,41747469-6e79-4383-955f-5553425f7061,rev?*%
%TF.SameCoordinates,Original*%
%TF.FileFunction,Profile,NP*%
%FSLAX46Y46*%
G04 Gerber Fmt 4.6, Leading zero omitted, Abs format (unit mm)*
G04 Created by KiCad (PCBNEW 9.0.6) date 2025-12-18 22:22:39*
%MOMM*%
%LPD*%
G01*
G04 APERTURE LIST*
%TA.AperFunction,Profile*%
%ADD10C,0.050000*%
%TD*%
%TA.AperFunction,Profile*%
%ADD11C,0.100000*%
%TD*%
G04 APERTURE END LIST*
D10*
X92700000Y-144800000D02*
X94700000Y-144800000D01*
X94700000Y-152300000D01*
X92700000Y-152300000D01*
X92700000Y-144800000D01*
X55718000Y-140604000D02*
X89718000Y-140604000D01*
X89718000Y-142604000D01*
X55718000Y-142604000D01*
X55718000Y-140604000D01*
D11*
X52718000Y-57304000D02*
X135318000Y-57304000D01*
X135318000Y-154804000D01*
X52718000Y-154804000D01*
X52718000Y-57304000D01*
D10*
X92882000Y-116396000D02*
X94882000Y-116396000D01*
X94882000Y-123896000D01*
X92882000Y-123896000D01*
X92882000Y-116396000D01*
X55900000Y-112200000D02*
X89900000Y-112200000D01*
X89900000Y-114200000D01*
X55900000Y-114200000D01*
X55900000Y-112200000D01*
X98000000Y-112100000D02*
X132000000Y-112100000D01*
X132000000Y-114100000D01*
X98000000Y-114100000D01*
X98000000Y-112100000D01*
X92782000Y-130596000D02*
X94782000Y-130596000D01*
X94782000Y-138096000D01*
X92782000Y-138096000D01*
X92782000Y-130596000D01*
X55800000Y-126400000D02*
X89800000Y-126400000D01*
X89800000Y-128400000D01*
X55800000Y-128400000D01*
X55800000Y-126400000D01*
X97900000Y-126300000D02*
X131900000Y-126300000D01*
X131900000Y-128300000D01*
X97900000Y-128300000D01*
X97900000Y-126300000D01*
X93082000Y-87996000D02*
X95082000Y-87996000D01*
X95082000Y-95496000D01*
X93082000Y-95496000D01*
X93082000Y-87996000D01*
X56100000Y-83800000D02*
X90100000Y-83800000D01*
X90100000Y-85800000D01*
X56100000Y-85800000D01*
X56100000Y-83800000D01*
X98200000Y-83700000D02*
X132200000Y-83700000D01*
X132200000Y-85700000D01*
X98200000Y-85700000D01*
X98200000Y-83700000D01*
X92982000Y-102196000D02*
X94982000Y-102196000D01*
X94982000Y-109696000D01*
X92982000Y-109696000D01*
X92982000Y-102196000D01*
X56000000Y-98000000D02*
X90000000Y-98000000D01*
X90000000Y-100000000D01*
X56000000Y-100000000D01*
X56000000Y-98000000D01*
X98100000Y-97900000D02*
X132100000Y-97900000D01*
X132100000Y-99900000D01*
X98100000Y-99900000D01*
X98100000Y-97900000D01*
X93100000Y-73800000D02*
X95100000Y-73800000D01*
X95100000Y-81300000D01*
X93100000Y-81300000D01*
X93100000Y-73800000D01*
X56118000Y-69604000D02*
X90118000Y-69604000D01*
X90118000Y-71604000D01*
X56118000Y-71604000D01*
X56118000Y-69604000D01*
X98218000Y-69504000D02*
X132218000Y-69504000D01*
X132218000Y-71504000D01*
X98218000Y-71504000D01*
X98218000Y-69504000D01*
X93200000Y-59600000D02*
X95200000Y-59600000D01*
X95200000Y-67100000D01*
X93200000Y-67100000D01*
X93200000Y-59600000D01*
X97818000Y-140504000D02*
X131818000Y-140504000D01*
X131818000Y-142504000D01*
X97818000Y-142504000D01*
X97818000Y-140504000D01*
M02*
