%TF.GenerationSoftware,KiCad,Pcbnew,9.0.6*%
%TF.CreationDate,2025-12-18T22:22:39+05:30*%
%TF.ProjectId,Attiny85_USB_panel,41747469-6e79-4383-955f-5553425f7061,rev?*%
%TF.SameCoordinates,Original*%
%TF.FileFunction,Soldermask,Top*%
%TF.FilePolarity,Negative*%
%FSLAX46Y46*%
G04 Gerber Fmt 4.6, Leading zero omitted, Abs format (unit mm)*
G04 Created by KiCad (PCBNEW 9.0.6) date 2025-12-18 22:22:39*
%MOMM*%
%LPD*%
G01*
G04 APERTURE LIST*
G04 Aperture macros list*
%AMRoundRect*
0 Rectangle with rounded corners*
0 $1 Rounding radius*
0 $2 $3 $4 $5 $6 $7 $8 $9 X,Y pos of 4 corners*
0 Add a 4 corners polygon primitive as box body*
4,1,4,$2,$3,$4,$5,$6,$7,$8,$9,$2,$3,0*
0 Add four circle primitives for the rounded corners*
1,1,$1+$1,$2,$3*
1,1,$1+$1,$4,$5*
1,1,$1+$1,$6,$7*
1,1,$1+$1,$8,$9*
0 Add four rect primitives between the rounded corners*
20,1,$1+$1,$2,$3,$4,$5,0*
20,1,$1+$1,$4,$5,$6,$7,0*
20,1,$1+$1,$6,$7,$8,$9,0*
20,1,$1+$1,$8,$9,$2,$3,0*%
G04 Aperture macros list end*
%ADD10RoundRect,0.250000X-0.450000X0.350000X-0.450000X-0.350000X0.450000X-0.350000X0.450000X0.350000X0*%
%ADD11RoundRect,0.225000X-0.375000X0.225000X-0.375000X-0.225000X0.375000X-0.225000X0.375000X0.225000X0*%
%ADD12R,1.800000X1.800000*%
%ADD13C,1.800000*%
%ADD14RoundRect,0.162500X-0.650000X-0.162500X0.650000X-0.162500X0.650000X0.162500X-0.650000X0.162500X0*%
%ADD15RoundRect,0.300000X-3.200000X-0.700000X3.200000X-0.700000X3.200000X0.700000X-3.200000X0.700000X0*%
%ADD16RoundRect,0.225000X-2.775000X-0.525000X2.775000X-0.525000X2.775000X0.525000X-2.775000X0.525000X0*%
%ADD17RoundRect,0.250000X-0.350000X-0.450000X0.350000X-0.450000X0.350000X0.450000X-0.350000X0.450000X0*%
%ADD18RoundRect,0.250000X0.350000X0.450000X-0.350000X0.450000X-0.350000X-0.450000X0.350000X-0.450000X0*%
%ADD19RoundRect,0.250000X-0.650000X0.412500X-0.650000X-0.412500X0.650000X-0.412500X0.650000X0.412500X0*%
%ADD20R,1.700000X1.700000*%
%ADD21C,1.700000*%
G04 APERTURE END LIST*
D10*
%TO.C,R4*%
X112100000Y-143800000D03*
X112100000Y-145800000D03*
%TD*%
D11*
%TO.C,D2*%
X112200000Y-150350000D03*
X112200000Y-153650000D03*
%TD*%
D12*
%TO.C,D3*%
X132450000Y-150690000D03*
D13*
X132450000Y-148150000D03*
%TD*%
D14*
%TO.C,U1*%
X121012500Y-146595000D03*
X121012500Y-147865000D03*
X121012500Y-149135000D03*
X121012500Y-150405000D03*
X128187500Y-150405000D03*
X128187500Y-149135000D03*
X128187500Y-147865000D03*
X128187500Y-146595000D03*
%TD*%
D15*
%TO.C,U2*%
X98462500Y-152600000D03*
D16*
X98462500Y-149850000D03*
X98462500Y-147850000D03*
D15*
X98462500Y-145100000D03*
%TD*%
%TO.C,U2*%
X56362500Y-152700000D03*
D16*
X56362500Y-149950000D03*
X56362500Y-147950000D03*
D15*
X56362500Y-145200000D03*
%TD*%
D14*
%TO.C,U1*%
X78912500Y-146695000D03*
X78912500Y-147965000D03*
X78912500Y-149235000D03*
X78912500Y-150505000D03*
X86087500Y-150505000D03*
X86087500Y-149235000D03*
X86087500Y-147965000D03*
X86087500Y-146695000D03*
%TD*%
D17*
%TO.C,R3*%
X89450000Y-145150000D03*
X91450000Y-145150000D03*
%TD*%
D11*
%TO.C,D1*%
X66500000Y-150450000D03*
X66500000Y-153750000D03*
%TD*%
D18*
%TO.C,R1*%
X74950000Y-148300000D03*
X72950000Y-148300000D03*
%TD*%
%TO.C,R1*%
X117050000Y-148200000D03*
X115050000Y-148200000D03*
%TD*%
D17*
%TO.C,R3*%
X131550000Y-145050000D03*
X133550000Y-145050000D03*
%TD*%
D19*
%TO.C,C1*%
X108550000Y-143800000D03*
X108550000Y-146925000D03*
%TD*%
D11*
%TO.C,D1*%
X108600000Y-150350000D03*
X108600000Y-153650000D03*
%TD*%
D18*
%TO.C,R2*%
X117050000Y-150600000D03*
X115050000Y-150600000D03*
%TD*%
D19*
%TO.C,C1*%
X66450000Y-143900000D03*
X66450000Y-147025000D03*
%TD*%
D18*
%TO.C,R2*%
X74950000Y-150700000D03*
X72950000Y-150700000D03*
%TD*%
D10*
%TO.C,R4*%
X70000000Y-143900000D03*
X70000000Y-145900000D03*
%TD*%
D20*
%TO.C,J2*%
X85920000Y-144500000D03*
D21*
X83380000Y-144500000D03*
X80840000Y-144500000D03*
X78300000Y-144500000D03*
%TD*%
D20*
%TO.C,J1*%
X78270000Y-152800000D03*
D21*
X80810000Y-152800000D03*
X83350000Y-152800000D03*
X85890000Y-152800000D03*
%TD*%
D20*
%TO.C,J2*%
X128020000Y-144400000D03*
D21*
X125480000Y-144400000D03*
X122940000Y-144400000D03*
X120400000Y-144400000D03*
%TD*%
D20*
%TO.C,J1*%
X120370000Y-152700000D03*
D21*
X122910000Y-152700000D03*
X125450000Y-152700000D03*
X127990000Y-152700000D03*
%TD*%
D12*
%TO.C,D3*%
X90350000Y-150790000D03*
D13*
X90350000Y-148250000D03*
%TD*%
D11*
%TO.C,D2*%
X70100000Y-150450000D03*
X70100000Y-153750000D03*
%TD*%
D10*
%TO.C,R4*%
X112282000Y-115396000D03*
X112282000Y-117396000D03*
%TD*%
D11*
%TO.C,D2*%
X112382000Y-121946000D03*
X112382000Y-125246000D03*
%TD*%
D12*
%TO.C,D3*%
X132632000Y-122286000D03*
D13*
X132632000Y-119746000D03*
%TD*%
D19*
%TO.C,C1*%
X108632000Y-129596000D03*
X108632000Y-132721000D03*
%TD*%
D11*
%TO.C,D1*%
X108682000Y-136146000D03*
X108682000Y-139446000D03*
%TD*%
D20*
%TO.C,J2*%
X128102000Y-130196000D03*
D21*
X125562000Y-130196000D03*
X123022000Y-130196000D03*
X120482000Y-130196000D03*
%TD*%
D19*
%TO.C,C1*%
X66532000Y-129696000D03*
X66532000Y-132821000D03*
%TD*%
D10*
%TO.C,R4*%
X70082000Y-129696000D03*
X70082000Y-131696000D03*
%TD*%
D12*
%TO.C,D3*%
X90432000Y-136586000D03*
D13*
X90432000Y-134046000D03*
%TD*%
D20*
%TO.C,J1*%
X78352000Y-138596000D03*
D21*
X80892000Y-138596000D03*
X83432000Y-138596000D03*
X85972000Y-138596000D03*
%TD*%
D18*
%TO.C,R2*%
X75032000Y-136496000D03*
X73032000Y-136496000D03*
%TD*%
D20*
%TO.C,J2*%
X86002000Y-130296000D03*
D21*
X83462000Y-130296000D03*
X80922000Y-130296000D03*
X78382000Y-130296000D03*
%TD*%
D18*
%TO.C,R2*%
X117132000Y-136396000D03*
X115132000Y-136396000D03*
%TD*%
D14*
%TO.C,U1*%
X121194500Y-118191000D03*
X121194500Y-119461000D03*
X121194500Y-120731000D03*
X121194500Y-122001000D03*
X128369500Y-122001000D03*
X128369500Y-120731000D03*
X128369500Y-119461000D03*
X128369500Y-118191000D03*
%TD*%
D20*
%TO.C,J1*%
X120452000Y-138496000D03*
D21*
X122992000Y-138496000D03*
X125532000Y-138496000D03*
X128072000Y-138496000D03*
%TD*%
D11*
%TO.C,D2*%
X70182000Y-136246000D03*
X70182000Y-139546000D03*
%TD*%
D15*
%TO.C,U2*%
X98644500Y-124196000D03*
D16*
X98644500Y-121446000D03*
X98644500Y-119446000D03*
D15*
X98644500Y-116696000D03*
%TD*%
D17*
%TO.C,R3*%
X89532000Y-130946000D03*
X91532000Y-130946000D03*
%TD*%
D12*
%TO.C,D3*%
X132532000Y-136486000D03*
D13*
X132532000Y-133946000D03*
%TD*%
D14*
%TO.C,U1*%
X121094500Y-132391000D03*
X121094500Y-133661000D03*
X121094500Y-134931000D03*
X121094500Y-136201000D03*
X128269500Y-136201000D03*
X128269500Y-134931000D03*
X128269500Y-133661000D03*
X128269500Y-132391000D03*
%TD*%
%TO.C,U1*%
X78994500Y-132491000D03*
X78994500Y-133761000D03*
X78994500Y-135031000D03*
X78994500Y-136301000D03*
X86169500Y-136301000D03*
X86169500Y-135031000D03*
X86169500Y-133761000D03*
X86169500Y-132491000D03*
%TD*%
D10*
%TO.C,R4*%
X112182000Y-129596000D03*
X112182000Y-131596000D03*
%TD*%
D15*
%TO.C,U2*%
X56444500Y-138496000D03*
D16*
X56444500Y-135746000D03*
X56444500Y-133746000D03*
D15*
X56444500Y-130996000D03*
%TD*%
%TO.C,U2*%
X98544500Y-138396000D03*
D16*
X98544500Y-135646000D03*
X98544500Y-133646000D03*
D15*
X98544500Y-130896000D03*
%TD*%
D11*
%TO.C,D2*%
X112282000Y-136146000D03*
X112282000Y-139446000D03*
%TD*%
D15*
%TO.C,U2*%
X56544500Y-124296000D03*
D16*
X56544500Y-121546000D03*
X56544500Y-119546000D03*
D15*
X56544500Y-116796000D03*
%TD*%
D14*
%TO.C,U1*%
X79094500Y-118291000D03*
X79094500Y-119561000D03*
X79094500Y-120831000D03*
X79094500Y-122101000D03*
X86269500Y-122101000D03*
X86269500Y-120831000D03*
X86269500Y-119561000D03*
X86269500Y-118291000D03*
%TD*%
D17*
%TO.C,R3*%
X89632000Y-116746000D03*
X91632000Y-116746000D03*
%TD*%
D11*
%TO.C,D1*%
X66682000Y-122046000D03*
X66682000Y-125346000D03*
%TD*%
D18*
%TO.C,R1*%
X75132000Y-119896000D03*
X73132000Y-119896000D03*
%TD*%
%TO.C,R1*%
X75032000Y-134096000D03*
X73032000Y-134096000D03*
%TD*%
%TO.C,R1*%
X117132000Y-133996000D03*
X115132000Y-133996000D03*
%TD*%
%TO.C,R1*%
X117232000Y-119796000D03*
X115232000Y-119796000D03*
%TD*%
D11*
%TO.C,D1*%
X66582000Y-136246000D03*
X66582000Y-139546000D03*
%TD*%
D17*
%TO.C,R3*%
X131732000Y-116646000D03*
X133732000Y-116646000D03*
%TD*%
D19*
%TO.C,C1*%
X108732000Y-115396000D03*
X108732000Y-118521000D03*
%TD*%
D17*
%TO.C,R3*%
X131632000Y-130846000D03*
X133632000Y-130846000D03*
%TD*%
D11*
%TO.C,D1*%
X108782000Y-121946000D03*
X108782000Y-125246000D03*
%TD*%
D18*
%TO.C,R2*%
X117232000Y-122196000D03*
X115232000Y-122196000D03*
%TD*%
D19*
%TO.C,C1*%
X66632000Y-115496000D03*
X66632000Y-118621000D03*
%TD*%
D18*
%TO.C,R2*%
X75132000Y-122296000D03*
X73132000Y-122296000D03*
%TD*%
D10*
%TO.C,R4*%
X70182000Y-115496000D03*
X70182000Y-117496000D03*
%TD*%
D20*
%TO.C,J2*%
X86102000Y-116096000D03*
D21*
X83562000Y-116096000D03*
X81022000Y-116096000D03*
X78482000Y-116096000D03*
%TD*%
D20*
%TO.C,J1*%
X78452000Y-124396000D03*
D21*
X80992000Y-124396000D03*
X83532000Y-124396000D03*
X86072000Y-124396000D03*
%TD*%
D20*
%TO.C,J2*%
X128202000Y-115996000D03*
D21*
X125662000Y-115996000D03*
X123122000Y-115996000D03*
X120582000Y-115996000D03*
%TD*%
D20*
%TO.C,J1*%
X120552000Y-124296000D03*
D21*
X123092000Y-124296000D03*
X125632000Y-124296000D03*
X128172000Y-124296000D03*
%TD*%
D12*
%TO.C,D3*%
X90532000Y-122386000D03*
D13*
X90532000Y-119846000D03*
%TD*%
D11*
%TO.C,D2*%
X70282000Y-122046000D03*
X70282000Y-125346000D03*
%TD*%
D10*
%TO.C,R4*%
X112482000Y-86996000D03*
X112482000Y-88996000D03*
%TD*%
D11*
%TO.C,D2*%
X112582000Y-93546000D03*
X112582000Y-96846000D03*
%TD*%
D12*
%TO.C,D3*%
X132832000Y-93886000D03*
D13*
X132832000Y-91346000D03*
%TD*%
D19*
%TO.C,C1*%
X108832000Y-101196000D03*
X108832000Y-104321000D03*
%TD*%
D11*
%TO.C,D1*%
X108882000Y-107746000D03*
X108882000Y-111046000D03*
%TD*%
D20*
%TO.C,J2*%
X128302000Y-101796000D03*
D21*
X125762000Y-101796000D03*
X123222000Y-101796000D03*
X120682000Y-101796000D03*
%TD*%
D19*
%TO.C,C1*%
X66732000Y-101296000D03*
X66732000Y-104421000D03*
%TD*%
D10*
%TO.C,R4*%
X70282000Y-101296000D03*
X70282000Y-103296000D03*
%TD*%
D12*
%TO.C,D3*%
X90632000Y-108186000D03*
D13*
X90632000Y-105646000D03*
%TD*%
D20*
%TO.C,J1*%
X78552000Y-110196000D03*
D21*
X81092000Y-110196000D03*
X83632000Y-110196000D03*
X86172000Y-110196000D03*
%TD*%
D18*
%TO.C,R2*%
X75232000Y-108096000D03*
X73232000Y-108096000D03*
%TD*%
D20*
%TO.C,J2*%
X86202000Y-101896000D03*
D21*
X83662000Y-101896000D03*
X81122000Y-101896000D03*
X78582000Y-101896000D03*
%TD*%
D18*
%TO.C,R2*%
X117332000Y-107996000D03*
X115332000Y-107996000D03*
%TD*%
D14*
%TO.C,U1*%
X121394500Y-89791000D03*
X121394500Y-91061000D03*
X121394500Y-92331000D03*
X121394500Y-93601000D03*
X128569500Y-93601000D03*
X128569500Y-92331000D03*
X128569500Y-91061000D03*
X128569500Y-89791000D03*
%TD*%
D20*
%TO.C,J1*%
X120652000Y-110096000D03*
D21*
X123192000Y-110096000D03*
X125732000Y-110096000D03*
X128272000Y-110096000D03*
%TD*%
D11*
%TO.C,D2*%
X70382000Y-107846000D03*
X70382000Y-111146000D03*
%TD*%
D15*
%TO.C,U2*%
X98844500Y-95796000D03*
D16*
X98844500Y-93046000D03*
X98844500Y-91046000D03*
D15*
X98844500Y-88296000D03*
%TD*%
D17*
%TO.C,R3*%
X89732000Y-102546000D03*
X91732000Y-102546000D03*
%TD*%
D12*
%TO.C,D3*%
X132732000Y-108086000D03*
D13*
X132732000Y-105546000D03*
%TD*%
D14*
%TO.C,U1*%
X121294500Y-103991000D03*
X121294500Y-105261000D03*
X121294500Y-106531000D03*
X121294500Y-107801000D03*
X128469500Y-107801000D03*
X128469500Y-106531000D03*
X128469500Y-105261000D03*
X128469500Y-103991000D03*
%TD*%
%TO.C,U1*%
X79194500Y-104091000D03*
X79194500Y-105361000D03*
X79194500Y-106631000D03*
X79194500Y-107901000D03*
X86369500Y-107901000D03*
X86369500Y-106631000D03*
X86369500Y-105361000D03*
X86369500Y-104091000D03*
%TD*%
D10*
%TO.C,R4*%
X112382000Y-101196000D03*
X112382000Y-103196000D03*
%TD*%
D15*
%TO.C,U2*%
X56644500Y-110096000D03*
D16*
X56644500Y-107346000D03*
X56644500Y-105346000D03*
D15*
X56644500Y-102596000D03*
%TD*%
%TO.C,U2*%
X98744500Y-109996000D03*
D16*
X98744500Y-107246000D03*
X98744500Y-105246000D03*
D15*
X98744500Y-102496000D03*
%TD*%
D11*
%TO.C,D2*%
X112482000Y-107746000D03*
X112482000Y-111046000D03*
%TD*%
D15*
%TO.C,U2*%
X56744500Y-95896000D03*
D16*
X56744500Y-93146000D03*
X56744500Y-91146000D03*
D15*
X56744500Y-88396000D03*
%TD*%
D14*
%TO.C,U1*%
X79294500Y-89891000D03*
X79294500Y-91161000D03*
X79294500Y-92431000D03*
X79294500Y-93701000D03*
X86469500Y-93701000D03*
X86469500Y-92431000D03*
X86469500Y-91161000D03*
X86469500Y-89891000D03*
%TD*%
D17*
%TO.C,R3*%
X89832000Y-88346000D03*
X91832000Y-88346000D03*
%TD*%
D11*
%TO.C,D1*%
X66882000Y-93646000D03*
X66882000Y-96946000D03*
%TD*%
D18*
%TO.C,R1*%
X75332000Y-91496000D03*
X73332000Y-91496000D03*
%TD*%
%TO.C,R1*%
X75232000Y-105696000D03*
X73232000Y-105696000D03*
%TD*%
%TO.C,R1*%
X117332000Y-105596000D03*
X115332000Y-105596000D03*
%TD*%
%TO.C,R1*%
X117432000Y-91396000D03*
X115432000Y-91396000D03*
%TD*%
D11*
%TO.C,D1*%
X66782000Y-107846000D03*
X66782000Y-111146000D03*
%TD*%
D17*
%TO.C,R3*%
X131932000Y-88246000D03*
X133932000Y-88246000D03*
%TD*%
D19*
%TO.C,C1*%
X108932000Y-86996000D03*
X108932000Y-90121000D03*
%TD*%
D17*
%TO.C,R3*%
X131832000Y-102446000D03*
X133832000Y-102446000D03*
%TD*%
D11*
%TO.C,D1*%
X108982000Y-93546000D03*
X108982000Y-96846000D03*
%TD*%
D18*
%TO.C,R2*%
X117432000Y-93796000D03*
X115432000Y-93796000D03*
%TD*%
D19*
%TO.C,C1*%
X66832000Y-87096000D03*
X66832000Y-90221000D03*
%TD*%
D18*
%TO.C,R2*%
X75332000Y-93896000D03*
X73332000Y-93896000D03*
%TD*%
D10*
%TO.C,R4*%
X70382000Y-87096000D03*
X70382000Y-89096000D03*
%TD*%
D20*
%TO.C,J2*%
X86302000Y-87696000D03*
D21*
X83762000Y-87696000D03*
X81222000Y-87696000D03*
X78682000Y-87696000D03*
%TD*%
D20*
%TO.C,J1*%
X78652000Y-95996000D03*
D21*
X81192000Y-95996000D03*
X83732000Y-95996000D03*
X86272000Y-95996000D03*
%TD*%
D20*
%TO.C,J2*%
X128402000Y-87596000D03*
D21*
X125862000Y-87596000D03*
X123322000Y-87596000D03*
X120782000Y-87596000D03*
%TD*%
D20*
%TO.C,J1*%
X120752000Y-95896000D03*
D21*
X123292000Y-95896000D03*
X125832000Y-95896000D03*
X128372000Y-95896000D03*
%TD*%
D12*
%TO.C,D3*%
X90732000Y-93986000D03*
D13*
X90732000Y-91446000D03*
%TD*%
D11*
%TO.C,D2*%
X70482000Y-93646000D03*
X70482000Y-96946000D03*
%TD*%
D10*
%TO.C,R4*%
X112500000Y-72800000D03*
X112500000Y-74800000D03*
%TD*%
D11*
%TO.C,D2*%
X112600000Y-79350000D03*
X112600000Y-82650000D03*
%TD*%
D12*
%TO.C,D3*%
X132850000Y-79690000D03*
D13*
X132850000Y-77150000D03*
%TD*%
D14*
%TO.C,U1*%
X121412500Y-75595000D03*
X121412500Y-76865000D03*
X121412500Y-78135000D03*
X121412500Y-79405000D03*
X128587500Y-79405000D03*
X128587500Y-78135000D03*
X128587500Y-76865000D03*
X128587500Y-75595000D03*
%TD*%
D15*
%TO.C,U2*%
X98862500Y-81600000D03*
D16*
X98862500Y-78850000D03*
X98862500Y-76850000D03*
D15*
X98862500Y-74100000D03*
%TD*%
%TO.C,U2*%
X56762500Y-81700000D03*
D16*
X56762500Y-78950000D03*
X56762500Y-76950000D03*
D15*
X56762500Y-74200000D03*
%TD*%
D14*
%TO.C,U1*%
X79312500Y-75695000D03*
X79312500Y-76965000D03*
X79312500Y-78235000D03*
X79312500Y-79505000D03*
X86487500Y-79505000D03*
X86487500Y-78235000D03*
X86487500Y-76965000D03*
X86487500Y-75695000D03*
%TD*%
D17*
%TO.C,R3*%
X89850000Y-74150000D03*
X91850000Y-74150000D03*
%TD*%
D11*
%TO.C,D1*%
X66900000Y-79450000D03*
X66900000Y-82750000D03*
%TD*%
D18*
%TO.C,R1*%
X75350000Y-77300000D03*
X73350000Y-77300000D03*
%TD*%
%TO.C,R1*%
X117450000Y-77200000D03*
X115450000Y-77200000D03*
%TD*%
D17*
%TO.C,R3*%
X131950000Y-74050000D03*
X133950000Y-74050000D03*
%TD*%
D19*
%TO.C,C1*%
X108950000Y-72800000D03*
X108950000Y-75925000D03*
%TD*%
D11*
%TO.C,D1*%
X109000000Y-79350000D03*
X109000000Y-82650000D03*
%TD*%
D18*
%TO.C,R2*%
X117450000Y-79600000D03*
X115450000Y-79600000D03*
%TD*%
D19*
%TO.C,C1*%
X66850000Y-72900000D03*
X66850000Y-76025000D03*
%TD*%
D18*
%TO.C,R2*%
X75350000Y-79700000D03*
X73350000Y-79700000D03*
%TD*%
D10*
%TO.C,R4*%
X70400000Y-72900000D03*
X70400000Y-74900000D03*
%TD*%
D20*
%TO.C,J2*%
X86320000Y-73500000D03*
D21*
X83780000Y-73500000D03*
X81240000Y-73500000D03*
X78700000Y-73500000D03*
%TD*%
D20*
%TO.C,J1*%
X78670000Y-81800000D03*
D21*
X81210000Y-81800000D03*
X83750000Y-81800000D03*
X86290000Y-81800000D03*
%TD*%
D20*
%TO.C,J2*%
X128420000Y-73400000D03*
D21*
X125880000Y-73400000D03*
X123340000Y-73400000D03*
X120800000Y-73400000D03*
%TD*%
D20*
%TO.C,J1*%
X120770000Y-81700000D03*
D21*
X123310000Y-81700000D03*
X125850000Y-81700000D03*
X128390000Y-81700000D03*
%TD*%
D12*
%TO.C,D3*%
X90750000Y-79790000D03*
D13*
X90750000Y-77250000D03*
%TD*%
D11*
%TO.C,D2*%
X70500000Y-79450000D03*
X70500000Y-82750000D03*
%TD*%
D15*
%TO.C,U2*%
X98962500Y-67400000D03*
D16*
X98962500Y-64650000D03*
X98962500Y-62650000D03*
D15*
X98962500Y-59900000D03*
%TD*%
D14*
%TO.C,U1*%
X121512500Y-61395000D03*
X121512500Y-62665000D03*
X121512500Y-63935000D03*
X121512500Y-65205000D03*
X128687500Y-65205000D03*
X128687500Y-63935000D03*
X128687500Y-62665000D03*
X128687500Y-61395000D03*
%TD*%
D17*
%TO.C,R3*%
X132050000Y-59850000D03*
X134050000Y-59850000D03*
%TD*%
D11*
%TO.C,D1*%
X109100000Y-65150000D03*
X109100000Y-68450000D03*
%TD*%
D18*
%TO.C,R1*%
X117550000Y-63000000D03*
X115550000Y-63000000D03*
%TD*%
D19*
%TO.C,C1*%
X109050000Y-58600000D03*
X109050000Y-61725000D03*
%TD*%
D18*
%TO.C,R2*%
X117550000Y-65400000D03*
X115550000Y-65400000D03*
%TD*%
D10*
%TO.C,R4*%
X112600000Y-58600000D03*
X112600000Y-60600000D03*
%TD*%
D20*
%TO.C,J2*%
X128520000Y-59200000D03*
D21*
X125980000Y-59200000D03*
X123440000Y-59200000D03*
X120900000Y-59200000D03*
%TD*%
D20*
%TO.C,J1*%
X120870000Y-67500000D03*
D21*
X123410000Y-67500000D03*
X125950000Y-67500000D03*
X128490000Y-67500000D03*
%TD*%
D12*
%TO.C,D3*%
X132950000Y-65490000D03*
D13*
X132950000Y-62950000D03*
%TD*%
D11*
%TO.C,D2*%
X112700000Y-65150000D03*
X112700000Y-68450000D03*
%TD*%
D17*
%TO.C,R3*%
X89950000Y-59950000D03*
X91950000Y-59950000D03*
%TD*%
D19*
%TO.C,C1*%
X66950000Y-58700000D03*
X66950000Y-61825000D03*
%TD*%
D14*
%TO.C,U1*%
X79412500Y-61495000D03*
X79412500Y-62765000D03*
X79412500Y-64035000D03*
X79412500Y-65305000D03*
X86587500Y-65305000D03*
X86587500Y-64035000D03*
X86587500Y-62765000D03*
X86587500Y-61495000D03*
%TD*%
D15*
%TO.C,U2*%
X56862500Y-67500000D03*
D16*
X56862500Y-64750000D03*
X56862500Y-62750000D03*
D15*
X56862500Y-60000000D03*
%TD*%
D11*
%TO.C,D2*%
X70600000Y-65250000D03*
X70600000Y-68550000D03*
%TD*%
D12*
%TO.C,D3*%
X90850000Y-65590000D03*
D13*
X90850000Y-63050000D03*
%TD*%
D20*
%TO.C,J1*%
X78770000Y-67600000D03*
D21*
X81310000Y-67600000D03*
X83850000Y-67600000D03*
X86390000Y-67600000D03*
%TD*%
D20*
%TO.C,J2*%
X86420000Y-59300000D03*
D21*
X83880000Y-59300000D03*
X81340000Y-59300000D03*
X78800000Y-59300000D03*
%TD*%
D10*
%TO.C,R4*%
X70500000Y-58700000D03*
X70500000Y-60700000D03*
%TD*%
D18*
%TO.C,R2*%
X75450000Y-65500000D03*
X73450000Y-65500000D03*
%TD*%
%TO.C,R1*%
X75450000Y-63100000D03*
X73450000Y-63100000D03*
%TD*%
D11*
%TO.C,D1*%
X67000000Y-65250000D03*
X67000000Y-68550000D03*
%TD*%
M02*
