%TF.GenerationSoftware,KiCad,Pcbnew,9.0.6*%
%TF.CreationDate,2025-12-18T22:22:39+05:30*%
%TF.ProjectId,Attiny85_USB_panel,41747469-6e79-4383-955f-5553425f7061,rev?*%
%TF.SameCoordinates,Original*%
%TF.FileFunction,Copper,L2,Bot*%
%TF.FilePolarity,Positive*%
%FSLAX46Y46*%
G04 Gerber Fmt 4.6, Leading zero omitted, Abs format (unit mm)*
G04 Created by KiCad (PCBNEW 9.0.6) date 2025-12-18 22:22:39*
%MOMM*%
%LPD*%
G01*
G04 APERTURE LIST*
%TA.AperFunction,ComponentPad*%
%ADD10R,1.800000X1.800000*%
%TD*%
%TA.AperFunction,ComponentPad*%
%ADD11C,1.800000*%
%TD*%
%TA.AperFunction,ComponentPad*%
%ADD12R,1.700000X1.700000*%
%TD*%
%TA.AperFunction,ComponentPad*%
%ADD13C,1.700000*%
%TD*%
%TA.AperFunction,ViaPad*%
%ADD14C,0.600000*%
%TD*%
%TA.AperFunction,Conductor*%
%ADD15C,0.200000*%
%TD*%
G04 APERTURE END LIST*
D10*
%TO.P,D3,1,K*%
%TO.N,GND*%
X132450000Y-150690000D03*
D11*
%TO.P,D3,2,A*%
%TO.N,Net-(D3-A)*%
X132450000Y-148150000D03*
%TD*%
D12*
%TO.P,J2,1,1Pin_4*%
%TO.N,Net-(J2-1Pin_4)*%
X85920000Y-144500000D03*
D13*
%TO.P,J2,2,Pin_3*%
%TO.N,Net-(J2-Pin_3)*%
X83380000Y-144500000D03*
%TO.P,J2,3,Pin_2*%
%TO.N,Net-(J2-Pin_2)*%
X80840000Y-144500000D03*
%TO.P,J2,4,Pin_1*%
%TO.N,+5V*%
X78300000Y-144500000D03*
%TD*%
D12*
%TO.P,J1,1,Pin_4*%
%TO.N,Net-(J1-Pin_4)*%
X78270000Y-152800000D03*
D13*
%TO.P,J1,2,Pin_3*%
%TO.N,Net-(J1-Pin_3)*%
X80810000Y-152800000D03*
%TO.P,J1,3,Pin_2*%
%TO.N,Net-(J1-Pin_2)*%
X83350000Y-152800000D03*
%TO.P,J1,4,Pin_1*%
%TO.N,GND*%
X85890000Y-152800000D03*
%TD*%
D12*
%TO.P,J2,1,1Pin_4*%
%TO.N,Net-(J2-1Pin_4)*%
X128020000Y-144400000D03*
D13*
%TO.P,J2,2,Pin_3*%
%TO.N,Net-(J2-Pin_3)*%
X125480000Y-144400000D03*
%TO.P,J2,3,Pin_2*%
%TO.N,Net-(J2-Pin_2)*%
X122940000Y-144400000D03*
%TO.P,J2,4,Pin_1*%
%TO.N,+5V*%
X120400000Y-144400000D03*
%TD*%
D12*
%TO.P,J1,1,Pin_4*%
%TO.N,Net-(J1-Pin_4)*%
X120370000Y-152700000D03*
D13*
%TO.P,J1,2,Pin_3*%
%TO.N,Net-(J1-Pin_3)*%
X122910000Y-152700000D03*
%TO.P,J1,3,Pin_2*%
%TO.N,Net-(J1-Pin_2)*%
X125450000Y-152700000D03*
%TO.P,J1,4,Pin_1*%
%TO.N,GND*%
X127990000Y-152700000D03*
%TD*%
D10*
%TO.P,D3,1,K*%
%TO.N,GND*%
X90350000Y-150790000D03*
D11*
%TO.P,D3,2,A*%
%TO.N,Net-(D3-A)*%
X90350000Y-148250000D03*
%TD*%
D10*
%TO.P,D3,1,K*%
%TO.N,GND*%
X132632000Y-122286000D03*
D11*
%TO.P,D3,2,A*%
%TO.N,Net-(D3-A)*%
X132632000Y-119746000D03*
%TD*%
D12*
%TO.P,J2,1,1Pin_4*%
%TO.N,Net-(J2-1Pin_4)*%
X128102000Y-130196000D03*
D13*
%TO.P,J2,2,Pin_3*%
%TO.N,Net-(J2-Pin_3)*%
X125562000Y-130196000D03*
%TO.P,J2,3,Pin_2*%
%TO.N,Net-(J2-Pin_2)*%
X123022000Y-130196000D03*
%TO.P,J2,4,Pin_1*%
%TO.N,+5V*%
X120482000Y-130196000D03*
%TD*%
D10*
%TO.P,D3,1,K*%
%TO.N,GND*%
X90432000Y-136586000D03*
D11*
%TO.P,D3,2,A*%
%TO.N,Net-(D3-A)*%
X90432000Y-134046000D03*
%TD*%
D12*
%TO.P,J1,1,Pin_4*%
%TO.N,Net-(J1-Pin_4)*%
X78352000Y-138596000D03*
D13*
%TO.P,J1,2,Pin_3*%
%TO.N,Net-(J1-Pin_3)*%
X80892000Y-138596000D03*
%TO.P,J1,3,Pin_2*%
%TO.N,Net-(J1-Pin_2)*%
X83432000Y-138596000D03*
%TO.P,J1,4,Pin_1*%
%TO.N,GND*%
X85972000Y-138596000D03*
%TD*%
D12*
%TO.P,J2,1,1Pin_4*%
%TO.N,Net-(J2-1Pin_4)*%
X86002000Y-130296000D03*
D13*
%TO.P,J2,2,Pin_3*%
%TO.N,Net-(J2-Pin_3)*%
X83462000Y-130296000D03*
%TO.P,J2,3,Pin_2*%
%TO.N,Net-(J2-Pin_2)*%
X80922000Y-130296000D03*
%TO.P,J2,4,Pin_1*%
%TO.N,+5V*%
X78382000Y-130296000D03*
%TD*%
D12*
%TO.P,J1,1,Pin_4*%
%TO.N,Net-(J1-Pin_4)*%
X120452000Y-138496000D03*
D13*
%TO.P,J1,2,Pin_3*%
%TO.N,Net-(J1-Pin_3)*%
X122992000Y-138496000D03*
%TO.P,J1,3,Pin_2*%
%TO.N,Net-(J1-Pin_2)*%
X125532000Y-138496000D03*
%TO.P,J1,4,Pin_1*%
%TO.N,GND*%
X128072000Y-138496000D03*
%TD*%
D10*
%TO.P,D3,1,K*%
%TO.N,GND*%
X132532000Y-136486000D03*
D11*
%TO.P,D3,2,A*%
%TO.N,Net-(D3-A)*%
X132532000Y-133946000D03*
%TD*%
D12*
%TO.P,J2,1,1Pin_4*%
%TO.N,Net-(J2-1Pin_4)*%
X86102000Y-116096000D03*
D13*
%TO.P,J2,2,Pin_3*%
%TO.N,Net-(J2-Pin_3)*%
X83562000Y-116096000D03*
%TO.P,J2,3,Pin_2*%
%TO.N,Net-(J2-Pin_2)*%
X81022000Y-116096000D03*
%TO.P,J2,4,Pin_1*%
%TO.N,+5V*%
X78482000Y-116096000D03*
%TD*%
D12*
%TO.P,J1,1,Pin_4*%
%TO.N,Net-(J1-Pin_4)*%
X78452000Y-124396000D03*
D13*
%TO.P,J1,2,Pin_3*%
%TO.N,Net-(J1-Pin_3)*%
X80992000Y-124396000D03*
%TO.P,J1,3,Pin_2*%
%TO.N,Net-(J1-Pin_2)*%
X83532000Y-124396000D03*
%TO.P,J1,4,Pin_1*%
%TO.N,GND*%
X86072000Y-124396000D03*
%TD*%
D12*
%TO.P,J2,1,1Pin_4*%
%TO.N,Net-(J2-1Pin_4)*%
X128202000Y-115996000D03*
D13*
%TO.P,J2,2,Pin_3*%
%TO.N,Net-(J2-Pin_3)*%
X125662000Y-115996000D03*
%TO.P,J2,3,Pin_2*%
%TO.N,Net-(J2-Pin_2)*%
X123122000Y-115996000D03*
%TO.P,J2,4,Pin_1*%
%TO.N,+5V*%
X120582000Y-115996000D03*
%TD*%
D12*
%TO.P,J1,1,Pin_4*%
%TO.N,Net-(J1-Pin_4)*%
X120552000Y-124296000D03*
D13*
%TO.P,J1,2,Pin_3*%
%TO.N,Net-(J1-Pin_3)*%
X123092000Y-124296000D03*
%TO.P,J1,3,Pin_2*%
%TO.N,Net-(J1-Pin_2)*%
X125632000Y-124296000D03*
%TO.P,J1,4,Pin_1*%
%TO.N,GND*%
X128172000Y-124296000D03*
%TD*%
D10*
%TO.P,D3,1,K*%
%TO.N,GND*%
X90532000Y-122386000D03*
D11*
%TO.P,D3,2,A*%
%TO.N,Net-(D3-A)*%
X90532000Y-119846000D03*
%TD*%
D10*
%TO.P,D3,1,K*%
%TO.N,GND*%
X132832000Y-93886000D03*
D11*
%TO.P,D3,2,A*%
%TO.N,Net-(D3-A)*%
X132832000Y-91346000D03*
%TD*%
D12*
%TO.P,J2,1,1Pin_4*%
%TO.N,Net-(J2-1Pin_4)*%
X128302000Y-101796000D03*
D13*
%TO.P,J2,2,Pin_3*%
%TO.N,Net-(J2-Pin_3)*%
X125762000Y-101796000D03*
%TO.P,J2,3,Pin_2*%
%TO.N,Net-(J2-Pin_2)*%
X123222000Y-101796000D03*
%TO.P,J2,4,Pin_1*%
%TO.N,+5V*%
X120682000Y-101796000D03*
%TD*%
D10*
%TO.P,D3,1,K*%
%TO.N,GND*%
X90632000Y-108186000D03*
D11*
%TO.P,D3,2,A*%
%TO.N,Net-(D3-A)*%
X90632000Y-105646000D03*
%TD*%
D12*
%TO.P,J1,1,Pin_4*%
%TO.N,Net-(J1-Pin_4)*%
X78552000Y-110196000D03*
D13*
%TO.P,J1,2,Pin_3*%
%TO.N,Net-(J1-Pin_3)*%
X81092000Y-110196000D03*
%TO.P,J1,3,Pin_2*%
%TO.N,Net-(J1-Pin_2)*%
X83632000Y-110196000D03*
%TO.P,J1,4,Pin_1*%
%TO.N,GND*%
X86172000Y-110196000D03*
%TD*%
D12*
%TO.P,J2,1,1Pin_4*%
%TO.N,Net-(J2-1Pin_4)*%
X86202000Y-101896000D03*
D13*
%TO.P,J2,2,Pin_3*%
%TO.N,Net-(J2-Pin_3)*%
X83662000Y-101896000D03*
%TO.P,J2,3,Pin_2*%
%TO.N,Net-(J2-Pin_2)*%
X81122000Y-101896000D03*
%TO.P,J2,4,Pin_1*%
%TO.N,+5V*%
X78582000Y-101896000D03*
%TD*%
D12*
%TO.P,J1,1,Pin_4*%
%TO.N,Net-(J1-Pin_4)*%
X120652000Y-110096000D03*
D13*
%TO.P,J1,2,Pin_3*%
%TO.N,Net-(J1-Pin_3)*%
X123192000Y-110096000D03*
%TO.P,J1,3,Pin_2*%
%TO.N,Net-(J1-Pin_2)*%
X125732000Y-110096000D03*
%TO.P,J1,4,Pin_1*%
%TO.N,GND*%
X128272000Y-110096000D03*
%TD*%
D10*
%TO.P,D3,1,K*%
%TO.N,GND*%
X132732000Y-108086000D03*
D11*
%TO.P,D3,2,A*%
%TO.N,Net-(D3-A)*%
X132732000Y-105546000D03*
%TD*%
D12*
%TO.P,J2,1,1Pin_4*%
%TO.N,Net-(J2-1Pin_4)*%
X86302000Y-87696000D03*
D13*
%TO.P,J2,2,Pin_3*%
%TO.N,Net-(J2-Pin_3)*%
X83762000Y-87696000D03*
%TO.P,J2,3,Pin_2*%
%TO.N,Net-(J2-Pin_2)*%
X81222000Y-87696000D03*
%TO.P,J2,4,Pin_1*%
%TO.N,+5V*%
X78682000Y-87696000D03*
%TD*%
D12*
%TO.P,J1,1,Pin_4*%
%TO.N,Net-(J1-Pin_4)*%
X78652000Y-95996000D03*
D13*
%TO.P,J1,2,Pin_3*%
%TO.N,Net-(J1-Pin_3)*%
X81192000Y-95996000D03*
%TO.P,J1,3,Pin_2*%
%TO.N,Net-(J1-Pin_2)*%
X83732000Y-95996000D03*
%TO.P,J1,4,Pin_1*%
%TO.N,GND*%
X86272000Y-95996000D03*
%TD*%
D12*
%TO.P,J2,1,1Pin_4*%
%TO.N,Net-(J2-1Pin_4)*%
X128402000Y-87596000D03*
D13*
%TO.P,J2,2,Pin_3*%
%TO.N,Net-(J2-Pin_3)*%
X125862000Y-87596000D03*
%TO.P,J2,3,Pin_2*%
%TO.N,Net-(J2-Pin_2)*%
X123322000Y-87596000D03*
%TO.P,J2,4,Pin_1*%
%TO.N,+5V*%
X120782000Y-87596000D03*
%TD*%
D12*
%TO.P,J1,1,Pin_4*%
%TO.N,Net-(J1-Pin_4)*%
X120752000Y-95896000D03*
D13*
%TO.P,J1,2,Pin_3*%
%TO.N,Net-(J1-Pin_3)*%
X123292000Y-95896000D03*
%TO.P,J1,3,Pin_2*%
%TO.N,Net-(J1-Pin_2)*%
X125832000Y-95896000D03*
%TO.P,J1,4,Pin_1*%
%TO.N,GND*%
X128372000Y-95896000D03*
%TD*%
D10*
%TO.P,D3,1,K*%
%TO.N,GND*%
X90732000Y-93986000D03*
D11*
%TO.P,D3,2,A*%
%TO.N,Net-(D3-A)*%
X90732000Y-91446000D03*
%TD*%
D10*
%TO.P,D3,1,K*%
%TO.N,GND*%
X132850000Y-79690000D03*
D11*
%TO.P,D3,2,A*%
%TO.N,Net-(D3-A)*%
X132850000Y-77150000D03*
%TD*%
D12*
%TO.P,J2,1,1Pin_4*%
%TO.N,Net-(J2-1Pin_4)*%
X86320000Y-73500000D03*
D13*
%TO.P,J2,2,Pin_3*%
%TO.N,Net-(J2-Pin_3)*%
X83780000Y-73500000D03*
%TO.P,J2,3,Pin_2*%
%TO.N,Net-(J2-Pin_2)*%
X81240000Y-73500000D03*
%TO.P,J2,4,Pin_1*%
%TO.N,+5V*%
X78700000Y-73500000D03*
%TD*%
D12*
%TO.P,J1,1,Pin_4*%
%TO.N,Net-(J1-Pin_4)*%
X78670000Y-81800000D03*
D13*
%TO.P,J1,2,Pin_3*%
%TO.N,Net-(J1-Pin_3)*%
X81210000Y-81800000D03*
%TO.P,J1,3,Pin_2*%
%TO.N,Net-(J1-Pin_2)*%
X83750000Y-81800000D03*
%TO.P,J1,4,Pin_1*%
%TO.N,GND*%
X86290000Y-81800000D03*
%TD*%
D12*
%TO.P,J2,1,1Pin_4*%
%TO.N,Net-(J2-1Pin_4)*%
X128420000Y-73400000D03*
D13*
%TO.P,J2,2,Pin_3*%
%TO.N,Net-(J2-Pin_3)*%
X125880000Y-73400000D03*
%TO.P,J2,3,Pin_2*%
%TO.N,Net-(J2-Pin_2)*%
X123340000Y-73400000D03*
%TO.P,J2,4,Pin_1*%
%TO.N,+5V*%
X120800000Y-73400000D03*
%TD*%
D12*
%TO.P,J1,1,Pin_4*%
%TO.N,Net-(J1-Pin_4)*%
X120770000Y-81700000D03*
D13*
%TO.P,J1,2,Pin_3*%
%TO.N,Net-(J1-Pin_3)*%
X123310000Y-81700000D03*
%TO.P,J1,3,Pin_2*%
%TO.N,Net-(J1-Pin_2)*%
X125850000Y-81700000D03*
%TO.P,J1,4,Pin_1*%
%TO.N,GND*%
X128390000Y-81700000D03*
%TD*%
D10*
%TO.P,D3,1,K*%
%TO.N,GND*%
X90750000Y-79790000D03*
D11*
%TO.P,D3,2,A*%
%TO.N,Net-(D3-A)*%
X90750000Y-77250000D03*
%TD*%
D12*
%TO.P,J2,1,1Pin_4*%
%TO.N,Net-(J2-1Pin_4)*%
X128520000Y-59200000D03*
D13*
%TO.P,J2,2,Pin_3*%
%TO.N,Net-(J2-Pin_3)*%
X125980000Y-59200000D03*
%TO.P,J2,3,Pin_2*%
%TO.N,Net-(J2-Pin_2)*%
X123440000Y-59200000D03*
%TO.P,J2,4,Pin_1*%
%TO.N,+5V*%
X120900000Y-59200000D03*
%TD*%
D12*
%TO.P,J1,1,Pin_4*%
%TO.N,Net-(J1-Pin_4)*%
X120870000Y-67500000D03*
D13*
%TO.P,J1,2,Pin_3*%
%TO.N,Net-(J1-Pin_3)*%
X123410000Y-67500000D03*
%TO.P,J1,3,Pin_2*%
%TO.N,Net-(J1-Pin_2)*%
X125950000Y-67500000D03*
%TO.P,J1,4,Pin_1*%
%TO.N,GND*%
X128490000Y-67500000D03*
%TD*%
D10*
%TO.P,D3,1,K*%
%TO.N,GND*%
X132950000Y-65490000D03*
D11*
%TO.P,D3,2,A*%
%TO.N,Net-(D3-A)*%
X132950000Y-62950000D03*
%TD*%
D10*
%TO.P,D3,1,K*%
%TO.N,GND*%
X90850000Y-65590000D03*
D11*
%TO.P,D3,2,A*%
%TO.N,Net-(D3-A)*%
X90850000Y-63050000D03*
%TD*%
D12*
%TO.P,J1,1,Pin_4*%
%TO.N,Net-(J1-Pin_4)*%
X78770000Y-67600000D03*
D13*
%TO.P,J1,2,Pin_3*%
%TO.N,Net-(J1-Pin_3)*%
X81310000Y-67600000D03*
%TO.P,J1,3,Pin_2*%
%TO.N,Net-(J1-Pin_2)*%
X83850000Y-67600000D03*
%TO.P,J1,4,Pin_1*%
%TO.N,GND*%
X86390000Y-67600000D03*
%TD*%
D12*
%TO.P,J2,1,1Pin_4*%
%TO.N,Net-(J2-1Pin_4)*%
X86420000Y-59300000D03*
D13*
%TO.P,J2,2,Pin_3*%
%TO.N,Net-(J2-Pin_3)*%
X83880000Y-59300000D03*
%TO.P,J2,3,Pin_2*%
%TO.N,Net-(J2-Pin_2)*%
X81340000Y-59300000D03*
%TO.P,J2,4,Pin_1*%
%TO.N,+5V*%
X78800000Y-59300000D03*
%TD*%
D14*
%TO.N,+5V*%
X104750000Y-151050000D03*
%TO.N,Net-(J1-Pin_4)*%
X122350000Y-146550000D03*
%TO.N,Net-(D2-K)*%
X112200000Y-147550000D03*
%TO.N,GND*%
X110450000Y-147050000D03*
%TO.N,Net-(J2-Pin_3)*%
X126450000Y-149000000D03*
%TO.N,Net-(D2-K)*%
X113300000Y-148850000D03*
%TO.N,Net-(J2-1Pin_4)*%
X129750000Y-149350000D03*
%TO.N,Net-(J1-Pin_3)*%
X119850000Y-148250000D03*
%TO.N,Net-(J1-Pin_2)*%
X124097536Y-149154321D03*
%TO.N,Net-(J1-Pin_3)*%
X123500000Y-147900000D03*
X117950000Y-150150000D03*
%TO.N,Net-(J2-1Pin_4)*%
X87650000Y-149450000D03*
%TO.N,Net-(J2-Pin_3)*%
X84350000Y-149100000D03*
%TO.N,Net-(J1-Pin_3)*%
X81400000Y-148000000D03*
X75850000Y-150250000D03*
%TO.N,Net-(D2-K)*%
X71200000Y-148950000D03*
%TO.N,Net-(J1-Pin_3)*%
X77750000Y-148350000D03*
%TO.N,GND*%
X68350000Y-147150000D03*
%TO.N,Net-(J1-Pin_4)*%
X80250000Y-146650000D03*
%TO.N,Net-(D2-K)*%
X70100000Y-147650000D03*
%TO.N,Net-(J1-Pin_2)*%
X81997536Y-149254321D03*
%TO.N,+5V*%
X62650000Y-151150000D03*
X104932000Y-122646000D03*
%TO.N,Net-(J1-Pin_2)*%
X82079536Y-135050321D03*
%TO.N,Net-(J1-Pin_4)*%
X122532000Y-118146000D03*
%TO.N,GND*%
X68432000Y-132946000D03*
%TO.N,Net-(J1-Pin_4)*%
X80332000Y-132446000D03*
%TO.N,Net-(D2-K)*%
X112382000Y-119146000D03*
%TO.N,GND*%
X110632000Y-118646000D03*
%TO.N,Net-(D2-K)*%
X70182000Y-133446000D03*
%TO.N,Net-(J2-Pin_3)*%
X126632000Y-120596000D03*
%TO.N,Net-(D2-K)*%
X113482000Y-120446000D03*
%TO.N,+5V*%
X62732000Y-136946000D03*
%TO.N,Net-(J2-1Pin_4)*%
X129932000Y-120946000D03*
%TO.N,Net-(J1-Pin_3)*%
X120032000Y-119846000D03*
%TO.N,Net-(J1-Pin_2)*%
X124279536Y-120750321D03*
%TO.N,Net-(J1-Pin_3)*%
X123682000Y-119496000D03*
X118132000Y-121746000D03*
X77832000Y-134146000D03*
X75932000Y-136046000D03*
%TO.N,Net-(J2-1Pin_4)*%
X129832000Y-135146000D03*
%TO.N,Net-(J1-Pin_3)*%
X119932000Y-134046000D03*
%TO.N,Net-(J1-Pin_4)*%
X122432000Y-132346000D03*
%TO.N,Net-(J1-Pin_3)*%
X118032000Y-135946000D03*
X123582000Y-133696000D03*
%TO.N,Net-(D2-K)*%
X71282000Y-134746000D03*
X112282000Y-133346000D03*
%TO.N,GND*%
X110532000Y-132846000D03*
%TO.N,Net-(J1-Pin_2)*%
X124179536Y-134950321D03*
%TO.N,Net-(J2-Pin_3)*%
X84432000Y-134896000D03*
%TO.N,Net-(J1-Pin_3)*%
X81482000Y-133796000D03*
%TO.N,Net-(J2-1Pin_4)*%
X87732000Y-135246000D03*
%TO.N,+5V*%
X104832000Y-136846000D03*
%TO.N,Net-(D2-K)*%
X113382000Y-134646000D03*
%TO.N,Net-(J2-Pin_3)*%
X126532000Y-134796000D03*
%TO.N,Net-(J2-1Pin_4)*%
X87832000Y-121046000D03*
%TO.N,Net-(J2-Pin_3)*%
X84532000Y-120696000D03*
%TO.N,Net-(J1-Pin_3)*%
X81582000Y-119596000D03*
X76032000Y-121846000D03*
%TO.N,Net-(D2-K)*%
X71382000Y-120546000D03*
%TO.N,Net-(J1-Pin_3)*%
X77932000Y-119946000D03*
%TO.N,GND*%
X68532000Y-118746000D03*
%TO.N,Net-(J1-Pin_4)*%
X80432000Y-118246000D03*
%TO.N,Net-(D2-K)*%
X70282000Y-119246000D03*
%TO.N,Net-(J1-Pin_2)*%
X82179536Y-120850321D03*
%TO.N,+5V*%
X62832000Y-122746000D03*
X105132000Y-94246000D03*
%TO.N,Net-(J1-Pin_2)*%
X82279536Y-106650321D03*
%TO.N,Net-(J1-Pin_4)*%
X122732000Y-89746000D03*
%TO.N,GND*%
X68632000Y-104546000D03*
%TO.N,Net-(J1-Pin_4)*%
X80532000Y-104046000D03*
%TO.N,Net-(D2-K)*%
X112582000Y-90746000D03*
%TO.N,GND*%
X110832000Y-90246000D03*
%TO.N,Net-(D2-K)*%
X70382000Y-105046000D03*
%TO.N,Net-(J2-Pin_3)*%
X126832000Y-92196000D03*
%TO.N,Net-(D2-K)*%
X113682000Y-92046000D03*
%TO.N,+5V*%
X62932000Y-108546000D03*
%TO.N,Net-(J2-1Pin_4)*%
X130132000Y-92546000D03*
%TO.N,Net-(J1-Pin_3)*%
X120232000Y-91446000D03*
%TO.N,Net-(J1-Pin_2)*%
X124479536Y-92350321D03*
%TO.N,Net-(J1-Pin_3)*%
X123882000Y-91096000D03*
X118332000Y-93346000D03*
X78032000Y-105746000D03*
X76132000Y-107646000D03*
%TO.N,Net-(J2-1Pin_4)*%
X130032000Y-106746000D03*
%TO.N,Net-(J1-Pin_3)*%
X120132000Y-105646000D03*
%TO.N,Net-(J1-Pin_4)*%
X122632000Y-103946000D03*
%TO.N,Net-(J1-Pin_3)*%
X118232000Y-107546000D03*
X123782000Y-105296000D03*
%TO.N,Net-(D2-K)*%
X71482000Y-106346000D03*
X112482000Y-104946000D03*
%TO.N,GND*%
X110732000Y-104446000D03*
%TO.N,Net-(J1-Pin_2)*%
X124379536Y-106550321D03*
%TO.N,Net-(J2-Pin_3)*%
X84632000Y-106496000D03*
%TO.N,Net-(J1-Pin_3)*%
X81682000Y-105396000D03*
%TO.N,Net-(J2-1Pin_4)*%
X87932000Y-106846000D03*
%TO.N,+5V*%
X105032000Y-108446000D03*
%TO.N,Net-(D2-K)*%
X113582000Y-106246000D03*
%TO.N,Net-(J2-Pin_3)*%
X126732000Y-106396000D03*
%TO.N,Net-(J2-1Pin_4)*%
X88032000Y-92646000D03*
%TO.N,Net-(J2-Pin_3)*%
X84732000Y-92296000D03*
%TO.N,Net-(J1-Pin_3)*%
X81782000Y-91196000D03*
X76232000Y-93446000D03*
%TO.N,Net-(D2-K)*%
X71582000Y-92146000D03*
%TO.N,Net-(J1-Pin_3)*%
X78132000Y-91546000D03*
%TO.N,GND*%
X68732000Y-90346000D03*
%TO.N,Net-(J1-Pin_4)*%
X80632000Y-89846000D03*
%TO.N,Net-(D2-K)*%
X70482000Y-90846000D03*
%TO.N,Net-(J1-Pin_2)*%
X82379536Y-92450321D03*
%TO.N,+5V*%
X63032000Y-94346000D03*
X105150000Y-80050000D03*
%TO.N,Net-(J1-Pin_4)*%
X122750000Y-75550000D03*
%TO.N,Net-(D2-K)*%
X112600000Y-76550000D03*
%TO.N,GND*%
X110850000Y-76050000D03*
%TO.N,Net-(J2-Pin_3)*%
X126850000Y-78000000D03*
%TO.N,Net-(D2-K)*%
X113700000Y-77850000D03*
%TO.N,Net-(J2-1Pin_4)*%
X130150000Y-78350000D03*
%TO.N,Net-(J1-Pin_3)*%
X120250000Y-77250000D03*
%TO.N,Net-(J1-Pin_2)*%
X124497536Y-78154321D03*
%TO.N,Net-(J1-Pin_3)*%
X123900000Y-76900000D03*
X118350000Y-79150000D03*
%TO.N,Net-(J2-1Pin_4)*%
X88050000Y-78450000D03*
%TO.N,Net-(J2-Pin_3)*%
X84750000Y-78100000D03*
%TO.N,Net-(J1-Pin_3)*%
X81800000Y-77000000D03*
X76250000Y-79250000D03*
%TO.N,Net-(D2-K)*%
X71600000Y-77950000D03*
%TO.N,Net-(J1-Pin_3)*%
X78150000Y-77350000D03*
%TO.N,GND*%
X68750000Y-76150000D03*
%TO.N,Net-(J1-Pin_4)*%
X80650000Y-75650000D03*
%TO.N,Net-(D2-K)*%
X70500000Y-76650000D03*
%TO.N,Net-(J1-Pin_2)*%
X82397536Y-78254321D03*
%TO.N,+5V*%
X63050000Y-80150000D03*
%TO.N,Net-(J2-1Pin_4)*%
X130250000Y-64150000D03*
%TO.N,Net-(J2-Pin_3)*%
X126950000Y-63800000D03*
%TO.N,Net-(J1-Pin_3)*%
X124000000Y-62700000D03*
X118450000Y-64950000D03*
%TO.N,Net-(D2-K)*%
X113800000Y-63650000D03*
%TO.N,Net-(J1-Pin_3)*%
X120350000Y-63050000D03*
%TO.N,GND*%
X110950000Y-61850000D03*
%TO.N,Net-(J1-Pin_4)*%
X122850000Y-61350000D03*
%TO.N,Net-(D2-K)*%
X112700000Y-62350000D03*
%TO.N,Net-(J1-Pin_2)*%
X124597536Y-63954321D03*
%TO.N,+5V*%
X105250000Y-65850000D03*
%TO.N,GND*%
X68850000Y-61950000D03*
%TO.N,+5V*%
X63150000Y-65950000D03*
%TO.N,Net-(D2-K)*%
X70600000Y-62450000D03*
X71700000Y-63750000D03*
%TO.N,Net-(J1-Pin_2)*%
X82497536Y-64054321D03*
%TO.N,Net-(J1-Pin_3)*%
X76350000Y-65050000D03*
X78250000Y-63150000D03*
X81900000Y-62800000D03*
%TO.N,Net-(J2-Pin_3)*%
X84850000Y-63900000D03*
%TO.N,Net-(J1-Pin_4)*%
X80750000Y-61450000D03*
%TO.N,Net-(J2-1Pin_4)*%
X88150000Y-64250000D03*
%TD*%
D15*
%TO.N,Net-(J2-1Pin_4)*%
X129750000Y-149350000D02*
X129750000Y-145550000D01*
%TO.N,Net-(J2-Pin_3)*%
X125480000Y-148430000D02*
X125480000Y-144400000D01*
X126450000Y-149000000D02*
X126050000Y-149000000D01*
%TO.N,Net-(J1-Pin_4)*%
X122350000Y-149900000D02*
X120370000Y-151880000D01*
X120370000Y-151880000D02*
X120370000Y-152700000D01*
X122350000Y-146550000D02*
X122350000Y-149900000D01*
%TO.N,Net-(J2-Pin_3)*%
X126050000Y-149000000D02*
X125480000Y-148430000D01*
%TO.N,Net-(J2-1Pin_4)*%
X129750000Y-145550000D02*
X128600000Y-144400000D01*
X128600000Y-144400000D02*
X128020000Y-144400000D01*
%TO.N,+5V*%
X107150000Y-144400000D02*
X120400000Y-144400000D01*
%TO.N,Net-(J2-1Pin_4)*%
X86500000Y-144500000D02*
X85920000Y-144500000D01*
%TO.N,Net-(J1-Pin_4)*%
X78270000Y-151980000D02*
X78270000Y-152800000D01*
%TO.N,Net-(J2-Pin_3)*%
X83950000Y-149100000D02*
X83380000Y-148530000D01*
X83380000Y-148530000D02*
X83380000Y-144500000D01*
%TO.N,Net-(J1-Pin_4)*%
X80250000Y-146650000D02*
X80250000Y-150000000D01*
%TO.N,Net-(J2-1Pin_4)*%
X87650000Y-149450000D02*
X87650000Y-145650000D01*
%TO.N,Net-(J2-Pin_3)*%
X84350000Y-149100000D02*
X83950000Y-149100000D01*
%TO.N,Net-(J2-1Pin_4)*%
X87650000Y-145650000D02*
X86500000Y-144500000D01*
%TO.N,Net-(J1-Pin_4)*%
X80250000Y-150000000D02*
X78270000Y-151980000D01*
%TO.N,GND*%
X75403000Y-154203000D02*
X84487000Y-154203000D01*
X84487000Y-154203000D02*
X85890000Y-152800000D01*
X68350000Y-147150000D02*
X75403000Y-154203000D01*
%TO.N,Net-(D2-K)*%
X70100000Y-147850000D02*
X70100000Y-147650000D01*
X71200000Y-148950000D02*
X70100000Y-147850000D01*
%TO.N,+5V*%
X62650000Y-146900000D02*
X65050000Y-144500000D01*
X62650000Y-151150000D02*
X62650000Y-146900000D01*
X65050000Y-144500000D02*
X78300000Y-144500000D01*
%TO.N,Net-(J1-Pin_3)*%
X80810000Y-149810000D02*
X80810000Y-152800000D01*
%TO.N,Net-(J1-Pin_2)*%
X83350000Y-150606785D02*
X83350000Y-152800000D01*
%TO.N,Net-(J1-Pin_3)*%
X81400000Y-148000000D02*
X81400000Y-149200000D01*
X80800000Y-149800000D02*
X80810000Y-149810000D01*
X81400000Y-149200000D02*
X80800000Y-149800000D01*
%TO.N,Net-(J1-Pin_2)*%
X81997536Y-149254321D02*
X83350000Y-150606785D01*
%TO.N,Net-(J1-Pin_3)*%
X77750000Y-148350000D02*
X75850000Y-150250000D01*
%TO.N,GND*%
X126587000Y-154103000D02*
X127990000Y-152700000D01*
%TO.N,+5V*%
X104750000Y-146800000D02*
X107150000Y-144400000D01*
%TO.N,GND*%
X117503000Y-154103000D02*
X126587000Y-154103000D01*
X110450000Y-147050000D02*
X117503000Y-154103000D01*
%TO.N,Net-(D2-K)*%
X112200000Y-147750000D02*
X112200000Y-147550000D01*
X113300000Y-148850000D02*
X112200000Y-147750000D01*
%TO.N,+5V*%
X104750000Y-151050000D02*
X104750000Y-146800000D01*
%TO.N,Net-(J1-Pin_3)*%
X122910000Y-149710000D02*
X122910000Y-152700000D01*
%TO.N,Net-(J1-Pin_2)*%
X125450000Y-150506785D02*
X125450000Y-152700000D01*
%TO.N,Net-(J1-Pin_3)*%
X119850000Y-148250000D02*
X117950000Y-150150000D01*
X123500000Y-149100000D02*
X122900000Y-149700000D01*
X123500000Y-147900000D02*
X123500000Y-149100000D01*
%TO.N,Net-(J1-Pin_2)*%
X124097536Y-149154321D02*
X125450000Y-150506785D01*
%TO.N,Net-(J1-Pin_3)*%
X122900000Y-149700000D02*
X122910000Y-149710000D01*
%TO.N,Net-(J2-1Pin_4)*%
X129932000Y-120946000D02*
X129932000Y-117146000D01*
%TO.N,Net-(J2-Pin_3)*%
X125662000Y-120026000D02*
X125662000Y-115996000D01*
X126632000Y-120596000D02*
X126232000Y-120596000D01*
%TO.N,Net-(J1-Pin_4)*%
X122532000Y-121496000D02*
X120552000Y-123476000D01*
X120552000Y-123476000D02*
X120552000Y-124296000D01*
X122532000Y-118146000D02*
X122532000Y-121496000D01*
%TO.N,Net-(J2-Pin_3)*%
X126232000Y-120596000D02*
X125662000Y-120026000D01*
%TO.N,Net-(J2-1Pin_4)*%
X129932000Y-117146000D02*
X128782000Y-115996000D01*
X128782000Y-115996000D02*
X128202000Y-115996000D01*
%TO.N,+5V*%
X107332000Y-115996000D02*
X120582000Y-115996000D01*
%TO.N,Net-(J2-Pin_3)*%
X84432000Y-134896000D02*
X84032000Y-134896000D01*
%TO.N,Net-(J2-1Pin_4)*%
X86582000Y-130296000D02*
X86002000Y-130296000D01*
%TO.N,Net-(J1-Pin_4)*%
X78352000Y-137776000D02*
X78352000Y-138596000D01*
X80332000Y-135796000D02*
X78352000Y-137776000D01*
%TO.N,Net-(J2-1Pin_4)*%
X87732000Y-131446000D02*
X86582000Y-130296000D01*
X87732000Y-135246000D02*
X87732000Y-131446000D01*
%TO.N,Net-(J2-Pin_3)*%
X84032000Y-134896000D02*
X83462000Y-134326000D01*
X83462000Y-134326000D02*
X83462000Y-130296000D01*
%TO.N,Net-(J1-Pin_4)*%
X80332000Y-132446000D02*
X80332000Y-135796000D01*
%TO.N,GND*%
X75485000Y-139999000D02*
X84569000Y-139999000D01*
X68432000Y-132946000D02*
X75485000Y-139999000D01*
%TO.N,Net-(D2-K)*%
X70182000Y-133646000D02*
X70182000Y-133446000D01*
%TO.N,GND*%
X84569000Y-139999000D02*
X85972000Y-138596000D01*
%TO.N,Net-(D2-K)*%
X71282000Y-134746000D02*
X70182000Y-133646000D01*
%TO.N,+5V*%
X62732000Y-136946000D02*
X62732000Y-132696000D01*
X62732000Y-132696000D02*
X65132000Y-130296000D01*
%TO.N,Net-(J1-Pin_3)*%
X80892000Y-135606000D02*
X80892000Y-138596000D01*
%TO.N,+5V*%
X65132000Y-130296000D02*
X78382000Y-130296000D01*
%TO.N,Net-(J1-Pin_2)*%
X83432000Y-136402785D02*
X83432000Y-138596000D01*
%TO.N,Net-(J1-Pin_3)*%
X81482000Y-133796000D02*
X81482000Y-134996000D01*
X123582000Y-134896000D02*
X122982000Y-135496000D01*
%TO.N,+5V*%
X104832000Y-136846000D02*
X104832000Y-132596000D01*
%TO.N,Net-(J1-Pin_2)*%
X125532000Y-136302785D02*
X125532000Y-138496000D01*
%TO.N,Net-(J1-Pin_3)*%
X119932000Y-134046000D02*
X118032000Y-135946000D01*
%TO.N,Net-(D2-K)*%
X113382000Y-134646000D02*
X112282000Y-133546000D01*
%TO.N,Net-(J1-Pin_3)*%
X122992000Y-135506000D02*
X122992000Y-138496000D01*
X77832000Y-134146000D02*
X75932000Y-136046000D01*
%TO.N,GND*%
X126669000Y-139899000D02*
X128072000Y-138496000D01*
%TO.N,Net-(J1-Pin_3)*%
X80882000Y-135596000D02*
X80892000Y-135606000D01*
X81482000Y-134996000D02*
X80882000Y-135596000D01*
%TO.N,Net-(J1-Pin_2)*%
X82079536Y-135050321D02*
X83432000Y-136402785D01*
%TO.N,Net-(D2-K)*%
X112282000Y-133546000D02*
X112282000Y-133346000D01*
%TO.N,+5V*%
X104832000Y-132596000D02*
X107232000Y-130196000D01*
%TO.N,GND*%
X110532000Y-132846000D02*
X117585000Y-139899000D01*
X117585000Y-139899000D02*
X126669000Y-139899000D01*
%TO.N,Net-(J2-Pin_3)*%
X125562000Y-134226000D02*
X125562000Y-130196000D01*
X126532000Y-134796000D02*
X126132000Y-134796000D01*
%TO.N,Net-(J2-1Pin_4)*%
X129832000Y-135146000D02*
X129832000Y-131346000D01*
X129832000Y-131346000D02*
X128682000Y-130196000D01*
%TO.N,+5V*%
X107232000Y-130196000D02*
X120482000Y-130196000D01*
%TO.N,Net-(J2-Pin_3)*%
X126132000Y-134796000D02*
X125562000Y-134226000D01*
%TO.N,Net-(J1-Pin_4)*%
X122432000Y-135696000D02*
X120452000Y-137676000D01*
%TO.N,Net-(J2-1Pin_4)*%
X128682000Y-130196000D02*
X128102000Y-130196000D01*
%TO.N,Net-(J1-Pin_4)*%
X122432000Y-132346000D02*
X122432000Y-135696000D01*
X120452000Y-137676000D02*
X120452000Y-138496000D01*
%TO.N,Net-(J1-Pin_3)*%
X123582000Y-133696000D02*
X123582000Y-134896000D01*
%TO.N,Net-(J1-Pin_2)*%
X124179536Y-134950321D02*
X125532000Y-136302785D01*
%TO.N,Net-(J1-Pin_3)*%
X122982000Y-135496000D02*
X122992000Y-135506000D01*
%TO.N,Net-(J2-1Pin_4)*%
X86682000Y-116096000D02*
X86102000Y-116096000D01*
%TO.N,Net-(J1-Pin_4)*%
X78452000Y-123576000D02*
X78452000Y-124396000D01*
%TO.N,Net-(J2-Pin_3)*%
X84132000Y-120696000D02*
X83562000Y-120126000D01*
X83562000Y-120126000D02*
X83562000Y-116096000D01*
%TO.N,Net-(J1-Pin_4)*%
X80432000Y-118246000D02*
X80432000Y-121596000D01*
%TO.N,Net-(J2-1Pin_4)*%
X87832000Y-121046000D02*
X87832000Y-117246000D01*
%TO.N,Net-(J2-Pin_3)*%
X84532000Y-120696000D02*
X84132000Y-120696000D01*
%TO.N,Net-(J2-1Pin_4)*%
X87832000Y-117246000D02*
X86682000Y-116096000D01*
%TO.N,Net-(J1-Pin_4)*%
X80432000Y-121596000D02*
X78452000Y-123576000D01*
%TO.N,GND*%
X75585000Y-125799000D02*
X84669000Y-125799000D01*
X84669000Y-125799000D02*
X86072000Y-124396000D01*
X68532000Y-118746000D02*
X75585000Y-125799000D01*
%TO.N,Net-(D2-K)*%
X70282000Y-119446000D02*
X70282000Y-119246000D01*
X71382000Y-120546000D02*
X70282000Y-119446000D01*
%TO.N,+5V*%
X62832000Y-118496000D02*
X65232000Y-116096000D01*
X62832000Y-122746000D02*
X62832000Y-118496000D01*
X65232000Y-116096000D02*
X78482000Y-116096000D01*
%TO.N,Net-(J1-Pin_3)*%
X80992000Y-121406000D02*
X80992000Y-124396000D01*
%TO.N,Net-(J1-Pin_2)*%
X83532000Y-122202785D02*
X83532000Y-124396000D01*
%TO.N,Net-(J1-Pin_3)*%
X81582000Y-119596000D02*
X81582000Y-120796000D01*
X80982000Y-121396000D02*
X80992000Y-121406000D01*
X81582000Y-120796000D02*
X80982000Y-121396000D01*
%TO.N,Net-(J1-Pin_2)*%
X82179536Y-120850321D02*
X83532000Y-122202785D01*
%TO.N,Net-(J1-Pin_3)*%
X77932000Y-119946000D02*
X76032000Y-121846000D01*
%TO.N,GND*%
X126769000Y-125699000D02*
X128172000Y-124296000D01*
%TO.N,+5V*%
X104932000Y-118396000D02*
X107332000Y-115996000D01*
%TO.N,GND*%
X117685000Y-125699000D02*
X126769000Y-125699000D01*
X110632000Y-118646000D02*
X117685000Y-125699000D01*
%TO.N,Net-(D2-K)*%
X112382000Y-119346000D02*
X112382000Y-119146000D01*
X113482000Y-120446000D02*
X112382000Y-119346000D01*
%TO.N,+5V*%
X104932000Y-122646000D02*
X104932000Y-118396000D01*
%TO.N,Net-(J1-Pin_3)*%
X123092000Y-121306000D02*
X123092000Y-124296000D01*
%TO.N,Net-(J1-Pin_2)*%
X125632000Y-122102785D02*
X125632000Y-124296000D01*
%TO.N,Net-(J1-Pin_3)*%
X120032000Y-119846000D02*
X118132000Y-121746000D01*
X123682000Y-120696000D02*
X123082000Y-121296000D01*
X123682000Y-119496000D02*
X123682000Y-120696000D01*
%TO.N,Net-(J1-Pin_2)*%
X124279536Y-120750321D02*
X125632000Y-122102785D01*
%TO.N,Net-(J1-Pin_3)*%
X123082000Y-121296000D02*
X123092000Y-121306000D01*
%TO.N,Net-(J2-1Pin_4)*%
X130132000Y-92546000D02*
X130132000Y-88746000D01*
%TO.N,Net-(J2-Pin_3)*%
X125862000Y-91626000D02*
X125862000Y-87596000D01*
X126832000Y-92196000D02*
X126432000Y-92196000D01*
%TO.N,Net-(J1-Pin_4)*%
X122732000Y-93096000D02*
X120752000Y-95076000D01*
X120752000Y-95076000D02*
X120752000Y-95896000D01*
X122732000Y-89746000D02*
X122732000Y-93096000D01*
%TO.N,Net-(J2-Pin_3)*%
X126432000Y-92196000D02*
X125862000Y-91626000D01*
%TO.N,Net-(J2-1Pin_4)*%
X130132000Y-88746000D02*
X128982000Y-87596000D01*
X128982000Y-87596000D02*
X128402000Y-87596000D01*
%TO.N,+5V*%
X107532000Y-87596000D02*
X120782000Y-87596000D01*
%TO.N,Net-(J2-Pin_3)*%
X84632000Y-106496000D02*
X84232000Y-106496000D01*
%TO.N,Net-(J2-1Pin_4)*%
X86782000Y-101896000D02*
X86202000Y-101896000D01*
%TO.N,Net-(J1-Pin_4)*%
X78552000Y-109376000D02*
X78552000Y-110196000D01*
X80532000Y-107396000D02*
X78552000Y-109376000D01*
%TO.N,Net-(J2-1Pin_4)*%
X87932000Y-103046000D02*
X86782000Y-101896000D01*
X87932000Y-106846000D02*
X87932000Y-103046000D01*
%TO.N,Net-(J2-Pin_3)*%
X84232000Y-106496000D02*
X83662000Y-105926000D01*
X83662000Y-105926000D02*
X83662000Y-101896000D01*
%TO.N,Net-(J1-Pin_4)*%
X80532000Y-104046000D02*
X80532000Y-107396000D01*
%TO.N,GND*%
X75685000Y-111599000D02*
X84769000Y-111599000D01*
X68632000Y-104546000D02*
X75685000Y-111599000D01*
%TO.N,Net-(D2-K)*%
X70382000Y-105246000D02*
X70382000Y-105046000D01*
%TO.N,GND*%
X84769000Y-111599000D02*
X86172000Y-110196000D01*
%TO.N,Net-(D2-K)*%
X71482000Y-106346000D02*
X70382000Y-105246000D01*
%TO.N,+5V*%
X62932000Y-108546000D02*
X62932000Y-104296000D01*
X62932000Y-104296000D02*
X65332000Y-101896000D01*
%TO.N,Net-(J1-Pin_3)*%
X81092000Y-107206000D02*
X81092000Y-110196000D01*
%TO.N,+5V*%
X65332000Y-101896000D02*
X78582000Y-101896000D01*
%TO.N,Net-(J1-Pin_2)*%
X83632000Y-108002785D02*
X83632000Y-110196000D01*
%TO.N,Net-(J1-Pin_3)*%
X81682000Y-105396000D02*
X81682000Y-106596000D01*
X123782000Y-106496000D02*
X123182000Y-107096000D01*
%TO.N,+5V*%
X105032000Y-108446000D02*
X105032000Y-104196000D01*
%TO.N,Net-(J1-Pin_2)*%
X125732000Y-107902785D02*
X125732000Y-110096000D01*
%TO.N,Net-(J1-Pin_3)*%
X120132000Y-105646000D02*
X118232000Y-107546000D01*
%TO.N,Net-(D2-K)*%
X113582000Y-106246000D02*
X112482000Y-105146000D01*
%TO.N,Net-(J1-Pin_3)*%
X123192000Y-107106000D02*
X123192000Y-110096000D01*
X78032000Y-105746000D02*
X76132000Y-107646000D01*
%TO.N,GND*%
X126869000Y-111499000D02*
X128272000Y-110096000D01*
%TO.N,Net-(J1-Pin_3)*%
X81082000Y-107196000D02*
X81092000Y-107206000D01*
X81682000Y-106596000D02*
X81082000Y-107196000D01*
%TO.N,Net-(J1-Pin_2)*%
X82279536Y-106650321D02*
X83632000Y-108002785D01*
%TO.N,Net-(D2-K)*%
X112482000Y-105146000D02*
X112482000Y-104946000D01*
%TO.N,+5V*%
X105032000Y-104196000D02*
X107432000Y-101796000D01*
%TO.N,GND*%
X110732000Y-104446000D02*
X117785000Y-111499000D01*
X117785000Y-111499000D02*
X126869000Y-111499000D01*
%TO.N,Net-(J2-Pin_3)*%
X125762000Y-105826000D02*
X125762000Y-101796000D01*
X126732000Y-106396000D02*
X126332000Y-106396000D01*
%TO.N,Net-(J2-1Pin_4)*%
X130032000Y-106746000D02*
X130032000Y-102946000D01*
X130032000Y-102946000D02*
X128882000Y-101796000D01*
%TO.N,+5V*%
X107432000Y-101796000D02*
X120682000Y-101796000D01*
%TO.N,Net-(J2-Pin_3)*%
X126332000Y-106396000D02*
X125762000Y-105826000D01*
%TO.N,Net-(J1-Pin_4)*%
X122632000Y-107296000D02*
X120652000Y-109276000D01*
%TO.N,Net-(J2-1Pin_4)*%
X128882000Y-101796000D02*
X128302000Y-101796000D01*
%TO.N,Net-(J1-Pin_4)*%
X122632000Y-103946000D02*
X122632000Y-107296000D01*
X120652000Y-109276000D02*
X120652000Y-110096000D01*
%TO.N,Net-(J1-Pin_3)*%
X123782000Y-105296000D02*
X123782000Y-106496000D01*
%TO.N,Net-(J1-Pin_2)*%
X124379536Y-106550321D02*
X125732000Y-107902785D01*
%TO.N,Net-(J1-Pin_3)*%
X123182000Y-107096000D02*
X123192000Y-107106000D01*
%TO.N,Net-(J2-1Pin_4)*%
X86882000Y-87696000D02*
X86302000Y-87696000D01*
%TO.N,Net-(J1-Pin_4)*%
X78652000Y-95176000D02*
X78652000Y-95996000D01*
%TO.N,Net-(J2-Pin_3)*%
X84332000Y-92296000D02*
X83762000Y-91726000D01*
X83762000Y-91726000D02*
X83762000Y-87696000D01*
%TO.N,Net-(J1-Pin_4)*%
X80632000Y-89846000D02*
X80632000Y-93196000D01*
%TO.N,Net-(J2-1Pin_4)*%
X88032000Y-92646000D02*
X88032000Y-88846000D01*
%TO.N,Net-(J2-Pin_3)*%
X84732000Y-92296000D02*
X84332000Y-92296000D01*
%TO.N,Net-(J2-1Pin_4)*%
X88032000Y-88846000D02*
X86882000Y-87696000D01*
%TO.N,Net-(J1-Pin_4)*%
X80632000Y-93196000D02*
X78652000Y-95176000D01*
%TO.N,GND*%
X75785000Y-97399000D02*
X84869000Y-97399000D01*
X84869000Y-97399000D02*
X86272000Y-95996000D01*
X68732000Y-90346000D02*
X75785000Y-97399000D01*
%TO.N,Net-(D2-K)*%
X70482000Y-91046000D02*
X70482000Y-90846000D01*
X71582000Y-92146000D02*
X70482000Y-91046000D01*
%TO.N,+5V*%
X63032000Y-90096000D02*
X65432000Y-87696000D01*
X63032000Y-94346000D02*
X63032000Y-90096000D01*
X65432000Y-87696000D02*
X78682000Y-87696000D01*
%TO.N,Net-(J1-Pin_3)*%
X81192000Y-93006000D02*
X81192000Y-95996000D01*
%TO.N,Net-(J1-Pin_2)*%
X83732000Y-93802785D02*
X83732000Y-95996000D01*
%TO.N,Net-(J1-Pin_3)*%
X81782000Y-91196000D02*
X81782000Y-92396000D01*
X81182000Y-92996000D02*
X81192000Y-93006000D01*
X81782000Y-92396000D02*
X81182000Y-92996000D01*
%TO.N,Net-(J1-Pin_2)*%
X82379536Y-92450321D02*
X83732000Y-93802785D01*
%TO.N,Net-(J1-Pin_3)*%
X78132000Y-91546000D02*
X76232000Y-93446000D01*
%TO.N,GND*%
X126969000Y-97299000D02*
X128372000Y-95896000D01*
%TO.N,+5V*%
X105132000Y-89996000D02*
X107532000Y-87596000D01*
%TO.N,GND*%
X117885000Y-97299000D02*
X126969000Y-97299000D01*
X110832000Y-90246000D02*
X117885000Y-97299000D01*
%TO.N,Net-(D2-K)*%
X112582000Y-90946000D02*
X112582000Y-90746000D01*
X113682000Y-92046000D02*
X112582000Y-90946000D01*
%TO.N,+5V*%
X105132000Y-94246000D02*
X105132000Y-89996000D01*
%TO.N,Net-(J1-Pin_3)*%
X123292000Y-92906000D02*
X123292000Y-95896000D01*
%TO.N,Net-(J1-Pin_2)*%
X125832000Y-93702785D02*
X125832000Y-95896000D01*
%TO.N,Net-(J1-Pin_3)*%
X120232000Y-91446000D02*
X118332000Y-93346000D01*
X123882000Y-92296000D02*
X123282000Y-92896000D01*
X123882000Y-91096000D02*
X123882000Y-92296000D01*
%TO.N,Net-(J1-Pin_2)*%
X124479536Y-92350321D02*
X125832000Y-93702785D01*
%TO.N,Net-(J1-Pin_3)*%
X123282000Y-92896000D02*
X123292000Y-92906000D01*
%TO.N,Net-(J2-1Pin_4)*%
X130150000Y-78350000D02*
X130150000Y-74550000D01*
%TO.N,Net-(J2-Pin_3)*%
X125880000Y-77430000D02*
X125880000Y-73400000D01*
X126850000Y-78000000D02*
X126450000Y-78000000D01*
%TO.N,Net-(J1-Pin_4)*%
X122750000Y-78900000D02*
X120770000Y-80880000D01*
X120770000Y-80880000D02*
X120770000Y-81700000D01*
X122750000Y-75550000D02*
X122750000Y-78900000D01*
%TO.N,Net-(J2-Pin_3)*%
X126450000Y-78000000D02*
X125880000Y-77430000D01*
%TO.N,Net-(J2-1Pin_4)*%
X130150000Y-74550000D02*
X129000000Y-73400000D01*
X129000000Y-73400000D02*
X128420000Y-73400000D01*
%TO.N,+5V*%
X107550000Y-73400000D02*
X120800000Y-73400000D01*
%TO.N,Net-(J2-1Pin_4)*%
X86900000Y-73500000D02*
X86320000Y-73500000D01*
%TO.N,Net-(J1-Pin_4)*%
X78670000Y-80980000D02*
X78670000Y-81800000D01*
%TO.N,Net-(J2-Pin_3)*%
X84350000Y-78100000D02*
X83780000Y-77530000D01*
X83780000Y-77530000D02*
X83780000Y-73500000D01*
%TO.N,Net-(J1-Pin_4)*%
X80650000Y-75650000D02*
X80650000Y-79000000D01*
%TO.N,Net-(J2-1Pin_4)*%
X88050000Y-78450000D02*
X88050000Y-74650000D01*
%TO.N,Net-(J2-Pin_3)*%
X84750000Y-78100000D02*
X84350000Y-78100000D01*
%TO.N,Net-(J2-1Pin_4)*%
X88050000Y-74650000D02*
X86900000Y-73500000D01*
%TO.N,Net-(J1-Pin_4)*%
X80650000Y-79000000D02*
X78670000Y-80980000D01*
%TO.N,GND*%
X75803000Y-83203000D02*
X84887000Y-83203000D01*
X84887000Y-83203000D02*
X86290000Y-81800000D01*
X68750000Y-76150000D02*
X75803000Y-83203000D01*
%TO.N,Net-(D2-K)*%
X70500000Y-76850000D02*
X70500000Y-76650000D01*
X71600000Y-77950000D02*
X70500000Y-76850000D01*
%TO.N,+5V*%
X63050000Y-75900000D02*
X65450000Y-73500000D01*
X63050000Y-80150000D02*
X63050000Y-75900000D01*
X65450000Y-73500000D02*
X78700000Y-73500000D01*
%TO.N,Net-(J1-Pin_3)*%
X81210000Y-78810000D02*
X81210000Y-81800000D01*
%TO.N,Net-(J1-Pin_2)*%
X83750000Y-79606785D02*
X83750000Y-81800000D01*
%TO.N,Net-(J1-Pin_3)*%
X81800000Y-77000000D02*
X81800000Y-78200000D01*
X81200000Y-78800000D02*
X81210000Y-78810000D01*
X81800000Y-78200000D02*
X81200000Y-78800000D01*
%TO.N,Net-(J1-Pin_2)*%
X82397536Y-78254321D02*
X83750000Y-79606785D01*
%TO.N,Net-(J1-Pin_3)*%
X78150000Y-77350000D02*
X76250000Y-79250000D01*
%TO.N,GND*%
X126987000Y-83103000D02*
X128390000Y-81700000D01*
%TO.N,+5V*%
X105150000Y-75800000D02*
X107550000Y-73400000D01*
%TO.N,GND*%
X117903000Y-83103000D02*
X126987000Y-83103000D01*
X110850000Y-76050000D02*
X117903000Y-83103000D01*
%TO.N,Net-(D2-K)*%
X112600000Y-76750000D02*
X112600000Y-76550000D01*
X113700000Y-77850000D02*
X112600000Y-76750000D01*
%TO.N,+5V*%
X105150000Y-80050000D02*
X105150000Y-75800000D01*
%TO.N,Net-(J1-Pin_3)*%
X123310000Y-78710000D02*
X123310000Y-81700000D01*
%TO.N,Net-(J1-Pin_2)*%
X125850000Y-79506785D02*
X125850000Y-81700000D01*
%TO.N,Net-(J1-Pin_3)*%
X120250000Y-77250000D02*
X118350000Y-79150000D01*
X123900000Y-78100000D02*
X123300000Y-78700000D01*
X123900000Y-76900000D02*
X123900000Y-78100000D01*
%TO.N,Net-(J1-Pin_2)*%
X124497536Y-78154321D02*
X125850000Y-79506785D01*
%TO.N,Net-(J1-Pin_3)*%
X123300000Y-78700000D02*
X123310000Y-78710000D01*
%TO.N,Net-(J2-1Pin_4)*%
X129100000Y-59200000D02*
X128520000Y-59200000D01*
%TO.N,Net-(J1-Pin_4)*%
X120870000Y-66680000D02*
X120870000Y-67500000D01*
%TO.N,Net-(J2-Pin_3)*%
X126550000Y-63800000D02*
X125980000Y-63230000D01*
X125980000Y-63230000D02*
X125980000Y-59200000D01*
%TO.N,Net-(J1-Pin_4)*%
X122850000Y-61350000D02*
X122850000Y-64700000D01*
%TO.N,Net-(J2-1Pin_4)*%
X130250000Y-64150000D02*
X130250000Y-60350000D01*
%TO.N,Net-(J2-Pin_3)*%
X126950000Y-63800000D02*
X126550000Y-63800000D01*
%TO.N,Net-(J2-1Pin_4)*%
X130250000Y-60350000D02*
X129100000Y-59200000D01*
%TO.N,Net-(J1-Pin_4)*%
X122850000Y-64700000D02*
X120870000Y-66680000D01*
%TO.N,GND*%
X118003000Y-68903000D02*
X127087000Y-68903000D01*
X127087000Y-68903000D02*
X128490000Y-67500000D01*
X110950000Y-61850000D02*
X118003000Y-68903000D01*
%TO.N,Net-(D2-K)*%
X112700000Y-62550000D02*
X112700000Y-62350000D01*
X113800000Y-63650000D02*
X112700000Y-62550000D01*
%TO.N,+5V*%
X105250000Y-61600000D02*
X107650000Y-59200000D01*
X105250000Y-65850000D02*
X105250000Y-61600000D01*
X107650000Y-59200000D02*
X120900000Y-59200000D01*
%TO.N,Net-(J1-Pin_3)*%
X123410000Y-64510000D02*
X123410000Y-67500000D01*
%TO.N,Net-(J1-Pin_2)*%
X125950000Y-65306785D02*
X125950000Y-67500000D01*
%TO.N,Net-(J1-Pin_3)*%
X124000000Y-62700000D02*
X124000000Y-63900000D01*
X123400000Y-64500000D02*
X123410000Y-64510000D01*
X124000000Y-63900000D02*
X123400000Y-64500000D01*
%TO.N,Net-(J1-Pin_2)*%
X124597536Y-63954321D02*
X125950000Y-65306785D01*
%TO.N,Net-(J1-Pin_3)*%
X120350000Y-63050000D02*
X118450000Y-64950000D01*
%TO.N,GND*%
X68850000Y-61950000D02*
X75903000Y-69003000D01*
X84987000Y-69003000D02*
X86390000Y-67600000D01*
X75903000Y-69003000D02*
X84987000Y-69003000D01*
%TO.N,+5V*%
X63150000Y-65950000D02*
X63150000Y-61700000D01*
X63150000Y-61700000D02*
X65550000Y-59300000D01*
X65550000Y-59300000D02*
X78800000Y-59300000D01*
%TO.N,Net-(D2-K)*%
X70600000Y-62650000D02*
X70600000Y-62450000D01*
X71700000Y-63750000D02*
X70600000Y-62650000D01*
%TO.N,Net-(J1-Pin_2)*%
X82497536Y-64054321D02*
X83850000Y-65406785D01*
X83850000Y-65406785D02*
X83850000Y-67600000D01*
%TO.N,Net-(J1-Pin_3)*%
X78250000Y-63150000D02*
X76350000Y-65050000D01*
X81310000Y-64610000D02*
X81310000Y-67600000D01*
X81900000Y-64000000D02*
X81300000Y-64600000D01*
X81300000Y-64600000D02*
X81310000Y-64610000D01*
X81900000Y-62800000D02*
X81900000Y-64000000D01*
%TO.N,Net-(J2-Pin_3)*%
X83880000Y-63330000D02*
X83880000Y-59300000D01*
X84850000Y-63900000D02*
X84450000Y-63900000D01*
X84450000Y-63900000D02*
X83880000Y-63330000D01*
%TO.N,Net-(J1-Pin_4)*%
X80750000Y-61450000D02*
X80750000Y-64800000D01*
X78770000Y-66780000D02*
X78770000Y-67600000D01*
X80750000Y-64800000D02*
X78770000Y-66780000D01*
%TO.N,Net-(J2-1Pin_4)*%
X88150000Y-60450000D02*
X87000000Y-59300000D01*
X87000000Y-59300000D02*
X86420000Y-59300000D01*
X88150000Y-64250000D02*
X88150000Y-60450000D01*
%TD*%
M02*
