%TF.GenerationSoftware,KiCad,Pcbnew,9.0.6*%
%TF.CreationDate,2025-12-18T22:22:39+05:30*%
%TF.ProjectId,Attiny85_USB_panel,41747469-6e79-4383-955f-5553425f7061,rev?*%
%TF.SameCoordinates,Original*%
%TF.FileFunction,Copper,L1,Top*%
%TF.FilePolarity,Positive*%
%FSLAX46Y46*%
G04 Gerber Fmt 4.6, Leading zero omitted, Abs format (unit mm)*
G04 Created by KiCad (PCBNEW 9.0.6) date 2025-12-18 22:22:39*
%MOMM*%
%LPD*%
G01*
G04 APERTURE LIST*
G04 Aperture macros list*
%AMRoundRect*
0 Rectangle with rounded corners*
0 $1 Rounding radius*
0 $2 $3 $4 $5 $6 $7 $8 $9 X,Y pos of 4 corners*
0 Add a 4 corners polygon primitive as box body*
4,1,4,$2,$3,$4,$5,$6,$7,$8,$9,$2,$3,0*
0 Add four circle primitives for the rounded corners*
1,1,$1+$1,$2,$3*
1,1,$1+$1,$4,$5*
1,1,$1+$1,$6,$7*
1,1,$1+$1,$8,$9*
0 Add four rect primitives between the rounded corners*
20,1,$1+$1,$2,$3,$4,$5,0*
20,1,$1+$1,$4,$5,$6,$7,0*
20,1,$1+$1,$6,$7,$8,$9,0*
20,1,$1+$1,$8,$9,$2,$3,0*%
G04 Aperture macros list end*
%TA.AperFunction,SMDPad,CuDef*%
%ADD10RoundRect,0.250000X-0.450000X0.350000X-0.450000X-0.350000X0.450000X-0.350000X0.450000X0.350000X0*%
%TD*%
%TA.AperFunction,SMDPad,CuDef*%
%ADD11RoundRect,0.225000X-0.375000X0.225000X-0.375000X-0.225000X0.375000X-0.225000X0.375000X0.225000X0*%
%TD*%
%TA.AperFunction,ComponentPad*%
%ADD12R,1.800000X1.800000*%
%TD*%
%TA.AperFunction,ComponentPad*%
%ADD13C,1.800000*%
%TD*%
%TA.AperFunction,SMDPad,CuDef*%
%ADD14RoundRect,0.162500X-0.650000X-0.162500X0.650000X-0.162500X0.650000X0.162500X-0.650000X0.162500X0*%
%TD*%
%TA.AperFunction,SMDPad,CuDef*%
%ADD15RoundRect,0.300000X-3.200000X-0.700000X3.200000X-0.700000X3.200000X0.700000X-3.200000X0.700000X0*%
%TD*%
%TA.AperFunction,SMDPad,CuDef*%
%ADD16RoundRect,0.225000X-2.775000X-0.525000X2.775000X-0.525000X2.775000X0.525000X-2.775000X0.525000X0*%
%TD*%
%TA.AperFunction,SMDPad,CuDef*%
%ADD17RoundRect,0.250000X-0.350000X-0.450000X0.350000X-0.450000X0.350000X0.450000X-0.350000X0.450000X0*%
%TD*%
%TA.AperFunction,SMDPad,CuDef*%
%ADD18RoundRect,0.250000X0.350000X0.450000X-0.350000X0.450000X-0.350000X-0.450000X0.350000X-0.450000X0*%
%TD*%
%TA.AperFunction,SMDPad,CuDef*%
%ADD19RoundRect,0.250000X-0.650000X0.412500X-0.650000X-0.412500X0.650000X-0.412500X0.650000X0.412500X0*%
%TD*%
%TA.AperFunction,ComponentPad*%
%ADD20R,1.700000X1.700000*%
%TD*%
%TA.AperFunction,ComponentPad*%
%ADD21C,1.700000*%
%TD*%
%TA.AperFunction,ViaPad*%
%ADD22C,0.600000*%
%TD*%
%TA.AperFunction,Conductor*%
%ADD23C,0.200000*%
%TD*%
G04 APERTURE END LIST*
D10*
%TO.P,R4,1*%
%TO.N,+5V*%
X112100000Y-143800000D03*
%TO.P,R4,2*%
%TO.N,Net-(D2-K)*%
X112100000Y-145800000D03*
%TD*%
D11*
%TO.P,D2,1,K*%
%TO.N,Net-(D2-K)*%
X112200000Y-150350000D03*
%TO.P,D2,2,A*%
%TO.N,GND*%
X112200000Y-153650000D03*
%TD*%
D12*
%TO.P,D3,1,K*%
%TO.N,GND*%
X132450000Y-150690000D03*
D13*
%TO.P,D3,2,A*%
%TO.N,Net-(D3-A)*%
X132450000Y-148150000D03*
%TD*%
D14*
%TO.P,U1,1,~{RESET}/PB5*%
%TO.N,Net-(J1-Pin_4)*%
X121012500Y-146595000D03*
%TO.P,U1,2,XTAL1/PB3*%
%TO.N,Net-(J1-Pin_3)*%
X121012500Y-147865000D03*
%TO.P,U1,3,XTAL2/PB4*%
%TO.N,Net-(J1-Pin_2)*%
X121012500Y-149135000D03*
%TO.P,U1,4,GND*%
%TO.N,GND*%
X121012500Y-150405000D03*
%TO.P,U1,5,AREF/PB0*%
%TO.N,Net-(J2-1Pin_4)*%
X128187500Y-150405000D03*
%TO.P,U1,6,PB1*%
%TO.N,Net-(J2-Pin_3)*%
X128187500Y-149135000D03*
%TO.P,U1,7,PB2*%
%TO.N,Net-(J2-Pin_2)*%
X128187500Y-147865000D03*
%TO.P,U1,8,VCC*%
%TO.N,+5V*%
X128187500Y-146595000D03*
%TD*%
D15*
%TO.P,U2,1,Vcc*%
%TO.N,+5V*%
X98462500Y-152600000D03*
D16*
%TO.P,U2,2,D+*%
%TO.N,Net-(D2-K)*%
X98462500Y-149850000D03*
%TO.P,U2,3,D-*%
%TO.N,Net-(D1-K)*%
X98462500Y-147850000D03*
D15*
%TO.P,U2,4,GND*%
%TO.N,GND*%
X98462500Y-145100000D03*
%TD*%
%TO.P,U2,1,Vcc*%
%TO.N,+5V*%
X56362500Y-152700000D03*
D16*
%TO.P,U2,2,D+*%
%TO.N,Net-(D2-K)*%
X56362500Y-149950000D03*
%TO.P,U2,3,D-*%
%TO.N,Net-(D1-K)*%
X56362500Y-147950000D03*
D15*
%TO.P,U2,4,GND*%
%TO.N,GND*%
X56362500Y-145200000D03*
%TD*%
D14*
%TO.P,U1,1,~{RESET}/PB5*%
%TO.N,Net-(J1-Pin_4)*%
X78912500Y-146695000D03*
%TO.P,U1,2,XTAL1/PB3*%
%TO.N,Net-(J1-Pin_3)*%
X78912500Y-147965000D03*
%TO.P,U1,3,XTAL2/PB4*%
%TO.N,Net-(J1-Pin_2)*%
X78912500Y-149235000D03*
%TO.P,U1,4,GND*%
%TO.N,GND*%
X78912500Y-150505000D03*
%TO.P,U1,5,AREF/PB0*%
%TO.N,Net-(J2-1Pin_4)*%
X86087500Y-150505000D03*
%TO.P,U1,6,PB1*%
%TO.N,Net-(J2-Pin_3)*%
X86087500Y-149235000D03*
%TO.P,U1,7,PB2*%
%TO.N,Net-(J2-Pin_2)*%
X86087500Y-147965000D03*
%TO.P,U1,8,VCC*%
%TO.N,+5V*%
X86087500Y-146695000D03*
%TD*%
D17*
%TO.P,R3,1*%
%TO.N,Net-(J2-Pin_3)*%
X89450000Y-145150000D03*
%TO.P,R3,2*%
%TO.N,Net-(D3-A)*%
X91450000Y-145150000D03*
%TD*%
D11*
%TO.P,D1,1,K*%
%TO.N,Net-(D1-K)*%
X66500000Y-150450000D03*
%TO.P,D1,2,A*%
%TO.N,GND*%
X66500000Y-153750000D03*
%TD*%
D18*
%TO.P,R1,1*%
%TO.N,Net-(J1-Pin_2)*%
X74950000Y-148300000D03*
%TO.P,R1,2*%
%TO.N,Net-(D1-K)*%
X72950000Y-148300000D03*
%TD*%
%TO.P,R1,1*%
%TO.N,Net-(J1-Pin_2)*%
X117050000Y-148200000D03*
%TO.P,R1,2*%
%TO.N,Net-(D1-K)*%
X115050000Y-148200000D03*
%TD*%
D17*
%TO.P,R3,1*%
%TO.N,Net-(J2-Pin_3)*%
X131550000Y-145050000D03*
%TO.P,R3,2*%
%TO.N,Net-(D3-A)*%
X133550000Y-145050000D03*
%TD*%
D19*
%TO.P,C1,1*%
%TO.N,+5V*%
X108550000Y-143800000D03*
%TO.P,C1,2*%
%TO.N,GND*%
X108550000Y-146925000D03*
%TD*%
D11*
%TO.P,D1,1,K*%
%TO.N,Net-(D1-K)*%
X108600000Y-150350000D03*
%TO.P,D1,2,A*%
%TO.N,GND*%
X108600000Y-153650000D03*
%TD*%
D18*
%TO.P,R2,1*%
%TO.N,Net-(J1-Pin_3)*%
X117050000Y-150600000D03*
%TO.P,R2,2*%
%TO.N,Net-(D2-K)*%
X115050000Y-150600000D03*
%TD*%
D19*
%TO.P,C1,1*%
%TO.N,+5V*%
X66450000Y-143900000D03*
%TO.P,C1,2*%
%TO.N,GND*%
X66450000Y-147025000D03*
%TD*%
D18*
%TO.P,R2,1*%
%TO.N,Net-(J1-Pin_3)*%
X74950000Y-150700000D03*
%TO.P,R2,2*%
%TO.N,Net-(D2-K)*%
X72950000Y-150700000D03*
%TD*%
D10*
%TO.P,R4,1*%
%TO.N,+5V*%
X70000000Y-143900000D03*
%TO.P,R4,2*%
%TO.N,Net-(D2-K)*%
X70000000Y-145900000D03*
%TD*%
D20*
%TO.P,J2,1,1Pin_4*%
%TO.N,Net-(J2-1Pin_4)*%
X85920000Y-144500000D03*
D21*
%TO.P,J2,2,Pin_3*%
%TO.N,Net-(J2-Pin_3)*%
X83380000Y-144500000D03*
%TO.P,J2,3,Pin_2*%
%TO.N,Net-(J2-Pin_2)*%
X80840000Y-144500000D03*
%TO.P,J2,4,Pin_1*%
%TO.N,+5V*%
X78300000Y-144500000D03*
%TD*%
D20*
%TO.P,J1,1,Pin_4*%
%TO.N,Net-(J1-Pin_4)*%
X78270000Y-152800000D03*
D21*
%TO.P,J1,2,Pin_3*%
%TO.N,Net-(J1-Pin_3)*%
X80810000Y-152800000D03*
%TO.P,J1,3,Pin_2*%
%TO.N,Net-(J1-Pin_2)*%
X83350000Y-152800000D03*
%TO.P,J1,4,Pin_1*%
%TO.N,GND*%
X85890000Y-152800000D03*
%TD*%
D20*
%TO.P,J2,1,1Pin_4*%
%TO.N,Net-(J2-1Pin_4)*%
X128020000Y-144400000D03*
D21*
%TO.P,J2,2,Pin_3*%
%TO.N,Net-(J2-Pin_3)*%
X125480000Y-144400000D03*
%TO.P,J2,3,Pin_2*%
%TO.N,Net-(J2-Pin_2)*%
X122940000Y-144400000D03*
%TO.P,J2,4,Pin_1*%
%TO.N,+5V*%
X120400000Y-144400000D03*
%TD*%
D20*
%TO.P,J1,1,Pin_4*%
%TO.N,Net-(J1-Pin_4)*%
X120370000Y-152700000D03*
D21*
%TO.P,J1,2,Pin_3*%
%TO.N,Net-(J1-Pin_3)*%
X122910000Y-152700000D03*
%TO.P,J1,3,Pin_2*%
%TO.N,Net-(J1-Pin_2)*%
X125450000Y-152700000D03*
%TO.P,J1,4,Pin_1*%
%TO.N,GND*%
X127990000Y-152700000D03*
%TD*%
D12*
%TO.P,D3,1,K*%
%TO.N,GND*%
X90350000Y-150790000D03*
D13*
%TO.P,D3,2,A*%
%TO.N,Net-(D3-A)*%
X90350000Y-148250000D03*
%TD*%
D11*
%TO.P,D2,1,K*%
%TO.N,Net-(D2-K)*%
X70100000Y-150450000D03*
%TO.P,D2,2,A*%
%TO.N,GND*%
X70100000Y-153750000D03*
%TD*%
D10*
%TO.P,R4,1*%
%TO.N,+5V*%
X112282000Y-115396000D03*
%TO.P,R4,2*%
%TO.N,Net-(D2-K)*%
X112282000Y-117396000D03*
%TD*%
D11*
%TO.P,D2,1,K*%
%TO.N,Net-(D2-K)*%
X112382000Y-121946000D03*
%TO.P,D2,2,A*%
%TO.N,GND*%
X112382000Y-125246000D03*
%TD*%
D12*
%TO.P,D3,1,K*%
%TO.N,GND*%
X132632000Y-122286000D03*
D13*
%TO.P,D3,2,A*%
%TO.N,Net-(D3-A)*%
X132632000Y-119746000D03*
%TD*%
D19*
%TO.P,C1,1*%
%TO.N,+5V*%
X108632000Y-129596000D03*
%TO.P,C1,2*%
%TO.N,GND*%
X108632000Y-132721000D03*
%TD*%
D11*
%TO.P,D1,1,K*%
%TO.N,Net-(D1-K)*%
X108682000Y-136146000D03*
%TO.P,D1,2,A*%
%TO.N,GND*%
X108682000Y-139446000D03*
%TD*%
D20*
%TO.P,J2,1,1Pin_4*%
%TO.N,Net-(J2-1Pin_4)*%
X128102000Y-130196000D03*
D21*
%TO.P,J2,2,Pin_3*%
%TO.N,Net-(J2-Pin_3)*%
X125562000Y-130196000D03*
%TO.P,J2,3,Pin_2*%
%TO.N,Net-(J2-Pin_2)*%
X123022000Y-130196000D03*
%TO.P,J2,4,Pin_1*%
%TO.N,+5V*%
X120482000Y-130196000D03*
%TD*%
D19*
%TO.P,C1,1*%
%TO.N,+5V*%
X66532000Y-129696000D03*
%TO.P,C1,2*%
%TO.N,GND*%
X66532000Y-132821000D03*
%TD*%
D10*
%TO.P,R4,1*%
%TO.N,+5V*%
X70082000Y-129696000D03*
%TO.P,R4,2*%
%TO.N,Net-(D2-K)*%
X70082000Y-131696000D03*
%TD*%
D12*
%TO.P,D3,1,K*%
%TO.N,GND*%
X90432000Y-136586000D03*
D13*
%TO.P,D3,2,A*%
%TO.N,Net-(D3-A)*%
X90432000Y-134046000D03*
%TD*%
D20*
%TO.P,J1,1,Pin_4*%
%TO.N,Net-(J1-Pin_4)*%
X78352000Y-138596000D03*
D21*
%TO.P,J1,2,Pin_3*%
%TO.N,Net-(J1-Pin_3)*%
X80892000Y-138596000D03*
%TO.P,J1,3,Pin_2*%
%TO.N,Net-(J1-Pin_2)*%
X83432000Y-138596000D03*
%TO.P,J1,4,Pin_1*%
%TO.N,GND*%
X85972000Y-138596000D03*
%TD*%
D18*
%TO.P,R2,1*%
%TO.N,Net-(J1-Pin_3)*%
X75032000Y-136496000D03*
%TO.P,R2,2*%
%TO.N,Net-(D2-K)*%
X73032000Y-136496000D03*
%TD*%
D20*
%TO.P,J2,1,1Pin_4*%
%TO.N,Net-(J2-1Pin_4)*%
X86002000Y-130296000D03*
D21*
%TO.P,J2,2,Pin_3*%
%TO.N,Net-(J2-Pin_3)*%
X83462000Y-130296000D03*
%TO.P,J2,3,Pin_2*%
%TO.N,Net-(J2-Pin_2)*%
X80922000Y-130296000D03*
%TO.P,J2,4,Pin_1*%
%TO.N,+5V*%
X78382000Y-130296000D03*
%TD*%
D18*
%TO.P,R2,1*%
%TO.N,Net-(J1-Pin_3)*%
X117132000Y-136396000D03*
%TO.P,R2,2*%
%TO.N,Net-(D2-K)*%
X115132000Y-136396000D03*
%TD*%
D14*
%TO.P,U1,1,~{RESET}/PB5*%
%TO.N,Net-(J1-Pin_4)*%
X121194500Y-118191000D03*
%TO.P,U1,2,XTAL1/PB3*%
%TO.N,Net-(J1-Pin_3)*%
X121194500Y-119461000D03*
%TO.P,U1,3,XTAL2/PB4*%
%TO.N,Net-(J1-Pin_2)*%
X121194500Y-120731000D03*
%TO.P,U1,4,GND*%
%TO.N,GND*%
X121194500Y-122001000D03*
%TO.P,U1,5,AREF/PB0*%
%TO.N,Net-(J2-1Pin_4)*%
X128369500Y-122001000D03*
%TO.P,U1,6,PB1*%
%TO.N,Net-(J2-Pin_3)*%
X128369500Y-120731000D03*
%TO.P,U1,7,PB2*%
%TO.N,Net-(J2-Pin_2)*%
X128369500Y-119461000D03*
%TO.P,U1,8,VCC*%
%TO.N,+5V*%
X128369500Y-118191000D03*
%TD*%
D20*
%TO.P,J1,1,Pin_4*%
%TO.N,Net-(J1-Pin_4)*%
X120452000Y-138496000D03*
D21*
%TO.P,J1,2,Pin_3*%
%TO.N,Net-(J1-Pin_3)*%
X122992000Y-138496000D03*
%TO.P,J1,3,Pin_2*%
%TO.N,Net-(J1-Pin_2)*%
X125532000Y-138496000D03*
%TO.P,J1,4,Pin_1*%
%TO.N,GND*%
X128072000Y-138496000D03*
%TD*%
D11*
%TO.P,D2,1,K*%
%TO.N,Net-(D2-K)*%
X70182000Y-136246000D03*
%TO.P,D2,2,A*%
%TO.N,GND*%
X70182000Y-139546000D03*
%TD*%
D15*
%TO.P,U2,1,Vcc*%
%TO.N,+5V*%
X98644500Y-124196000D03*
D16*
%TO.P,U2,2,D+*%
%TO.N,Net-(D2-K)*%
X98644500Y-121446000D03*
%TO.P,U2,3,D-*%
%TO.N,Net-(D1-K)*%
X98644500Y-119446000D03*
D15*
%TO.P,U2,4,GND*%
%TO.N,GND*%
X98644500Y-116696000D03*
%TD*%
D17*
%TO.P,R3,1*%
%TO.N,Net-(J2-Pin_3)*%
X89532000Y-130946000D03*
%TO.P,R3,2*%
%TO.N,Net-(D3-A)*%
X91532000Y-130946000D03*
%TD*%
D12*
%TO.P,D3,1,K*%
%TO.N,GND*%
X132532000Y-136486000D03*
D13*
%TO.P,D3,2,A*%
%TO.N,Net-(D3-A)*%
X132532000Y-133946000D03*
%TD*%
D14*
%TO.P,U1,1,~{RESET}/PB5*%
%TO.N,Net-(J1-Pin_4)*%
X121094500Y-132391000D03*
%TO.P,U1,2,XTAL1/PB3*%
%TO.N,Net-(J1-Pin_3)*%
X121094500Y-133661000D03*
%TO.P,U1,3,XTAL2/PB4*%
%TO.N,Net-(J1-Pin_2)*%
X121094500Y-134931000D03*
%TO.P,U1,4,GND*%
%TO.N,GND*%
X121094500Y-136201000D03*
%TO.P,U1,5,AREF/PB0*%
%TO.N,Net-(J2-1Pin_4)*%
X128269500Y-136201000D03*
%TO.P,U1,6,PB1*%
%TO.N,Net-(J2-Pin_3)*%
X128269500Y-134931000D03*
%TO.P,U1,7,PB2*%
%TO.N,Net-(J2-Pin_2)*%
X128269500Y-133661000D03*
%TO.P,U1,8,VCC*%
%TO.N,+5V*%
X128269500Y-132391000D03*
%TD*%
%TO.P,U1,1,~{RESET}/PB5*%
%TO.N,Net-(J1-Pin_4)*%
X78994500Y-132491000D03*
%TO.P,U1,2,XTAL1/PB3*%
%TO.N,Net-(J1-Pin_3)*%
X78994500Y-133761000D03*
%TO.P,U1,3,XTAL2/PB4*%
%TO.N,Net-(J1-Pin_2)*%
X78994500Y-135031000D03*
%TO.P,U1,4,GND*%
%TO.N,GND*%
X78994500Y-136301000D03*
%TO.P,U1,5,AREF/PB0*%
%TO.N,Net-(J2-1Pin_4)*%
X86169500Y-136301000D03*
%TO.P,U1,6,PB1*%
%TO.N,Net-(J2-Pin_3)*%
X86169500Y-135031000D03*
%TO.P,U1,7,PB2*%
%TO.N,Net-(J2-Pin_2)*%
X86169500Y-133761000D03*
%TO.P,U1,8,VCC*%
%TO.N,+5V*%
X86169500Y-132491000D03*
%TD*%
D10*
%TO.P,R4,1*%
%TO.N,+5V*%
X112182000Y-129596000D03*
%TO.P,R4,2*%
%TO.N,Net-(D2-K)*%
X112182000Y-131596000D03*
%TD*%
D15*
%TO.P,U2,1,Vcc*%
%TO.N,+5V*%
X56444500Y-138496000D03*
D16*
%TO.P,U2,2,D+*%
%TO.N,Net-(D2-K)*%
X56444500Y-135746000D03*
%TO.P,U2,3,D-*%
%TO.N,Net-(D1-K)*%
X56444500Y-133746000D03*
D15*
%TO.P,U2,4,GND*%
%TO.N,GND*%
X56444500Y-130996000D03*
%TD*%
%TO.P,U2,1,Vcc*%
%TO.N,+5V*%
X98544500Y-138396000D03*
D16*
%TO.P,U2,2,D+*%
%TO.N,Net-(D2-K)*%
X98544500Y-135646000D03*
%TO.P,U2,3,D-*%
%TO.N,Net-(D1-K)*%
X98544500Y-133646000D03*
D15*
%TO.P,U2,4,GND*%
%TO.N,GND*%
X98544500Y-130896000D03*
%TD*%
D11*
%TO.P,D2,1,K*%
%TO.N,Net-(D2-K)*%
X112282000Y-136146000D03*
%TO.P,D2,2,A*%
%TO.N,GND*%
X112282000Y-139446000D03*
%TD*%
D15*
%TO.P,U2,1,Vcc*%
%TO.N,+5V*%
X56544500Y-124296000D03*
D16*
%TO.P,U2,2,D+*%
%TO.N,Net-(D2-K)*%
X56544500Y-121546000D03*
%TO.P,U2,3,D-*%
%TO.N,Net-(D1-K)*%
X56544500Y-119546000D03*
D15*
%TO.P,U2,4,GND*%
%TO.N,GND*%
X56544500Y-116796000D03*
%TD*%
D14*
%TO.P,U1,1,~{RESET}/PB5*%
%TO.N,Net-(J1-Pin_4)*%
X79094500Y-118291000D03*
%TO.P,U1,2,XTAL1/PB3*%
%TO.N,Net-(J1-Pin_3)*%
X79094500Y-119561000D03*
%TO.P,U1,3,XTAL2/PB4*%
%TO.N,Net-(J1-Pin_2)*%
X79094500Y-120831000D03*
%TO.P,U1,4,GND*%
%TO.N,GND*%
X79094500Y-122101000D03*
%TO.P,U1,5,AREF/PB0*%
%TO.N,Net-(J2-1Pin_4)*%
X86269500Y-122101000D03*
%TO.P,U1,6,PB1*%
%TO.N,Net-(J2-Pin_3)*%
X86269500Y-120831000D03*
%TO.P,U1,7,PB2*%
%TO.N,Net-(J2-Pin_2)*%
X86269500Y-119561000D03*
%TO.P,U1,8,VCC*%
%TO.N,+5V*%
X86269500Y-118291000D03*
%TD*%
D17*
%TO.P,R3,1*%
%TO.N,Net-(J2-Pin_3)*%
X89632000Y-116746000D03*
%TO.P,R3,2*%
%TO.N,Net-(D3-A)*%
X91632000Y-116746000D03*
%TD*%
D11*
%TO.P,D1,1,K*%
%TO.N,Net-(D1-K)*%
X66682000Y-122046000D03*
%TO.P,D1,2,A*%
%TO.N,GND*%
X66682000Y-125346000D03*
%TD*%
D18*
%TO.P,R1,1*%
%TO.N,Net-(J1-Pin_2)*%
X75132000Y-119896000D03*
%TO.P,R1,2*%
%TO.N,Net-(D1-K)*%
X73132000Y-119896000D03*
%TD*%
%TO.P,R1,1*%
%TO.N,Net-(J1-Pin_2)*%
X75032000Y-134096000D03*
%TO.P,R1,2*%
%TO.N,Net-(D1-K)*%
X73032000Y-134096000D03*
%TD*%
%TO.P,R1,1*%
%TO.N,Net-(J1-Pin_2)*%
X117132000Y-133996000D03*
%TO.P,R1,2*%
%TO.N,Net-(D1-K)*%
X115132000Y-133996000D03*
%TD*%
%TO.P,R1,1*%
%TO.N,Net-(J1-Pin_2)*%
X117232000Y-119796000D03*
%TO.P,R1,2*%
%TO.N,Net-(D1-K)*%
X115232000Y-119796000D03*
%TD*%
D11*
%TO.P,D1,1,K*%
%TO.N,Net-(D1-K)*%
X66582000Y-136246000D03*
%TO.P,D1,2,A*%
%TO.N,GND*%
X66582000Y-139546000D03*
%TD*%
D17*
%TO.P,R3,1*%
%TO.N,Net-(J2-Pin_3)*%
X131732000Y-116646000D03*
%TO.P,R3,2*%
%TO.N,Net-(D3-A)*%
X133732000Y-116646000D03*
%TD*%
D19*
%TO.P,C1,1*%
%TO.N,+5V*%
X108732000Y-115396000D03*
%TO.P,C1,2*%
%TO.N,GND*%
X108732000Y-118521000D03*
%TD*%
D17*
%TO.P,R3,1*%
%TO.N,Net-(J2-Pin_3)*%
X131632000Y-130846000D03*
%TO.P,R3,2*%
%TO.N,Net-(D3-A)*%
X133632000Y-130846000D03*
%TD*%
D11*
%TO.P,D1,1,K*%
%TO.N,Net-(D1-K)*%
X108782000Y-121946000D03*
%TO.P,D1,2,A*%
%TO.N,GND*%
X108782000Y-125246000D03*
%TD*%
D18*
%TO.P,R2,1*%
%TO.N,Net-(J1-Pin_3)*%
X117232000Y-122196000D03*
%TO.P,R2,2*%
%TO.N,Net-(D2-K)*%
X115232000Y-122196000D03*
%TD*%
D19*
%TO.P,C1,1*%
%TO.N,+5V*%
X66632000Y-115496000D03*
%TO.P,C1,2*%
%TO.N,GND*%
X66632000Y-118621000D03*
%TD*%
D18*
%TO.P,R2,1*%
%TO.N,Net-(J1-Pin_3)*%
X75132000Y-122296000D03*
%TO.P,R2,2*%
%TO.N,Net-(D2-K)*%
X73132000Y-122296000D03*
%TD*%
D10*
%TO.P,R4,1*%
%TO.N,+5V*%
X70182000Y-115496000D03*
%TO.P,R4,2*%
%TO.N,Net-(D2-K)*%
X70182000Y-117496000D03*
%TD*%
D20*
%TO.P,J2,1,1Pin_4*%
%TO.N,Net-(J2-1Pin_4)*%
X86102000Y-116096000D03*
D21*
%TO.P,J2,2,Pin_3*%
%TO.N,Net-(J2-Pin_3)*%
X83562000Y-116096000D03*
%TO.P,J2,3,Pin_2*%
%TO.N,Net-(J2-Pin_2)*%
X81022000Y-116096000D03*
%TO.P,J2,4,Pin_1*%
%TO.N,+5V*%
X78482000Y-116096000D03*
%TD*%
D20*
%TO.P,J1,1,Pin_4*%
%TO.N,Net-(J1-Pin_4)*%
X78452000Y-124396000D03*
D21*
%TO.P,J1,2,Pin_3*%
%TO.N,Net-(J1-Pin_3)*%
X80992000Y-124396000D03*
%TO.P,J1,3,Pin_2*%
%TO.N,Net-(J1-Pin_2)*%
X83532000Y-124396000D03*
%TO.P,J1,4,Pin_1*%
%TO.N,GND*%
X86072000Y-124396000D03*
%TD*%
D20*
%TO.P,J2,1,1Pin_4*%
%TO.N,Net-(J2-1Pin_4)*%
X128202000Y-115996000D03*
D21*
%TO.P,J2,2,Pin_3*%
%TO.N,Net-(J2-Pin_3)*%
X125662000Y-115996000D03*
%TO.P,J2,3,Pin_2*%
%TO.N,Net-(J2-Pin_2)*%
X123122000Y-115996000D03*
%TO.P,J2,4,Pin_1*%
%TO.N,+5V*%
X120582000Y-115996000D03*
%TD*%
D20*
%TO.P,J1,1,Pin_4*%
%TO.N,Net-(J1-Pin_4)*%
X120552000Y-124296000D03*
D21*
%TO.P,J1,2,Pin_3*%
%TO.N,Net-(J1-Pin_3)*%
X123092000Y-124296000D03*
%TO.P,J1,3,Pin_2*%
%TO.N,Net-(J1-Pin_2)*%
X125632000Y-124296000D03*
%TO.P,J1,4,Pin_1*%
%TO.N,GND*%
X128172000Y-124296000D03*
%TD*%
D12*
%TO.P,D3,1,K*%
%TO.N,GND*%
X90532000Y-122386000D03*
D13*
%TO.P,D3,2,A*%
%TO.N,Net-(D3-A)*%
X90532000Y-119846000D03*
%TD*%
D11*
%TO.P,D2,1,K*%
%TO.N,Net-(D2-K)*%
X70282000Y-122046000D03*
%TO.P,D2,2,A*%
%TO.N,GND*%
X70282000Y-125346000D03*
%TD*%
D10*
%TO.P,R4,1*%
%TO.N,+5V*%
X112482000Y-86996000D03*
%TO.P,R4,2*%
%TO.N,Net-(D2-K)*%
X112482000Y-88996000D03*
%TD*%
D11*
%TO.P,D2,1,K*%
%TO.N,Net-(D2-K)*%
X112582000Y-93546000D03*
%TO.P,D2,2,A*%
%TO.N,GND*%
X112582000Y-96846000D03*
%TD*%
D12*
%TO.P,D3,1,K*%
%TO.N,GND*%
X132832000Y-93886000D03*
D13*
%TO.P,D3,2,A*%
%TO.N,Net-(D3-A)*%
X132832000Y-91346000D03*
%TD*%
D19*
%TO.P,C1,1*%
%TO.N,+5V*%
X108832000Y-101196000D03*
%TO.P,C1,2*%
%TO.N,GND*%
X108832000Y-104321000D03*
%TD*%
D11*
%TO.P,D1,1,K*%
%TO.N,Net-(D1-K)*%
X108882000Y-107746000D03*
%TO.P,D1,2,A*%
%TO.N,GND*%
X108882000Y-111046000D03*
%TD*%
D20*
%TO.P,J2,1,1Pin_4*%
%TO.N,Net-(J2-1Pin_4)*%
X128302000Y-101796000D03*
D21*
%TO.P,J2,2,Pin_3*%
%TO.N,Net-(J2-Pin_3)*%
X125762000Y-101796000D03*
%TO.P,J2,3,Pin_2*%
%TO.N,Net-(J2-Pin_2)*%
X123222000Y-101796000D03*
%TO.P,J2,4,Pin_1*%
%TO.N,+5V*%
X120682000Y-101796000D03*
%TD*%
D19*
%TO.P,C1,1*%
%TO.N,+5V*%
X66732000Y-101296000D03*
%TO.P,C1,2*%
%TO.N,GND*%
X66732000Y-104421000D03*
%TD*%
D10*
%TO.P,R4,1*%
%TO.N,+5V*%
X70282000Y-101296000D03*
%TO.P,R4,2*%
%TO.N,Net-(D2-K)*%
X70282000Y-103296000D03*
%TD*%
D12*
%TO.P,D3,1,K*%
%TO.N,GND*%
X90632000Y-108186000D03*
D13*
%TO.P,D3,2,A*%
%TO.N,Net-(D3-A)*%
X90632000Y-105646000D03*
%TD*%
D20*
%TO.P,J1,1,Pin_4*%
%TO.N,Net-(J1-Pin_4)*%
X78552000Y-110196000D03*
D21*
%TO.P,J1,2,Pin_3*%
%TO.N,Net-(J1-Pin_3)*%
X81092000Y-110196000D03*
%TO.P,J1,3,Pin_2*%
%TO.N,Net-(J1-Pin_2)*%
X83632000Y-110196000D03*
%TO.P,J1,4,Pin_1*%
%TO.N,GND*%
X86172000Y-110196000D03*
%TD*%
D18*
%TO.P,R2,1*%
%TO.N,Net-(J1-Pin_3)*%
X75232000Y-108096000D03*
%TO.P,R2,2*%
%TO.N,Net-(D2-K)*%
X73232000Y-108096000D03*
%TD*%
D20*
%TO.P,J2,1,1Pin_4*%
%TO.N,Net-(J2-1Pin_4)*%
X86202000Y-101896000D03*
D21*
%TO.P,J2,2,Pin_3*%
%TO.N,Net-(J2-Pin_3)*%
X83662000Y-101896000D03*
%TO.P,J2,3,Pin_2*%
%TO.N,Net-(J2-Pin_2)*%
X81122000Y-101896000D03*
%TO.P,J2,4,Pin_1*%
%TO.N,+5V*%
X78582000Y-101896000D03*
%TD*%
D18*
%TO.P,R2,1*%
%TO.N,Net-(J1-Pin_3)*%
X117332000Y-107996000D03*
%TO.P,R2,2*%
%TO.N,Net-(D2-K)*%
X115332000Y-107996000D03*
%TD*%
D14*
%TO.P,U1,1,~{RESET}/PB5*%
%TO.N,Net-(J1-Pin_4)*%
X121394500Y-89791000D03*
%TO.P,U1,2,XTAL1/PB3*%
%TO.N,Net-(J1-Pin_3)*%
X121394500Y-91061000D03*
%TO.P,U1,3,XTAL2/PB4*%
%TO.N,Net-(J1-Pin_2)*%
X121394500Y-92331000D03*
%TO.P,U1,4,GND*%
%TO.N,GND*%
X121394500Y-93601000D03*
%TO.P,U1,5,AREF/PB0*%
%TO.N,Net-(J2-1Pin_4)*%
X128569500Y-93601000D03*
%TO.P,U1,6,PB1*%
%TO.N,Net-(J2-Pin_3)*%
X128569500Y-92331000D03*
%TO.P,U1,7,PB2*%
%TO.N,Net-(J2-Pin_2)*%
X128569500Y-91061000D03*
%TO.P,U1,8,VCC*%
%TO.N,+5V*%
X128569500Y-89791000D03*
%TD*%
D20*
%TO.P,J1,1,Pin_4*%
%TO.N,Net-(J1-Pin_4)*%
X120652000Y-110096000D03*
D21*
%TO.P,J1,2,Pin_3*%
%TO.N,Net-(J1-Pin_3)*%
X123192000Y-110096000D03*
%TO.P,J1,3,Pin_2*%
%TO.N,Net-(J1-Pin_2)*%
X125732000Y-110096000D03*
%TO.P,J1,4,Pin_1*%
%TO.N,GND*%
X128272000Y-110096000D03*
%TD*%
D11*
%TO.P,D2,1,K*%
%TO.N,Net-(D2-K)*%
X70382000Y-107846000D03*
%TO.P,D2,2,A*%
%TO.N,GND*%
X70382000Y-111146000D03*
%TD*%
D15*
%TO.P,U2,1,Vcc*%
%TO.N,+5V*%
X98844500Y-95796000D03*
D16*
%TO.P,U2,2,D+*%
%TO.N,Net-(D2-K)*%
X98844500Y-93046000D03*
%TO.P,U2,3,D-*%
%TO.N,Net-(D1-K)*%
X98844500Y-91046000D03*
D15*
%TO.P,U2,4,GND*%
%TO.N,GND*%
X98844500Y-88296000D03*
%TD*%
D17*
%TO.P,R3,1*%
%TO.N,Net-(J2-Pin_3)*%
X89732000Y-102546000D03*
%TO.P,R3,2*%
%TO.N,Net-(D3-A)*%
X91732000Y-102546000D03*
%TD*%
D12*
%TO.P,D3,1,K*%
%TO.N,GND*%
X132732000Y-108086000D03*
D13*
%TO.P,D3,2,A*%
%TO.N,Net-(D3-A)*%
X132732000Y-105546000D03*
%TD*%
D14*
%TO.P,U1,1,~{RESET}/PB5*%
%TO.N,Net-(J1-Pin_4)*%
X121294500Y-103991000D03*
%TO.P,U1,2,XTAL1/PB3*%
%TO.N,Net-(J1-Pin_3)*%
X121294500Y-105261000D03*
%TO.P,U1,3,XTAL2/PB4*%
%TO.N,Net-(J1-Pin_2)*%
X121294500Y-106531000D03*
%TO.P,U1,4,GND*%
%TO.N,GND*%
X121294500Y-107801000D03*
%TO.P,U1,5,AREF/PB0*%
%TO.N,Net-(J2-1Pin_4)*%
X128469500Y-107801000D03*
%TO.P,U1,6,PB1*%
%TO.N,Net-(J2-Pin_3)*%
X128469500Y-106531000D03*
%TO.P,U1,7,PB2*%
%TO.N,Net-(J2-Pin_2)*%
X128469500Y-105261000D03*
%TO.P,U1,8,VCC*%
%TO.N,+5V*%
X128469500Y-103991000D03*
%TD*%
%TO.P,U1,1,~{RESET}/PB5*%
%TO.N,Net-(J1-Pin_4)*%
X79194500Y-104091000D03*
%TO.P,U1,2,XTAL1/PB3*%
%TO.N,Net-(J1-Pin_3)*%
X79194500Y-105361000D03*
%TO.P,U1,3,XTAL2/PB4*%
%TO.N,Net-(J1-Pin_2)*%
X79194500Y-106631000D03*
%TO.P,U1,4,GND*%
%TO.N,GND*%
X79194500Y-107901000D03*
%TO.P,U1,5,AREF/PB0*%
%TO.N,Net-(J2-1Pin_4)*%
X86369500Y-107901000D03*
%TO.P,U1,6,PB1*%
%TO.N,Net-(J2-Pin_3)*%
X86369500Y-106631000D03*
%TO.P,U1,7,PB2*%
%TO.N,Net-(J2-Pin_2)*%
X86369500Y-105361000D03*
%TO.P,U1,8,VCC*%
%TO.N,+5V*%
X86369500Y-104091000D03*
%TD*%
D10*
%TO.P,R4,1*%
%TO.N,+5V*%
X112382000Y-101196000D03*
%TO.P,R4,2*%
%TO.N,Net-(D2-K)*%
X112382000Y-103196000D03*
%TD*%
D15*
%TO.P,U2,1,Vcc*%
%TO.N,+5V*%
X56644500Y-110096000D03*
D16*
%TO.P,U2,2,D+*%
%TO.N,Net-(D2-K)*%
X56644500Y-107346000D03*
%TO.P,U2,3,D-*%
%TO.N,Net-(D1-K)*%
X56644500Y-105346000D03*
D15*
%TO.P,U2,4,GND*%
%TO.N,GND*%
X56644500Y-102596000D03*
%TD*%
%TO.P,U2,1,Vcc*%
%TO.N,+5V*%
X98744500Y-109996000D03*
D16*
%TO.P,U2,2,D+*%
%TO.N,Net-(D2-K)*%
X98744500Y-107246000D03*
%TO.P,U2,3,D-*%
%TO.N,Net-(D1-K)*%
X98744500Y-105246000D03*
D15*
%TO.P,U2,4,GND*%
%TO.N,GND*%
X98744500Y-102496000D03*
%TD*%
D11*
%TO.P,D2,1,K*%
%TO.N,Net-(D2-K)*%
X112482000Y-107746000D03*
%TO.P,D2,2,A*%
%TO.N,GND*%
X112482000Y-111046000D03*
%TD*%
D15*
%TO.P,U2,1,Vcc*%
%TO.N,+5V*%
X56744500Y-95896000D03*
D16*
%TO.P,U2,2,D+*%
%TO.N,Net-(D2-K)*%
X56744500Y-93146000D03*
%TO.P,U2,3,D-*%
%TO.N,Net-(D1-K)*%
X56744500Y-91146000D03*
D15*
%TO.P,U2,4,GND*%
%TO.N,GND*%
X56744500Y-88396000D03*
%TD*%
D14*
%TO.P,U1,1,~{RESET}/PB5*%
%TO.N,Net-(J1-Pin_4)*%
X79294500Y-89891000D03*
%TO.P,U1,2,XTAL1/PB3*%
%TO.N,Net-(J1-Pin_3)*%
X79294500Y-91161000D03*
%TO.P,U1,3,XTAL2/PB4*%
%TO.N,Net-(J1-Pin_2)*%
X79294500Y-92431000D03*
%TO.P,U1,4,GND*%
%TO.N,GND*%
X79294500Y-93701000D03*
%TO.P,U1,5,AREF/PB0*%
%TO.N,Net-(J2-1Pin_4)*%
X86469500Y-93701000D03*
%TO.P,U1,6,PB1*%
%TO.N,Net-(J2-Pin_3)*%
X86469500Y-92431000D03*
%TO.P,U1,7,PB2*%
%TO.N,Net-(J2-Pin_2)*%
X86469500Y-91161000D03*
%TO.P,U1,8,VCC*%
%TO.N,+5V*%
X86469500Y-89891000D03*
%TD*%
D17*
%TO.P,R3,1*%
%TO.N,Net-(J2-Pin_3)*%
X89832000Y-88346000D03*
%TO.P,R3,2*%
%TO.N,Net-(D3-A)*%
X91832000Y-88346000D03*
%TD*%
D11*
%TO.P,D1,1,K*%
%TO.N,Net-(D1-K)*%
X66882000Y-93646000D03*
%TO.P,D1,2,A*%
%TO.N,GND*%
X66882000Y-96946000D03*
%TD*%
D18*
%TO.P,R1,1*%
%TO.N,Net-(J1-Pin_2)*%
X75332000Y-91496000D03*
%TO.P,R1,2*%
%TO.N,Net-(D1-K)*%
X73332000Y-91496000D03*
%TD*%
%TO.P,R1,1*%
%TO.N,Net-(J1-Pin_2)*%
X75232000Y-105696000D03*
%TO.P,R1,2*%
%TO.N,Net-(D1-K)*%
X73232000Y-105696000D03*
%TD*%
%TO.P,R1,1*%
%TO.N,Net-(J1-Pin_2)*%
X117332000Y-105596000D03*
%TO.P,R1,2*%
%TO.N,Net-(D1-K)*%
X115332000Y-105596000D03*
%TD*%
%TO.P,R1,1*%
%TO.N,Net-(J1-Pin_2)*%
X117432000Y-91396000D03*
%TO.P,R1,2*%
%TO.N,Net-(D1-K)*%
X115432000Y-91396000D03*
%TD*%
D11*
%TO.P,D1,1,K*%
%TO.N,Net-(D1-K)*%
X66782000Y-107846000D03*
%TO.P,D1,2,A*%
%TO.N,GND*%
X66782000Y-111146000D03*
%TD*%
D17*
%TO.P,R3,1*%
%TO.N,Net-(J2-Pin_3)*%
X131932000Y-88246000D03*
%TO.P,R3,2*%
%TO.N,Net-(D3-A)*%
X133932000Y-88246000D03*
%TD*%
D19*
%TO.P,C1,1*%
%TO.N,+5V*%
X108932000Y-86996000D03*
%TO.P,C1,2*%
%TO.N,GND*%
X108932000Y-90121000D03*
%TD*%
D17*
%TO.P,R3,1*%
%TO.N,Net-(J2-Pin_3)*%
X131832000Y-102446000D03*
%TO.P,R3,2*%
%TO.N,Net-(D3-A)*%
X133832000Y-102446000D03*
%TD*%
D11*
%TO.P,D1,1,K*%
%TO.N,Net-(D1-K)*%
X108982000Y-93546000D03*
%TO.P,D1,2,A*%
%TO.N,GND*%
X108982000Y-96846000D03*
%TD*%
D18*
%TO.P,R2,1*%
%TO.N,Net-(J1-Pin_3)*%
X117432000Y-93796000D03*
%TO.P,R2,2*%
%TO.N,Net-(D2-K)*%
X115432000Y-93796000D03*
%TD*%
D19*
%TO.P,C1,1*%
%TO.N,+5V*%
X66832000Y-87096000D03*
%TO.P,C1,2*%
%TO.N,GND*%
X66832000Y-90221000D03*
%TD*%
D18*
%TO.P,R2,1*%
%TO.N,Net-(J1-Pin_3)*%
X75332000Y-93896000D03*
%TO.P,R2,2*%
%TO.N,Net-(D2-K)*%
X73332000Y-93896000D03*
%TD*%
D10*
%TO.P,R4,1*%
%TO.N,+5V*%
X70382000Y-87096000D03*
%TO.P,R4,2*%
%TO.N,Net-(D2-K)*%
X70382000Y-89096000D03*
%TD*%
D20*
%TO.P,J2,1,1Pin_4*%
%TO.N,Net-(J2-1Pin_4)*%
X86302000Y-87696000D03*
D21*
%TO.P,J2,2,Pin_3*%
%TO.N,Net-(J2-Pin_3)*%
X83762000Y-87696000D03*
%TO.P,J2,3,Pin_2*%
%TO.N,Net-(J2-Pin_2)*%
X81222000Y-87696000D03*
%TO.P,J2,4,Pin_1*%
%TO.N,+5V*%
X78682000Y-87696000D03*
%TD*%
D20*
%TO.P,J1,1,Pin_4*%
%TO.N,Net-(J1-Pin_4)*%
X78652000Y-95996000D03*
D21*
%TO.P,J1,2,Pin_3*%
%TO.N,Net-(J1-Pin_3)*%
X81192000Y-95996000D03*
%TO.P,J1,3,Pin_2*%
%TO.N,Net-(J1-Pin_2)*%
X83732000Y-95996000D03*
%TO.P,J1,4,Pin_1*%
%TO.N,GND*%
X86272000Y-95996000D03*
%TD*%
D20*
%TO.P,J2,1,1Pin_4*%
%TO.N,Net-(J2-1Pin_4)*%
X128402000Y-87596000D03*
D21*
%TO.P,J2,2,Pin_3*%
%TO.N,Net-(J2-Pin_3)*%
X125862000Y-87596000D03*
%TO.P,J2,3,Pin_2*%
%TO.N,Net-(J2-Pin_2)*%
X123322000Y-87596000D03*
%TO.P,J2,4,Pin_1*%
%TO.N,+5V*%
X120782000Y-87596000D03*
%TD*%
D20*
%TO.P,J1,1,Pin_4*%
%TO.N,Net-(J1-Pin_4)*%
X120752000Y-95896000D03*
D21*
%TO.P,J1,2,Pin_3*%
%TO.N,Net-(J1-Pin_3)*%
X123292000Y-95896000D03*
%TO.P,J1,3,Pin_2*%
%TO.N,Net-(J1-Pin_2)*%
X125832000Y-95896000D03*
%TO.P,J1,4,Pin_1*%
%TO.N,GND*%
X128372000Y-95896000D03*
%TD*%
D12*
%TO.P,D3,1,K*%
%TO.N,GND*%
X90732000Y-93986000D03*
D13*
%TO.P,D3,2,A*%
%TO.N,Net-(D3-A)*%
X90732000Y-91446000D03*
%TD*%
D11*
%TO.P,D2,1,K*%
%TO.N,Net-(D2-K)*%
X70482000Y-93646000D03*
%TO.P,D2,2,A*%
%TO.N,GND*%
X70482000Y-96946000D03*
%TD*%
D10*
%TO.P,R4,1*%
%TO.N,+5V*%
X112500000Y-72800000D03*
%TO.P,R4,2*%
%TO.N,Net-(D2-K)*%
X112500000Y-74800000D03*
%TD*%
D11*
%TO.P,D2,1,K*%
%TO.N,Net-(D2-K)*%
X112600000Y-79350000D03*
%TO.P,D2,2,A*%
%TO.N,GND*%
X112600000Y-82650000D03*
%TD*%
D12*
%TO.P,D3,1,K*%
%TO.N,GND*%
X132850000Y-79690000D03*
D13*
%TO.P,D3,2,A*%
%TO.N,Net-(D3-A)*%
X132850000Y-77150000D03*
%TD*%
D14*
%TO.P,U1,1,~{RESET}/PB5*%
%TO.N,Net-(J1-Pin_4)*%
X121412500Y-75595000D03*
%TO.P,U1,2,XTAL1/PB3*%
%TO.N,Net-(J1-Pin_3)*%
X121412500Y-76865000D03*
%TO.P,U1,3,XTAL2/PB4*%
%TO.N,Net-(J1-Pin_2)*%
X121412500Y-78135000D03*
%TO.P,U1,4,GND*%
%TO.N,GND*%
X121412500Y-79405000D03*
%TO.P,U1,5,AREF/PB0*%
%TO.N,Net-(J2-1Pin_4)*%
X128587500Y-79405000D03*
%TO.P,U1,6,PB1*%
%TO.N,Net-(J2-Pin_3)*%
X128587500Y-78135000D03*
%TO.P,U1,7,PB2*%
%TO.N,Net-(J2-Pin_2)*%
X128587500Y-76865000D03*
%TO.P,U1,8,VCC*%
%TO.N,+5V*%
X128587500Y-75595000D03*
%TD*%
D15*
%TO.P,U2,1,Vcc*%
%TO.N,+5V*%
X98862500Y-81600000D03*
D16*
%TO.P,U2,2,D+*%
%TO.N,Net-(D2-K)*%
X98862500Y-78850000D03*
%TO.P,U2,3,D-*%
%TO.N,Net-(D1-K)*%
X98862500Y-76850000D03*
D15*
%TO.P,U2,4,GND*%
%TO.N,GND*%
X98862500Y-74100000D03*
%TD*%
%TO.P,U2,1,Vcc*%
%TO.N,+5V*%
X56762500Y-81700000D03*
D16*
%TO.P,U2,2,D+*%
%TO.N,Net-(D2-K)*%
X56762500Y-78950000D03*
%TO.P,U2,3,D-*%
%TO.N,Net-(D1-K)*%
X56762500Y-76950000D03*
D15*
%TO.P,U2,4,GND*%
%TO.N,GND*%
X56762500Y-74200000D03*
%TD*%
D14*
%TO.P,U1,1,~{RESET}/PB5*%
%TO.N,Net-(J1-Pin_4)*%
X79312500Y-75695000D03*
%TO.P,U1,2,XTAL1/PB3*%
%TO.N,Net-(J1-Pin_3)*%
X79312500Y-76965000D03*
%TO.P,U1,3,XTAL2/PB4*%
%TO.N,Net-(J1-Pin_2)*%
X79312500Y-78235000D03*
%TO.P,U1,4,GND*%
%TO.N,GND*%
X79312500Y-79505000D03*
%TO.P,U1,5,AREF/PB0*%
%TO.N,Net-(J2-1Pin_4)*%
X86487500Y-79505000D03*
%TO.P,U1,6,PB1*%
%TO.N,Net-(J2-Pin_3)*%
X86487500Y-78235000D03*
%TO.P,U1,7,PB2*%
%TO.N,Net-(J2-Pin_2)*%
X86487500Y-76965000D03*
%TO.P,U1,8,VCC*%
%TO.N,+5V*%
X86487500Y-75695000D03*
%TD*%
D17*
%TO.P,R3,1*%
%TO.N,Net-(J2-Pin_3)*%
X89850000Y-74150000D03*
%TO.P,R3,2*%
%TO.N,Net-(D3-A)*%
X91850000Y-74150000D03*
%TD*%
D11*
%TO.P,D1,1,K*%
%TO.N,Net-(D1-K)*%
X66900000Y-79450000D03*
%TO.P,D1,2,A*%
%TO.N,GND*%
X66900000Y-82750000D03*
%TD*%
D18*
%TO.P,R1,1*%
%TO.N,Net-(J1-Pin_2)*%
X75350000Y-77300000D03*
%TO.P,R1,2*%
%TO.N,Net-(D1-K)*%
X73350000Y-77300000D03*
%TD*%
%TO.P,R1,1*%
%TO.N,Net-(J1-Pin_2)*%
X117450000Y-77200000D03*
%TO.P,R1,2*%
%TO.N,Net-(D1-K)*%
X115450000Y-77200000D03*
%TD*%
D17*
%TO.P,R3,1*%
%TO.N,Net-(J2-Pin_3)*%
X131950000Y-74050000D03*
%TO.P,R3,2*%
%TO.N,Net-(D3-A)*%
X133950000Y-74050000D03*
%TD*%
D19*
%TO.P,C1,1*%
%TO.N,+5V*%
X108950000Y-72800000D03*
%TO.P,C1,2*%
%TO.N,GND*%
X108950000Y-75925000D03*
%TD*%
D11*
%TO.P,D1,1,K*%
%TO.N,Net-(D1-K)*%
X109000000Y-79350000D03*
%TO.P,D1,2,A*%
%TO.N,GND*%
X109000000Y-82650000D03*
%TD*%
D18*
%TO.P,R2,1*%
%TO.N,Net-(J1-Pin_3)*%
X117450000Y-79600000D03*
%TO.P,R2,2*%
%TO.N,Net-(D2-K)*%
X115450000Y-79600000D03*
%TD*%
D19*
%TO.P,C1,1*%
%TO.N,+5V*%
X66850000Y-72900000D03*
%TO.P,C1,2*%
%TO.N,GND*%
X66850000Y-76025000D03*
%TD*%
D18*
%TO.P,R2,1*%
%TO.N,Net-(J1-Pin_3)*%
X75350000Y-79700000D03*
%TO.P,R2,2*%
%TO.N,Net-(D2-K)*%
X73350000Y-79700000D03*
%TD*%
D10*
%TO.P,R4,1*%
%TO.N,+5V*%
X70400000Y-72900000D03*
%TO.P,R4,2*%
%TO.N,Net-(D2-K)*%
X70400000Y-74900000D03*
%TD*%
D20*
%TO.P,J2,1,1Pin_4*%
%TO.N,Net-(J2-1Pin_4)*%
X86320000Y-73500000D03*
D21*
%TO.P,J2,2,Pin_3*%
%TO.N,Net-(J2-Pin_3)*%
X83780000Y-73500000D03*
%TO.P,J2,3,Pin_2*%
%TO.N,Net-(J2-Pin_2)*%
X81240000Y-73500000D03*
%TO.P,J2,4,Pin_1*%
%TO.N,+5V*%
X78700000Y-73500000D03*
%TD*%
D20*
%TO.P,J1,1,Pin_4*%
%TO.N,Net-(J1-Pin_4)*%
X78670000Y-81800000D03*
D21*
%TO.P,J1,2,Pin_3*%
%TO.N,Net-(J1-Pin_3)*%
X81210000Y-81800000D03*
%TO.P,J1,3,Pin_2*%
%TO.N,Net-(J1-Pin_2)*%
X83750000Y-81800000D03*
%TO.P,J1,4,Pin_1*%
%TO.N,GND*%
X86290000Y-81800000D03*
%TD*%
D20*
%TO.P,J2,1,1Pin_4*%
%TO.N,Net-(J2-1Pin_4)*%
X128420000Y-73400000D03*
D21*
%TO.P,J2,2,Pin_3*%
%TO.N,Net-(J2-Pin_3)*%
X125880000Y-73400000D03*
%TO.P,J2,3,Pin_2*%
%TO.N,Net-(J2-Pin_2)*%
X123340000Y-73400000D03*
%TO.P,J2,4,Pin_1*%
%TO.N,+5V*%
X120800000Y-73400000D03*
%TD*%
D20*
%TO.P,J1,1,Pin_4*%
%TO.N,Net-(J1-Pin_4)*%
X120770000Y-81700000D03*
D21*
%TO.P,J1,2,Pin_3*%
%TO.N,Net-(J1-Pin_3)*%
X123310000Y-81700000D03*
%TO.P,J1,3,Pin_2*%
%TO.N,Net-(J1-Pin_2)*%
X125850000Y-81700000D03*
%TO.P,J1,4,Pin_1*%
%TO.N,GND*%
X128390000Y-81700000D03*
%TD*%
D12*
%TO.P,D3,1,K*%
%TO.N,GND*%
X90750000Y-79790000D03*
D13*
%TO.P,D3,2,A*%
%TO.N,Net-(D3-A)*%
X90750000Y-77250000D03*
%TD*%
D11*
%TO.P,D2,1,K*%
%TO.N,Net-(D2-K)*%
X70500000Y-79450000D03*
%TO.P,D2,2,A*%
%TO.N,GND*%
X70500000Y-82750000D03*
%TD*%
D15*
%TO.P,U2,1,Vcc*%
%TO.N,+5V*%
X98962500Y-67400000D03*
D16*
%TO.P,U2,2,D+*%
%TO.N,Net-(D2-K)*%
X98962500Y-64650000D03*
%TO.P,U2,3,D-*%
%TO.N,Net-(D1-K)*%
X98962500Y-62650000D03*
D15*
%TO.P,U2,4,GND*%
%TO.N,GND*%
X98962500Y-59900000D03*
%TD*%
D14*
%TO.P,U1,1,~{RESET}/PB5*%
%TO.N,Net-(J1-Pin_4)*%
X121512500Y-61395000D03*
%TO.P,U1,2,XTAL1/PB3*%
%TO.N,Net-(J1-Pin_3)*%
X121512500Y-62665000D03*
%TO.P,U1,3,XTAL2/PB4*%
%TO.N,Net-(J1-Pin_2)*%
X121512500Y-63935000D03*
%TO.P,U1,4,GND*%
%TO.N,GND*%
X121512500Y-65205000D03*
%TO.P,U1,5,AREF/PB0*%
%TO.N,Net-(J2-1Pin_4)*%
X128687500Y-65205000D03*
%TO.P,U1,6,PB1*%
%TO.N,Net-(J2-Pin_3)*%
X128687500Y-63935000D03*
%TO.P,U1,7,PB2*%
%TO.N,Net-(J2-Pin_2)*%
X128687500Y-62665000D03*
%TO.P,U1,8,VCC*%
%TO.N,+5V*%
X128687500Y-61395000D03*
%TD*%
D17*
%TO.P,R3,1*%
%TO.N,Net-(J2-Pin_3)*%
X132050000Y-59850000D03*
%TO.P,R3,2*%
%TO.N,Net-(D3-A)*%
X134050000Y-59850000D03*
%TD*%
D11*
%TO.P,D1,1,K*%
%TO.N,Net-(D1-K)*%
X109100000Y-65150000D03*
%TO.P,D1,2,A*%
%TO.N,GND*%
X109100000Y-68450000D03*
%TD*%
D18*
%TO.P,R1,1*%
%TO.N,Net-(J1-Pin_2)*%
X117550000Y-63000000D03*
%TO.P,R1,2*%
%TO.N,Net-(D1-K)*%
X115550000Y-63000000D03*
%TD*%
D19*
%TO.P,C1,1*%
%TO.N,+5V*%
X109050000Y-58600000D03*
%TO.P,C1,2*%
%TO.N,GND*%
X109050000Y-61725000D03*
%TD*%
D18*
%TO.P,R2,1*%
%TO.N,Net-(J1-Pin_3)*%
X117550000Y-65400000D03*
%TO.P,R2,2*%
%TO.N,Net-(D2-K)*%
X115550000Y-65400000D03*
%TD*%
D10*
%TO.P,R4,1*%
%TO.N,+5V*%
X112600000Y-58600000D03*
%TO.P,R4,2*%
%TO.N,Net-(D2-K)*%
X112600000Y-60600000D03*
%TD*%
D20*
%TO.P,J2,1,1Pin_4*%
%TO.N,Net-(J2-1Pin_4)*%
X128520000Y-59200000D03*
D21*
%TO.P,J2,2,Pin_3*%
%TO.N,Net-(J2-Pin_3)*%
X125980000Y-59200000D03*
%TO.P,J2,3,Pin_2*%
%TO.N,Net-(J2-Pin_2)*%
X123440000Y-59200000D03*
%TO.P,J2,4,Pin_1*%
%TO.N,+5V*%
X120900000Y-59200000D03*
%TD*%
D20*
%TO.P,J1,1,Pin_4*%
%TO.N,Net-(J1-Pin_4)*%
X120870000Y-67500000D03*
D21*
%TO.P,J1,2,Pin_3*%
%TO.N,Net-(J1-Pin_3)*%
X123410000Y-67500000D03*
%TO.P,J1,3,Pin_2*%
%TO.N,Net-(J1-Pin_2)*%
X125950000Y-67500000D03*
%TO.P,J1,4,Pin_1*%
%TO.N,GND*%
X128490000Y-67500000D03*
%TD*%
D12*
%TO.P,D3,1,K*%
%TO.N,GND*%
X132950000Y-65490000D03*
D13*
%TO.P,D3,2,A*%
%TO.N,Net-(D3-A)*%
X132950000Y-62950000D03*
%TD*%
D11*
%TO.P,D2,1,K*%
%TO.N,Net-(D2-K)*%
X112700000Y-65150000D03*
%TO.P,D2,2,A*%
%TO.N,GND*%
X112700000Y-68450000D03*
%TD*%
D17*
%TO.P,R3,1*%
%TO.N,Net-(J2-Pin_3)*%
X89950000Y-59950000D03*
%TO.P,R3,2*%
%TO.N,Net-(D3-A)*%
X91950000Y-59950000D03*
%TD*%
D19*
%TO.P,C1,1*%
%TO.N,+5V*%
X66950000Y-58700000D03*
%TO.P,C1,2*%
%TO.N,GND*%
X66950000Y-61825000D03*
%TD*%
D14*
%TO.P,U1,1,~{RESET}/PB5*%
%TO.N,Net-(J1-Pin_4)*%
X79412500Y-61495000D03*
%TO.P,U1,2,XTAL1/PB3*%
%TO.N,Net-(J1-Pin_3)*%
X79412500Y-62765000D03*
%TO.P,U1,3,XTAL2/PB4*%
%TO.N,Net-(J1-Pin_2)*%
X79412500Y-64035000D03*
%TO.P,U1,4,GND*%
%TO.N,GND*%
X79412500Y-65305000D03*
%TO.P,U1,5,AREF/PB0*%
%TO.N,Net-(J2-1Pin_4)*%
X86587500Y-65305000D03*
%TO.P,U1,6,PB1*%
%TO.N,Net-(J2-Pin_3)*%
X86587500Y-64035000D03*
%TO.P,U1,7,PB2*%
%TO.N,Net-(J2-Pin_2)*%
X86587500Y-62765000D03*
%TO.P,U1,8,VCC*%
%TO.N,+5V*%
X86587500Y-61495000D03*
%TD*%
D15*
%TO.P,U2,1,Vcc*%
%TO.N,+5V*%
X56862500Y-67500000D03*
D16*
%TO.P,U2,2,D+*%
%TO.N,Net-(D2-K)*%
X56862500Y-64750000D03*
%TO.P,U2,3,D-*%
%TO.N,Net-(D1-K)*%
X56862500Y-62750000D03*
D15*
%TO.P,U2,4,GND*%
%TO.N,GND*%
X56862500Y-60000000D03*
%TD*%
D11*
%TO.P,D2,1,K*%
%TO.N,Net-(D2-K)*%
X70600000Y-65250000D03*
%TO.P,D2,2,A*%
%TO.N,GND*%
X70600000Y-68550000D03*
%TD*%
D12*
%TO.P,D3,1,K*%
%TO.N,GND*%
X90850000Y-65590000D03*
D13*
%TO.P,D3,2,A*%
%TO.N,Net-(D3-A)*%
X90850000Y-63050000D03*
%TD*%
D20*
%TO.P,J1,1,Pin_4*%
%TO.N,Net-(J1-Pin_4)*%
X78770000Y-67600000D03*
D21*
%TO.P,J1,2,Pin_3*%
%TO.N,Net-(J1-Pin_3)*%
X81310000Y-67600000D03*
%TO.P,J1,3,Pin_2*%
%TO.N,Net-(J1-Pin_2)*%
X83850000Y-67600000D03*
%TO.P,J1,4,Pin_1*%
%TO.N,GND*%
X86390000Y-67600000D03*
%TD*%
D20*
%TO.P,J2,1,1Pin_4*%
%TO.N,Net-(J2-1Pin_4)*%
X86420000Y-59300000D03*
D21*
%TO.P,J2,2,Pin_3*%
%TO.N,Net-(J2-Pin_3)*%
X83880000Y-59300000D03*
%TO.P,J2,3,Pin_2*%
%TO.N,Net-(J2-Pin_2)*%
X81340000Y-59300000D03*
%TO.P,J2,4,Pin_1*%
%TO.N,+5V*%
X78800000Y-59300000D03*
%TD*%
D10*
%TO.P,R4,1*%
%TO.N,+5V*%
X70500000Y-58700000D03*
%TO.P,R4,2*%
%TO.N,Net-(D2-K)*%
X70500000Y-60700000D03*
%TD*%
D18*
%TO.P,R2,1*%
%TO.N,Net-(J1-Pin_3)*%
X75450000Y-65500000D03*
%TO.P,R2,2*%
%TO.N,Net-(D2-K)*%
X73450000Y-65500000D03*
%TD*%
%TO.P,R1,1*%
%TO.N,Net-(J1-Pin_2)*%
X75450000Y-63100000D03*
%TO.P,R1,2*%
%TO.N,Net-(D1-K)*%
X73450000Y-63100000D03*
%TD*%
D11*
%TO.P,D1,1,K*%
%TO.N,Net-(D1-K)*%
X67000000Y-65250000D03*
%TO.P,D1,2,A*%
%TO.N,GND*%
X67000000Y-68550000D03*
%TD*%
D22*
%TO.N,+5V*%
X104750000Y-151050000D03*
%TO.N,Net-(J1-Pin_4)*%
X122350000Y-146550000D03*
%TO.N,Net-(D2-K)*%
X112200000Y-147550000D03*
%TO.N,GND*%
X110450000Y-147050000D03*
%TO.N,Net-(J2-Pin_3)*%
X126450000Y-149000000D03*
%TO.N,Net-(D2-K)*%
X113300000Y-148850000D03*
%TO.N,Net-(J2-1Pin_4)*%
X129750000Y-149350000D03*
%TO.N,Net-(J1-Pin_3)*%
X119850000Y-148250000D03*
%TO.N,Net-(J1-Pin_2)*%
X124097536Y-149154321D03*
%TO.N,Net-(J1-Pin_3)*%
X123500000Y-147900000D03*
X117950000Y-150150000D03*
%TO.N,Net-(J2-1Pin_4)*%
X87650000Y-149450000D03*
%TO.N,Net-(J2-Pin_3)*%
X84350000Y-149100000D03*
%TO.N,Net-(J1-Pin_3)*%
X81400000Y-148000000D03*
X75850000Y-150250000D03*
%TO.N,Net-(D2-K)*%
X71200000Y-148950000D03*
%TO.N,Net-(J1-Pin_3)*%
X77750000Y-148350000D03*
%TO.N,GND*%
X68350000Y-147150000D03*
%TO.N,Net-(J1-Pin_4)*%
X80250000Y-146650000D03*
%TO.N,Net-(D2-K)*%
X70100000Y-147650000D03*
%TO.N,Net-(J1-Pin_2)*%
X81997536Y-149254321D03*
%TO.N,+5V*%
X62650000Y-151150000D03*
X104932000Y-122646000D03*
%TO.N,Net-(J1-Pin_2)*%
X82079536Y-135050321D03*
%TO.N,Net-(J1-Pin_4)*%
X122532000Y-118146000D03*
%TO.N,GND*%
X68432000Y-132946000D03*
%TO.N,Net-(J1-Pin_4)*%
X80332000Y-132446000D03*
%TO.N,Net-(D2-K)*%
X112382000Y-119146000D03*
%TO.N,GND*%
X110632000Y-118646000D03*
%TO.N,Net-(D2-K)*%
X70182000Y-133446000D03*
%TO.N,Net-(J2-Pin_3)*%
X126632000Y-120596000D03*
%TO.N,Net-(D2-K)*%
X113482000Y-120446000D03*
%TO.N,+5V*%
X62732000Y-136946000D03*
%TO.N,Net-(J2-1Pin_4)*%
X129932000Y-120946000D03*
%TO.N,Net-(J1-Pin_3)*%
X120032000Y-119846000D03*
%TO.N,Net-(J1-Pin_2)*%
X124279536Y-120750321D03*
%TO.N,Net-(J1-Pin_3)*%
X123682000Y-119496000D03*
X118132000Y-121746000D03*
X77832000Y-134146000D03*
X75932000Y-136046000D03*
%TO.N,Net-(J2-1Pin_4)*%
X129832000Y-135146000D03*
%TO.N,Net-(J1-Pin_3)*%
X119932000Y-134046000D03*
%TO.N,Net-(J1-Pin_4)*%
X122432000Y-132346000D03*
%TO.N,Net-(J1-Pin_3)*%
X118032000Y-135946000D03*
X123582000Y-133696000D03*
%TO.N,Net-(D2-K)*%
X71282000Y-134746000D03*
X112282000Y-133346000D03*
%TO.N,GND*%
X110532000Y-132846000D03*
%TO.N,Net-(J1-Pin_2)*%
X124179536Y-134950321D03*
%TO.N,Net-(J2-Pin_3)*%
X84432000Y-134896000D03*
%TO.N,Net-(J1-Pin_3)*%
X81482000Y-133796000D03*
%TO.N,Net-(J2-1Pin_4)*%
X87732000Y-135246000D03*
%TO.N,+5V*%
X104832000Y-136846000D03*
%TO.N,Net-(D2-K)*%
X113382000Y-134646000D03*
%TO.N,Net-(J2-Pin_3)*%
X126532000Y-134796000D03*
%TO.N,Net-(J2-1Pin_4)*%
X87832000Y-121046000D03*
%TO.N,Net-(J2-Pin_3)*%
X84532000Y-120696000D03*
%TO.N,Net-(J1-Pin_3)*%
X81582000Y-119596000D03*
X76032000Y-121846000D03*
%TO.N,Net-(D2-K)*%
X71382000Y-120546000D03*
%TO.N,Net-(J1-Pin_3)*%
X77932000Y-119946000D03*
%TO.N,GND*%
X68532000Y-118746000D03*
%TO.N,Net-(J1-Pin_4)*%
X80432000Y-118246000D03*
%TO.N,Net-(D2-K)*%
X70282000Y-119246000D03*
%TO.N,Net-(J1-Pin_2)*%
X82179536Y-120850321D03*
%TO.N,+5V*%
X62832000Y-122746000D03*
X105132000Y-94246000D03*
%TO.N,Net-(J1-Pin_2)*%
X82279536Y-106650321D03*
%TO.N,Net-(J1-Pin_4)*%
X122732000Y-89746000D03*
%TO.N,GND*%
X68632000Y-104546000D03*
%TO.N,Net-(J1-Pin_4)*%
X80532000Y-104046000D03*
%TO.N,Net-(D2-K)*%
X112582000Y-90746000D03*
%TO.N,GND*%
X110832000Y-90246000D03*
%TO.N,Net-(D2-K)*%
X70382000Y-105046000D03*
%TO.N,Net-(J2-Pin_3)*%
X126832000Y-92196000D03*
%TO.N,Net-(D2-K)*%
X113682000Y-92046000D03*
%TO.N,+5V*%
X62932000Y-108546000D03*
%TO.N,Net-(J2-1Pin_4)*%
X130132000Y-92546000D03*
%TO.N,Net-(J1-Pin_3)*%
X120232000Y-91446000D03*
%TO.N,Net-(J1-Pin_2)*%
X124479536Y-92350321D03*
%TO.N,Net-(J1-Pin_3)*%
X123882000Y-91096000D03*
X118332000Y-93346000D03*
X78032000Y-105746000D03*
X76132000Y-107646000D03*
%TO.N,Net-(J2-1Pin_4)*%
X130032000Y-106746000D03*
%TO.N,Net-(J1-Pin_3)*%
X120132000Y-105646000D03*
%TO.N,Net-(J1-Pin_4)*%
X122632000Y-103946000D03*
%TO.N,Net-(J1-Pin_3)*%
X118232000Y-107546000D03*
X123782000Y-105296000D03*
%TO.N,Net-(D2-K)*%
X71482000Y-106346000D03*
X112482000Y-104946000D03*
%TO.N,GND*%
X110732000Y-104446000D03*
%TO.N,Net-(J1-Pin_2)*%
X124379536Y-106550321D03*
%TO.N,Net-(J2-Pin_3)*%
X84632000Y-106496000D03*
%TO.N,Net-(J1-Pin_3)*%
X81682000Y-105396000D03*
%TO.N,Net-(J2-1Pin_4)*%
X87932000Y-106846000D03*
%TO.N,+5V*%
X105032000Y-108446000D03*
%TO.N,Net-(D2-K)*%
X113582000Y-106246000D03*
%TO.N,Net-(J2-Pin_3)*%
X126732000Y-106396000D03*
%TO.N,Net-(J2-1Pin_4)*%
X88032000Y-92646000D03*
%TO.N,Net-(J2-Pin_3)*%
X84732000Y-92296000D03*
%TO.N,Net-(J1-Pin_3)*%
X81782000Y-91196000D03*
X76232000Y-93446000D03*
%TO.N,Net-(D2-K)*%
X71582000Y-92146000D03*
%TO.N,Net-(J1-Pin_3)*%
X78132000Y-91546000D03*
%TO.N,GND*%
X68732000Y-90346000D03*
%TO.N,Net-(J1-Pin_4)*%
X80632000Y-89846000D03*
%TO.N,Net-(D2-K)*%
X70482000Y-90846000D03*
%TO.N,Net-(J1-Pin_2)*%
X82379536Y-92450321D03*
%TO.N,+5V*%
X63032000Y-94346000D03*
X105150000Y-80050000D03*
%TO.N,Net-(J1-Pin_4)*%
X122750000Y-75550000D03*
%TO.N,Net-(D2-K)*%
X112600000Y-76550000D03*
%TO.N,GND*%
X110850000Y-76050000D03*
%TO.N,Net-(J2-Pin_3)*%
X126850000Y-78000000D03*
%TO.N,Net-(D2-K)*%
X113700000Y-77850000D03*
%TO.N,Net-(J2-1Pin_4)*%
X130150000Y-78350000D03*
%TO.N,Net-(J1-Pin_3)*%
X120250000Y-77250000D03*
%TO.N,Net-(J1-Pin_2)*%
X124497536Y-78154321D03*
%TO.N,Net-(J1-Pin_3)*%
X123900000Y-76900000D03*
X118350000Y-79150000D03*
%TO.N,Net-(J2-1Pin_4)*%
X88050000Y-78450000D03*
%TO.N,Net-(J2-Pin_3)*%
X84750000Y-78100000D03*
%TO.N,Net-(J1-Pin_3)*%
X81800000Y-77000000D03*
X76250000Y-79250000D03*
%TO.N,Net-(D2-K)*%
X71600000Y-77950000D03*
%TO.N,Net-(J1-Pin_3)*%
X78150000Y-77350000D03*
%TO.N,GND*%
X68750000Y-76150000D03*
%TO.N,Net-(J1-Pin_4)*%
X80650000Y-75650000D03*
%TO.N,Net-(D2-K)*%
X70500000Y-76650000D03*
%TO.N,Net-(J1-Pin_2)*%
X82397536Y-78254321D03*
%TO.N,+5V*%
X63050000Y-80150000D03*
%TO.N,Net-(J2-1Pin_4)*%
X130250000Y-64150000D03*
%TO.N,Net-(J2-Pin_3)*%
X126950000Y-63800000D03*
%TO.N,Net-(J1-Pin_3)*%
X124000000Y-62700000D03*
X118450000Y-64950000D03*
%TO.N,Net-(D2-K)*%
X113800000Y-63650000D03*
%TO.N,Net-(J1-Pin_3)*%
X120350000Y-63050000D03*
%TO.N,GND*%
X110950000Y-61850000D03*
%TO.N,Net-(J1-Pin_4)*%
X122850000Y-61350000D03*
%TO.N,Net-(D2-K)*%
X112700000Y-62350000D03*
%TO.N,Net-(J1-Pin_2)*%
X124597536Y-63954321D03*
%TO.N,+5V*%
X105250000Y-65850000D03*
%TO.N,GND*%
X68850000Y-61950000D03*
%TO.N,+5V*%
X63150000Y-65950000D03*
%TO.N,Net-(D2-K)*%
X70600000Y-62450000D03*
X71700000Y-63750000D03*
%TO.N,Net-(J1-Pin_2)*%
X82497536Y-64054321D03*
%TO.N,Net-(J1-Pin_3)*%
X76350000Y-65050000D03*
X78250000Y-63150000D03*
X81900000Y-62800000D03*
%TO.N,Net-(J2-Pin_3)*%
X84850000Y-63900000D03*
%TO.N,Net-(J1-Pin_4)*%
X80750000Y-61450000D03*
%TO.N,Net-(J2-1Pin_4)*%
X88150000Y-64250000D03*
%TD*%
D23*
%TO.N,Net-(J2-Pin_3)*%
X128187500Y-149135000D02*
X126585000Y-149135000D01*
%TO.N,GND*%
X104150000Y-145100000D02*
X106100000Y-147050000D01*
%TO.N,Net-(J2-Pin_2)*%
X122940000Y-144400000D02*
X126405000Y-147865000D01*
%TO.N,GND*%
X127990000Y-152700000D02*
X129350000Y-152700000D01*
X118845000Y-150405000D02*
X121012500Y-150405000D01*
%TO.N,+5V*%
X129750000Y-146150000D02*
X129305000Y-146595000D01*
%TO.N,Net-(J1-Pin_4)*%
X121012500Y-146595000D02*
X122305000Y-146595000D01*
%TO.N,Net-(J2-1Pin_4)*%
X128695000Y-150405000D02*
X129750000Y-149350000D01*
%TO.N,+5V*%
X121695000Y-143105000D02*
X129027000Y-143105000D01*
%TO.N,GND*%
X129350000Y-152700000D02*
X129350000Y-152650000D01*
%TO.N,Net-(J2-1Pin_4)*%
X128187500Y-150405000D02*
X128695000Y-150405000D01*
%TO.N,Net-(J1-Pin_4)*%
X122305000Y-146595000D02*
X122350000Y-146550000D01*
%TO.N,Net-(J2-Pin_2)*%
X126405000Y-147865000D02*
X128187500Y-147865000D01*
%TO.N,+5V*%
X129750000Y-143828000D02*
X129750000Y-146150000D01*
%TO.N,GND*%
X129350000Y-152650000D02*
X131310000Y-150690000D01*
X76745000Y-150505000D02*
X78912500Y-150505000D01*
%TO.N,Net-(J2-1Pin_4)*%
X86595000Y-150505000D02*
X87650000Y-149450000D01*
%TO.N,Net-(J1-Pin_4)*%
X80205000Y-146695000D02*
X80250000Y-146650000D01*
%TO.N,Net-(J2-Pin_2)*%
X80840000Y-144500000D02*
X84305000Y-147965000D01*
%TO.N,Net-(J2-1Pin_4)*%
X86087500Y-150505000D02*
X86595000Y-150505000D01*
%TO.N,Net-(J2-Pin_2)*%
X84305000Y-147965000D02*
X86087500Y-147965000D01*
%TO.N,Net-(J1-Pin_4)*%
X78912500Y-146695000D02*
X80205000Y-146695000D01*
%TO.N,Net-(J2-Pin_3)*%
X86087500Y-149235000D02*
X84485000Y-149235000D01*
%TO.N,GND*%
X62050000Y-145200000D02*
X64000000Y-147150000D01*
X87250000Y-152800000D02*
X87250000Y-152750000D01*
X87250000Y-152750000D02*
X89210000Y-150790000D01*
X85890000Y-152800000D02*
X87250000Y-152800000D01*
%TO.N,+5V*%
X87650000Y-143928000D02*
X87650000Y-146250000D01*
X87650000Y-146250000D02*
X87205000Y-146695000D01*
X79595000Y-143205000D02*
X86927000Y-143205000D01*
X87205000Y-146695000D02*
X86087500Y-146695000D01*
%TO.N,GND*%
X83595000Y-150505000D02*
X78912500Y-150505000D01*
%TO.N,+5V*%
X70000000Y-143900000D02*
X77700000Y-143900000D01*
%TO.N,GND*%
X66500000Y-153750000D02*
X70100000Y-153750000D01*
X73500000Y-153750000D02*
X76745000Y-150505000D01*
X70100000Y-153750000D02*
X73500000Y-153750000D01*
X89210000Y-150790000D02*
X90350000Y-150790000D01*
X56362500Y-145200000D02*
X62050000Y-145200000D01*
X85890000Y-152800000D02*
X83595000Y-150505000D01*
X64000000Y-147150000D02*
X68350000Y-147150000D01*
%TO.N,Net-(D2-K)*%
X70100000Y-150450000D02*
X72700000Y-150450000D01*
X70100000Y-151600000D02*
X70100000Y-150450000D01*
X62400000Y-149950000D02*
X64700000Y-152250000D01*
X70100000Y-146000000D02*
X70000000Y-145900000D01*
%TO.N,Net-(J1-Pin_2)*%
X78912500Y-149235000D02*
X81978215Y-149235000D01*
%TO.N,Net-(D3-A)*%
X90350000Y-148250000D02*
X91450000Y-147150000D01*
X91450000Y-147150000D02*
X91450000Y-145150000D01*
%TO.N,Net-(D2-K)*%
X64700000Y-152250000D02*
X69450000Y-152250000D01*
X72950000Y-150700000D02*
X71200000Y-148950000D01*
%TO.N,Net-(D1-K)*%
X67050000Y-150450000D02*
X69200000Y-148300000D01*
X64600000Y-150450000D02*
X66500000Y-150450000D01*
%TO.N,Net-(D2-K)*%
X69450000Y-152250000D02*
X70100000Y-151600000D01*
X72700000Y-150450000D02*
X72950000Y-150700000D01*
X56362500Y-149950000D02*
X62400000Y-149950000D01*
%TO.N,Net-(D1-K)*%
X56362500Y-147950000D02*
X62100000Y-147950000D01*
X62100000Y-147950000D02*
X64600000Y-150450000D01*
X69200000Y-148300000D02*
X72950000Y-148300000D01*
%TO.N,Net-(D2-K)*%
X70100000Y-147650000D02*
X70100000Y-146000000D01*
%TO.N,+5V*%
X66450000Y-143900000D02*
X70000000Y-143900000D01*
X86927000Y-143205000D02*
X87650000Y-143928000D01*
X61100000Y-152700000D02*
X62650000Y-151150000D01*
%TO.N,Net-(D1-K)*%
X66500000Y-150450000D02*
X67050000Y-150450000D01*
%TO.N,+5V*%
X78300000Y-144500000D02*
X79595000Y-143205000D01*
X56362500Y-152700000D02*
X61100000Y-152700000D01*
X77700000Y-143900000D02*
X78300000Y-144500000D01*
%TO.N,Net-(J1-Pin_3)*%
X75400000Y-150250000D02*
X74950000Y-150700000D01*
X75850000Y-150250000D02*
X75400000Y-150250000D01*
X78912500Y-147965000D02*
X78135000Y-147965000D01*
%TO.N,Net-(J1-Pin_2)*%
X75885000Y-149235000D02*
X78912500Y-149235000D01*
%TO.N,Net-(J1-Pin_3)*%
X78135000Y-147965000D02*
X77750000Y-148350000D01*
%TO.N,Net-(J1-Pin_2)*%
X74950000Y-148300000D02*
X75885000Y-149235000D01*
%TO.N,Net-(J2-Pin_3)*%
X89450000Y-146684999D02*
X89450000Y-145150000D01*
X86087500Y-149235000D02*
X86899999Y-149235000D01*
X84485000Y-149235000D02*
X84350000Y-149100000D01*
%TO.N,Net-(J1-Pin_3)*%
X81365000Y-147965000D02*
X81400000Y-148000000D01*
%TO.N,Net-(J1-Pin_2)*%
X81978215Y-149235000D02*
X81997536Y-149254321D01*
%TO.N,Net-(J1-Pin_3)*%
X78912500Y-147965000D02*
X81365000Y-147965000D01*
%TO.N,Net-(J2-Pin_3)*%
X86899999Y-149235000D02*
X89450000Y-146684999D01*
%TO.N,Net-(D2-K)*%
X111550000Y-152150000D02*
X112200000Y-151500000D01*
%TO.N,Net-(D1-K)*%
X108600000Y-150350000D02*
X109150000Y-150350000D01*
%TO.N,Net-(D2-K)*%
X114800000Y-150350000D02*
X115050000Y-150600000D01*
X98462500Y-149850000D02*
X104500000Y-149850000D01*
%TO.N,Net-(D1-K)*%
X98462500Y-147850000D02*
X104200000Y-147850000D01*
%TO.N,+5V*%
X120400000Y-144400000D02*
X121695000Y-143105000D01*
%TO.N,Net-(D2-K)*%
X115050000Y-150600000D02*
X113300000Y-148850000D01*
%TO.N,Net-(D1-K)*%
X109150000Y-150350000D02*
X111300000Y-148200000D01*
%TO.N,+5V*%
X108550000Y-143800000D02*
X112100000Y-143800000D01*
%TO.N,Net-(D1-K)*%
X106700000Y-150350000D02*
X108600000Y-150350000D01*
%TO.N,Net-(D2-K)*%
X112200000Y-151500000D02*
X112200000Y-150350000D01*
%TO.N,GND*%
X125695000Y-150405000D02*
X121012500Y-150405000D01*
X127990000Y-152700000D02*
X125695000Y-150405000D01*
%TO.N,Net-(D2-K)*%
X112200000Y-147550000D02*
X112200000Y-145900000D01*
%TO.N,+5V*%
X129305000Y-146595000D02*
X128187500Y-146595000D01*
X103200000Y-152600000D02*
X104750000Y-151050000D01*
X112100000Y-143800000D02*
X119800000Y-143800000D01*
%TO.N,GND*%
X108600000Y-153650000D02*
X112200000Y-153650000D01*
%TO.N,Net-(D2-K)*%
X104500000Y-149850000D02*
X106800000Y-152150000D01*
%TO.N,GND*%
X115600000Y-153650000D02*
X118845000Y-150405000D01*
X112200000Y-153650000D02*
X115600000Y-153650000D01*
X131310000Y-150690000D02*
X132450000Y-150690000D01*
X98462500Y-145100000D02*
X104150000Y-145100000D01*
%TO.N,Net-(J1-Pin_2)*%
X121012500Y-149135000D02*
X124078215Y-149135000D01*
%TO.N,Net-(D1-K)*%
X111300000Y-148200000D02*
X115050000Y-148200000D01*
%TO.N,GND*%
X106100000Y-147050000D02*
X110450000Y-147050000D01*
%TO.N,Net-(D2-K)*%
X106800000Y-152150000D02*
X111550000Y-152150000D01*
%TO.N,+5V*%
X119800000Y-143800000D02*
X120400000Y-144400000D01*
X98462500Y-152600000D02*
X103200000Y-152600000D01*
%TO.N,Net-(D1-K)*%
X104200000Y-147850000D02*
X106700000Y-150350000D01*
%TO.N,Net-(D2-K)*%
X112200000Y-150350000D02*
X114800000Y-150350000D01*
X112200000Y-145900000D02*
X112100000Y-145800000D01*
%TO.N,Net-(D3-A)*%
X133550000Y-147050000D02*
X133550000Y-145050000D01*
X132450000Y-148150000D02*
X133550000Y-147050000D01*
%TO.N,+5V*%
X129027000Y-143105000D02*
X129750000Y-143828000D01*
%TO.N,Net-(J1-Pin_3)*%
X117500000Y-150150000D02*
X117050000Y-150600000D01*
X121012500Y-147865000D02*
X123465000Y-147865000D01*
X117950000Y-150150000D02*
X117500000Y-150150000D01*
%TO.N,Net-(J1-Pin_2)*%
X117050000Y-148200000D02*
X117985000Y-149135000D01*
%TO.N,Net-(J1-Pin_3)*%
X121012500Y-147865000D02*
X120235000Y-147865000D01*
%TO.N,Net-(J1-Pin_2)*%
X117985000Y-149135000D02*
X121012500Y-149135000D01*
%TO.N,Net-(J2-Pin_3)*%
X131550000Y-146584999D02*
X131550000Y-145050000D01*
%TO.N,Net-(J1-Pin_2)*%
X124078215Y-149135000D02*
X124097536Y-149154321D01*
%TO.N,Net-(J2-Pin_3)*%
X128999999Y-149135000D02*
X131550000Y-146584999D01*
%TO.N,Net-(J1-Pin_3)*%
X120235000Y-147865000D02*
X119850000Y-148250000D01*
%TO.N,Net-(J2-Pin_3)*%
X128187500Y-149135000D02*
X128999999Y-149135000D01*
X126585000Y-149135000D02*
X126450000Y-149000000D01*
%TO.N,Net-(J1-Pin_3)*%
X123465000Y-147865000D02*
X123500000Y-147900000D01*
%TO.N,Net-(J2-Pin_3)*%
X128369500Y-120731000D02*
X126767000Y-120731000D01*
%TO.N,GND*%
X104332000Y-116696000D02*
X106282000Y-118646000D01*
%TO.N,Net-(J2-Pin_2)*%
X123122000Y-115996000D02*
X126587000Y-119461000D01*
%TO.N,GND*%
X128172000Y-124296000D02*
X129532000Y-124296000D01*
X119027000Y-122001000D02*
X121194500Y-122001000D01*
%TO.N,+5V*%
X129932000Y-117746000D02*
X129487000Y-118191000D01*
%TO.N,Net-(J1-Pin_4)*%
X121194500Y-118191000D02*
X122487000Y-118191000D01*
%TO.N,Net-(J2-1Pin_4)*%
X128877000Y-122001000D02*
X129932000Y-120946000D01*
%TO.N,+5V*%
X121877000Y-114701000D02*
X129209000Y-114701000D01*
%TO.N,GND*%
X129532000Y-124296000D02*
X129532000Y-124246000D01*
%TO.N,Net-(J2-1Pin_4)*%
X128369500Y-122001000D02*
X128877000Y-122001000D01*
%TO.N,Net-(J1-Pin_4)*%
X122487000Y-118191000D02*
X122532000Y-118146000D01*
%TO.N,Net-(J2-Pin_2)*%
X126587000Y-119461000D02*
X128369500Y-119461000D01*
%TO.N,+5V*%
X129932000Y-115424000D02*
X129932000Y-117746000D01*
%TO.N,GND*%
X129532000Y-124246000D02*
X131492000Y-122286000D01*
X76927000Y-122101000D02*
X79094500Y-122101000D01*
%TO.N,Net-(J2-Pin_2)*%
X84387000Y-133761000D02*
X86169500Y-133761000D01*
%TO.N,GND*%
X62132000Y-130996000D02*
X64082000Y-132946000D01*
%TO.N,Net-(J2-Pin_3)*%
X86169500Y-135031000D02*
X84567000Y-135031000D01*
%TO.N,GND*%
X87332000Y-138596000D02*
X87332000Y-138546000D01*
X76827000Y-136301000D02*
X78994500Y-136301000D01*
%TO.N,Net-(J2-Pin_2)*%
X80922000Y-130296000D02*
X84387000Y-133761000D01*
%TO.N,GND*%
X87332000Y-138546000D02*
X89292000Y-136586000D01*
%TO.N,Net-(J1-Pin_4)*%
X80287000Y-132491000D02*
X80332000Y-132446000D01*
%TO.N,Net-(J2-1Pin_4)*%
X86677000Y-136301000D02*
X87732000Y-135246000D01*
%TO.N,Net-(J1-Pin_4)*%
X78994500Y-132491000D02*
X80287000Y-132491000D01*
%TO.N,Net-(J2-1Pin_4)*%
X86169500Y-136301000D02*
X86677000Y-136301000D01*
%TO.N,Net-(D2-K)*%
X70182000Y-137396000D02*
X70182000Y-136246000D01*
%TO.N,GND*%
X70182000Y-139546000D02*
X73582000Y-139546000D01*
X64082000Y-132946000D02*
X68432000Y-132946000D01*
X73582000Y-139546000D02*
X76827000Y-136301000D01*
X85972000Y-138596000D02*
X87332000Y-138596000D01*
X83677000Y-136301000D02*
X78994500Y-136301000D01*
%TO.N,Net-(D2-K)*%
X70182000Y-136246000D02*
X72782000Y-136246000D01*
%TO.N,+5V*%
X87732000Y-129724000D02*
X87732000Y-132046000D01*
X87732000Y-132046000D02*
X87287000Y-132491000D01*
X79677000Y-129001000D02*
X87009000Y-129001000D01*
X87287000Y-132491000D02*
X86169500Y-132491000D01*
%TO.N,GND*%
X85972000Y-138596000D02*
X83677000Y-136301000D01*
%TO.N,+5V*%
X70082000Y-129696000D02*
X77782000Y-129696000D01*
%TO.N,GND*%
X66582000Y-139546000D02*
X70182000Y-139546000D01*
X56444500Y-130996000D02*
X62132000Y-130996000D01*
X89292000Y-136586000D02*
X90432000Y-136586000D01*
%TO.N,Net-(J1-Pin_2)*%
X78994500Y-135031000D02*
X82060215Y-135031000D01*
%TO.N,Net-(D3-A)*%
X91532000Y-132946000D02*
X91532000Y-130946000D01*
%TO.N,Net-(D2-K)*%
X64782000Y-138046000D02*
X69532000Y-138046000D01*
%TO.N,Net-(D1-K)*%
X64682000Y-136246000D02*
X66582000Y-136246000D01*
%TO.N,Net-(D2-K)*%
X56444500Y-135746000D02*
X62482000Y-135746000D01*
%TO.N,Net-(D1-K)*%
X62182000Y-133746000D02*
X64682000Y-136246000D01*
X56444500Y-133746000D02*
X62182000Y-133746000D01*
X69282000Y-134096000D02*
X73032000Y-134096000D01*
%TO.N,+5V*%
X87009000Y-129001000D02*
X87732000Y-129724000D01*
%TO.N,Net-(D2-K)*%
X69532000Y-138046000D02*
X70182000Y-137396000D01*
X72782000Y-136246000D02*
X73032000Y-136496000D01*
X70182000Y-133446000D02*
X70182000Y-131796000D01*
X70182000Y-131796000D02*
X70082000Y-131696000D01*
%TO.N,+5V*%
X66532000Y-129696000D02*
X70082000Y-129696000D01*
%TO.N,Net-(D3-A)*%
X90432000Y-134046000D02*
X91532000Y-132946000D01*
%TO.N,Net-(D2-K)*%
X73032000Y-136496000D02*
X71282000Y-134746000D01*
%TO.N,Net-(D1-K)*%
X67132000Y-136246000D02*
X69282000Y-134096000D01*
%TO.N,+5V*%
X61182000Y-138496000D02*
X62732000Y-136946000D01*
%TO.N,Net-(D2-K)*%
X62482000Y-135746000D02*
X64782000Y-138046000D01*
%TO.N,Net-(J1-Pin_2)*%
X75032000Y-134096000D02*
X75967000Y-135031000D01*
%TO.N,Net-(J1-Pin_3)*%
X81447000Y-133761000D02*
X81482000Y-133796000D01*
%TO.N,Net-(D1-K)*%
X66582000Y-136246000D02*
X67132000Y-136246000D01*
%TO.N,Net-(J1-Pin_3)*%
X78217000Y-133761000D02*
X77832000Y-134146000D01*
%TO.N,+5V*%
X78382000Y-130296000D02*
X79677000Y-129001000D01*
X56444500Y-138496000D02*
X61182000Y-138496000D01*
X77782000Y-129696000D02*
X78382000Y-130296000D01*
%TO.N,Net-(J2-Pin_3)*%
X89532000Y-132480999D02*
X89532000Y-130946000D01*
%TO.N,Net-(J1-Pin_3)*%
X75932000Y-136046000D02*
X75482000Y-136046000D01*
X75482000Y-136046000D02*
X75032000Y-136496000D01*
X78994500Y-133761000D02*
X78217000Y-133761000D01*
%TO.N,Net-(J1-Pin_2)*%
X75967000Y-135031000D02*
X78994500Y-135031000D01*
%TO.N,Net-(J2-Pin_3)*%
X86169500Y-135031000D02*
X86981999Y-135031000D01*
X84567000Y-135031000D02*
X84432000Y-134896000D01*
%TO.N,+5V*%
X129109000Y-128901000D02*
X129832000Y-129624000D01*
%TO.N,Net-(J1-Pin_3)*%
X121094500Y-133661000D02*
X120317000Y-133661000D01*
X118032000Y-135946000D02*
X117582000Y-135946000D01*
%TO.N,+5V*%
X98544500Y-138396000D02*
X103282000Y-138396000D01*
%TO.N,Net-(J1-Pin_2)*%
X118067000Y-134931000D02*
X121094500Y-134931000D01*
%TO.N,Net-(D2-K)*%
X112282000Y-136146000D02*
X114882000Y-136146000D01*
%TO.N,Net-(J2-Pin_3)*%
X131632000Y-132380999D02*
X131632000Y-130846000D01*
%TO.N,Net-(D1-K)*%
X104282000Y-133646000D02*
X106782000Y-136146000D01*
%TO.N,Net-(D3-A)*%
X132532000Y-133946000D02*
X133632000Y-132846000D01*
%TO.N,Net-(D2-K)*%
X112282000Y-131696000D02*
X112182000Y-131596000D01*
%TO.N,Net-(J1-Pin_3)*%
X117582000Y-135946000D02*
X117132000Y-136396000D01*
X121094500Y-133661000D02*
X123547000Y-133661000D01*
%TO.N,Net-(J1-Pin_2)*%
X117132000Y-133996000D02*
X118067000Y-134931000D01*
%TO.N,Net-(D3-A)*%
X133632000Y-132846000D02*
X133632000Y-130846000D01*
%TO.N,GND*%
X125777000Y-136201000D02*
X121094500Y-136201000D01*
%TO.N,Net-(D2-K)*%
X111632000Y-137946000D02*
X112282000Y-137296000D01*
%TO.N,Net-(D1-K)*%
X108682000Y-136146000D02*
X109232000Y-136146000D01*
%TO.N,Net-(J1-Pin_2)*%
X82060215Y-135031000D02*
X82079536Y-135050321D01*
%TO.N,Net-(D1-K)*%
X98544500Y-133646000D02*
X104282000Y-133646000D01*
%TO.N,Net-(J1-Pin_3)*%
X78994500Y-133761000D02*
X81447000Y-133761000D01*
%TO.N,Net-(D1-K)*%
X106782000Y-136146000D02*
X108682000Y-136146000D01*
%TO.N,Net-(D2-K)*%
X112282000Y-137296000D02*
X112282000Y-136146000D01*
X98544500Y-135646000D02*
X104582000Y-135646000D01*
%TO.N,Net-(J2-Pin_3)*%
X86981999Y-135031000D02*
X89532000Y-132480999D01*
%TO.N,Net-(D2-K)*%
X114882000Y-136146000D02*
X115132000Y-136396000D01*
X115132000Y-136396000D02*
X113382000Y-134646000D01*
%TO.N,Net-(D1-K)*%
X109232000Y-136146000D02*
X111382000Y-133996000D01*
%TO.N,+5V*%
X108632000Y-129596000D02*
X112182000Y-129596000D01*
X120482000Y-130196000D02*
X121777000Y-128901000D01*
%TO.N,GND*%
X128072000Y-138496000D02*
X125777000Y-136201000D01*
%TO.N,Net-(D2-K)*%
X112282000Y-133346000D02*
X112282000Y-131696000D01*
%TO.N,+5V*%
X103282000Y-138396000D02*
X104832000Y-136846000D01*
X129387000Y-132391000D02*
X128269500Y-132391000D01*
%TO.N,GND*%
X115682000Y-139446000D02*
X118927000Y-136201000D01*
%TO.N,+5V*%
X112182000Y-129596000D02*
X119882000Y-129596000D01*
%TO.N,GND*%
X112282000Y-139446000D02*
X115682000Y-139446000D01*
X131392000Y-136486000D02*
X132532000Y-136486000D01*
%TO.N,Net-(J1-Pin_2)*%
X121094500Y-134931000D02*
X124160215Y-134931000D01*
%TO.N,Net-(D1-K)*%
X111382000Y-133996000D02*
X115132000Y-133996000D01*
%TO.N,Net-(D2-K)*%
X106882000Y-137946000D02*
X111632000Y-137946000D01*
%TO.N,+5V*%
X119882000Y-129596000D02*
X120482000Y-130196000D01*
%TO.N,GND*%
X98544500Y-130896000D02*
X104232000Y-130896000D01*
X108682000Y-139446000D02*
X112282000Y-139446000D01*
%TO.N,Net-(D2-K)*%
X104582000Y-135646000D02*
X106882000Y-137946000D01*
%TO.N,GND*%
X106182000Y-132846000D02*
X110532000Y-132846000D01*
%TO.N,Net-(J2-Pin_3)*%
X128269500Y-134931000D02*
X126667000Y-134931000D01*
%TO.N,GND*%
X104232000Y-130896000D02*
X106182000Y-132846000D01*
%TO.N,+5V*%
X129832000Y-131946000D02*
X129387000Y-132391000D01*
X121777000Y-128901000D02*
X129109000Y-128901000D01*
%TO.N,Net-(J2-1Pin_4)*%
X128269500Y-136201000D02*
X128777000Y-136201000D01*
%TO.N,Net-(J2-Pin_2)*%
X126487000Y-133661000D02*
X128269500Y-133661000D01*
%TO.N,Net-(J1-Pin_4)*%
X121094500Y-132391000D02*
X122387000Y-132391000D01*
X122387000Y-132391000D02*
X122432000Y-132346000D01*
%TO.N,GND*%
X129432000Y-138446000D02*
X131392000Y-136486000D01*
X129432000Y-138496000D02*
X129432000Y-138446000D01*
%TO.N,Net-(J2-Pin_2)*%
X123022000Y-130196000D02*
X126487000Y-133661000D01*
%TO.N,Net-(J2-1Pin_4)*%
X128777000Y-136201000D02*
X129832000Y-135146000D01*
%TO.N,GND*%
X128072000Y-138496000D02*
X129432000Y-138496000D01*
X118927000Y-136201000D02*
X121094500Y-136201000D01*
%TO.N,+5V*%
X129832000Y-129624000D02*
X129832000Y-131946000D01*
%TO.N,Net-(J2-Pin_3)*%
X128269500Y-134931000D02*
X129081999Y-134931000D01*
%TO.N,Net-(J1-Pin_3)*%
X120317000Y-133661000D02*
X119932000Y-134046000D01*
X123547000Y-133661000D02*
X123582000Y-133696000D01*
%TO.N,Net-(J2-Pin_3)*%
X126667000Y-134931000D02*
X126532000Y-134796000D01*
%TO.N,Net-(J1-Pin_2)*%
X124160215Y-134931000D02*
X124179536Y-134950321D01*
%TO.N,Net-(J2-Pin_3)*%
X129081999Y-134931000D02*
X131632000Y-132380999D01*
%TO.N,Net-(J2-1Pin_4)*%
X86777000Y-122101000D02*
X87832000Y-121046000D01*
%TO.N,Net-(J1-Pin_4)*%
X80387000Y-118291000D02*
X80432000Y-118246000D01*
%TO.N,Net-(J2-Pin_2)*%
X81022000Y-116096000D02*
X84487000Y-119561000D01*
%TO.N,Net-(J2-1Pin_4)*%
X86269500Y-122101000D02*
X86777000Y-122101000D01*
%TO.N,Net-(J2-Pin_2)*%
X84487000Y-119561000D02*
X86269500Y-119561000D01*
%TO.N,Net-(J1-Pin_4)*%
X79094500Y-118291000D02*
X80387000Y-118291000D01*
%TO.N,Net-(J2-Pin_3)*%
X86269500Y-120831000D02*
X84667000Y-120831000D01*
%TO.N,GND*%
X62232000Y-116796000D02*
X64182000Y-118746000D01*
X87432000Y-124396000D02*
X87432000Y-124346000D01*
X87432000Y-124346000D02*
X89392000Y-122386000D01*
X86072000Y-124396000D02*
X87432000Y-124396000D01*
%TO.N,+5V*%
X87832000Y-115524000D02*
X87832000Y-117846000D01*
X87832000Y-117846000D02*
X87387000Y-118291000D01*
X79777000Y-114801000D02*
X87109000Y-114801000D01*
X87387000Y-118291000D02*
X86269500Y-118291000D01*
%TO.N,GND*%
X83777000Y-122101000D02*
X79094500Y-122101000D01*
%TO.N,+5V*%
X70182000Y-115496000D02*
X77882000Y-115496000D01*
%TO.N,GND*%
X66682000Y-125346000D02*
X70282000Y-125346000D01*
X73682000Y-125346000D02*
X76927000Y-122101000D01*
X70282000Y-125346000D02*
X73682000Y-125346000D01*
X89392000Y-122386000D02*
X90532000Y-122386000D01*
X56544500Y-116796000D02*
X62232000Y-116796000D01*
X86072000Y-124396000D02*
X83777000Y-122101000D01*
X64182000Y-118746000D02*
X68532000Y-118746000D01*
%TO.N,Net-(D2-K)*%
X70282000Y-122046000D02*
X72882000Y-122046000D01*
X70282000Y-123196000D02*
X70282000Y-122046000D01*
X62582000Y-121546000D02*
X64882000Y-123846000D01*
X70282000Y-117596000D02*
X70182000Y-117496000D01*
%TO.N,Net-(J1-Pin_2)*%
X79094500Y-120831000D02*
X82160215Y-120831000D01*
%TO.N,Net-(D3-A)*%
X90532000Y-119846000D02*
X91632000Y-118746000D01*
X91632000Y-118746000D02*
X91632000Y-116746000D01*
%TO.N,Net-(D2-K)*%
X64882000Y-123846000D02*
X69632000Y-123846000D01*
X73132000Y-122296000D02*
X71382000Y-120546000D01*
%TO.N,Net-(D1-K)*%
X67232000Y-122046000D02*
X69382000Y-119896000D01*
X64782000Y-122046000D02*
X66682000Y-122046000D01*
%TO.N,Net-(D2-K)*%
X69632000Y-123846000D02*
X70282000Y-123196000D01*
X72882000Y-122046000D02*
X73132000Y-122296000D01*
X56544500Y-121546000D02*
X62582000Y-121546000D01*
%TO.N,Net-(D1-K)*%
X56544500Y-119546000D02*
X62282000Y-119546000D01*
X62282000Y-119546000D02*
X64782000Y-122046000D01*
X69382000Y-119896000D02*
X73132000Y-119896000D01*
%TO.N,Net-(D2-K)*%
X70282000Y-119246000D02*
X70282000Y-117596000D01*
%TO.N,+5V*%
X66632000Y-115496000D02*
X70182000Y-115496000D01*
X87109000Y-114801000D02*
X87832000Y-115524000D01*
X61282000Y-124296000D02*
X62832000Y-122746000D01*
%TO.N,Net-(D1-K)*%
X66682000Y-122046000D02*
X67232000Y-122046000D01*
%TO.N,+5V*%
X78482000Y-116096000D02*
X79777000Y-114801000D01*
X56544500Y-124296000D02*
X61282000Y-124296000D01*
X77882000Y-115496000D02*
X78482000Y-116096000D01*
%TO.N,Net-(J1-Pin_3)*%
X75582000Y-121846000D02*
X75132000Y-122296000D01*
X76032000Y-121846000D02*
X75582000Y-121846000D01*
X79094500Y-119561000D02*
X78317000Y-119561000D01*
%TO.N,Net-(J1-Pin_2)*%
X76067000Y-120831000D02*
X79094500Y-120831000D01*
%TO.N,Net-(J1-Pin_3)*%
X78317000Y-119561000D02*
X77932000Y-119946000D01*
%TO.N,Net-(J1-Pin_2)*%
X75132000Y-119896000D02*
X76067000Y-120831000D01*
%TO.N,Net-(J2-Pin_3)*%
X89632000Y-118280999D02*
X89632000Y-116746000D01*
X86269500Y-120831000D02*
X87081999Y-120831000D01*
X84667000Y-120831000D02*
X84532000Y-120696000D01*
%TO.N,Net-(J1-Pin_3)*%
X81547000Y-119561000D02*
X81582000Y-119596000D01*
%TO.N,Net-(J1-Pin_2)*%
X82160215Y-120831000D02*
X82179536Y-120850321D01*
%TO.N,Net-(J1-Pin_3)*%
X79094500Y-119561000D02*
X81547000Y-119561000D01*
%TO.N,Net-(J2-Pin_3)*%
X87081999Y-120831000D02*
X89632000Y-118280999D01*
%TO.N,Net-(D2-K)*%
X111732000Y-123746000D02*
X112382000Y-123096000D01*
%TO.N,Net-(D1-K)*%
X108782000Y-121946000D02*
X109332000Y-121946000D01*
%TO.N,Net-(D2-K)*%
X114982000Y-121946000D02*
X115232000Y-122196000D01*
X98644500Y-121446000D02*
X104682000Y-121446000D01*
%TO.N,Net-(D1-K)*%
X98644500Y-119446000D02*
X104382000Y-119446000D01*
%TO.N,+5V*%
X120582000Y-115996000D02*
X121877000Y-114701000D01*
%TO.N,Net-(D2-K)*%
X115232000Y-122196000D02*
X113482000Y-120446000D01*
%TO.N,Net-(D1-K)*%
X109332000Y-121946000D02*
X111482000Y-119796000D01*
%TO.N,+5V*%
X108732000Y-115396000D02*
X112282000Y-115396000D01*
%TO.N,Net-(D1-K)*%
X106882000Y-121946000D02*
X108782000Y-121946000D01*
%TO.N,Net-(D2-K)*%
X112382000Y-123096000D02*
X112382000Y-121946000D01*
%TO.N,GND*%
X125877000Y-122001000D02*
X121194500Y-122001000D01*
X128172000Y-124296000D02*
X125877000Y-122001000D01*
%TO.N,Net-(D2-K)*%
X112382000Y-119146000D02*
X112382000Y-117496000D01*
%TO.N,+5V*%
X129487000Y-118191000D02*
X128369500Y-118191000D01*
X103382000Y-124196000D02*
X104932000Y-122646000D01*
X112282000Y-115396000D02*
X119982000Y-115396000D01*
%TO.N,GND*%
X108782000Y-125246000D02*
X112382000Y-125246000D01*
%TO.N,Net-(D2-K)*%
X104682000Y-121446000D02*
X106982000Y-123746000D01*
%TO.N,GND*%
X115782000Y-125246000D02*
X119027000Y-122001000D01*
X112382000Y-125246000D02*
X115782000Y-125246000D01*
X131492000Y-122286000D02*
X132632000Y-122286000D01*
X98644500Y-116696000D02*
X104332000Y-116696000D01*
%TO.N,Net-(J1-Pin_2)*%
X121194500Y-120731000D02*
X124260215Y-120731000D01*
%TO.N,Net-(D1-K)*%
X111482000Y-119796000D02*
X115232000Y-119796000D01*
%TO.N,GND*%
X106282000Y-118646000D02*
X110632000Y-118646000D01*
%TO.N,Net-(D2-K)*%
X106982000Y-123746000D02*
X111732000Y-123746000D01*
%TO.N,+5V*%
X119982000Y-115396000D02*
X120582000Y-115996000D01*
X98644500Y-124196000D02*
X103382000Y-124196000D01*
%TO.N,Net-(D1-K)*%
X104382000Y-119446000D02*
X106882000Y-121946000D01*
%TO.N,Net-(D2-K)*%
X112382000Y-121946000D02*
X114982000Y-121946000D01*
X112382000Y-117496000D02*
X112282000Y-117396000D01*
%TO.N,Net-(D3-A)*%
X133732000Y-118646000D02*
X133732000Y-116646000D01*
X132632000Y-119746000D02*
X133732000Y-118646000D01*
%TO.N,+5V*%
X129209000Y-114701000D02*
X129932000Y-115424000D01*
%TO.N,Net-(J1-Pin_3)*%
X117682000Y-121746000D02*
X117232000Y-122196000D01*
X121194500Y-119461000D02*
X123647000Y-119461000D01*
X118132000Y-121746000D02*
X117682000Y-121746000D01*
%TO.N,Net-(J1-Pin_2)*%
X117232000Y-119796000D02*
X118167000Y-120731000D01*
%TO.N,Net-(J1-Pin_3)*%
X121194500Y-119461000D02*
X120417000Y-119461000D01*
%TO.N,Net-(J1-Pin_2)*%
X118167000Y-120731000D02*
X121194500Y-120731000D01*
%TO.N,Net-(J2-Pin_3)*%
X131732000Y-118180999D02*
X131732000Y-116646000D01*
%TO.N,Net-(J1-Pin_2)*%
X124260215Y-120731000D02*
X124279536Y-120750321D01*
%TO.N,Net-(J2-Pin_3)*%
X129181999Y-120731000D02*
X131732000Y-118180999D01*
%TO.N,Net-(J1-Pin_3)*%
X120417000Y-119461000D02*
X120032000Y-119846000D01*
%TO.N,Net-(J2-Pin_3)*%
X128369500Y-120731000D02*
X129181999Y-120731000D01*
X126767000Y-120731000D02*
X126632000Y-120596000D01*
%TO.N,Net-(J1-Pin_3)*%
X123647000Y-119461000D02*
X123682000Y-119496000D01*
%TO.N,Net-(J2-Pin_3)*%
X128569500Y-92331000D02*
X126967000Y-92331000D01*
%TO.N,GND*%
X104532000Y-88296000D02*
X106482000Y-90246000D01*
%TO.N,Net-(J2-Pin_2)*%
X123322000Y-87596000D02*
X126787000Y-91061000D01*
%TO.N,GND*%
X128372000Y-95896000D02*
X129732000Y-95896000D01*
X119227000Y-93601000D02*
X121394500Y-93601000D01*
%TO.N,+5V*%
X130132000Y-89346000D02*
X129687000Y-89791000D01*
%TO.N,Net-(J1-Pin_4)*%
X121394500Y-89791000D02*
X122687000Y-89791000D01*
%TO.N,Net-(J2-1Pin_4)*%
X129077000Y-93601000D02*
X130132000Y-92546000D01*
%TO.N,+5V*%
X122077000Y-86301000D02*
X129409000Y-86301000D01*
%TO.N,GND*%
X129732000Y-95896000D02*
X129732000Y-95846000D01*
%TO.N,Net-(J2-1Pin_4)*%
X128569500Y-93601000D02*
X129077000Y-93601000D01*
%TO.N,Net-(J1-Pin_4)*%
X122687000Y-89791000D02*
X122732000Y-89746000D01*
%TO.N,Net-(J2-Pin_2)*%
X126787000Y-91061000D02*
X128569500Y-91061000D01*
%TO.N,+5V*%
X130132000Y-87024000D02*
X130132000Y-89346000D01*
%TO.N,GND*%
X129732000Y-95846000D02*
X131692000Y-93886000D01*
X77127000Y-93701000D02*
X79294500Y-93701000D01*
%TO.N,Net-(J2-Pin_2)*%
X84587000Y-105361000D02*
X86369500Y-105361000D01*
%TO.N,GND*%
X62332000Y-102596000D02*
X64282000Y-104546000D01*
%TO.N,Net-(J2-Pin_3)*%
X86369500Y-106631000D02*
X84767000Y-106631000D01*
%TO.N,GND*%
X87532000Y-110196000D02*
X87532000Y-110146000D01*
X77027000Y-107901000D02*
X79194500Y-107901000D01*
%TO.N,Net-(J2-Pin_2)*%
X81122000Y-101896000D02*
X84587000Y-105361000D01*
%TO.N,GND*%
X87532000Y-110146000D02*
X89492000Y-108186000D01*
%TO.N,Net-(J1-Pin_4)*%
X80487000Y-104091000D02*
X80532000Y-104046000D01*
%TO.N,Net-(J2-1Pin_4)*%
X86877000Y-107901000D02*
X87932000Y-106846000D01*
%TO.N,Net-(J1-Pin_4)*%
X79194500Y-104091000D02*
X80487000Y-104091000D01*
%TO.N,Net-(J2-1Pin_4)*%
X86369500Y-107901000D02*
X86877000Y-107901000D01*
%TO.N,Net-(D2-K)*%
X70382000Y-108996000D02*
X70382000Y-107846000D01*
%TO.N,GND*%
X70382000Y-111146000D02*
X73782000Y-111146000D01*
X64282000Y-104546000D02*
X68632000Y-104546000D01*
X73782000Y-111146000D02*
X77027000Y-107901000D01*
X86172000Y-110196000D02*
X87532000Y-110196000D01*
X83877000Y-107901000D02*
X79194500Y-107901000D01*
%TO.N,Net-(D2-K)*%
X70382000Y-107846000D02*
X72982000Y-107846000D01*
%TO.N,+5V*%
X87932000Y-101324000D02*
X87932000Y-103646000D01*
X87932000Y-103646000D02*
X87487000Y-104091000D01*
X79877000Y-100601000D02*
X87209000Y-100601000D01*
X87487000Y-104091000D02*
X86369500Y-104091000D01*
%TO.N,GND*%
X86172000Y-110196000D02*
X83877000Y-107901000D01*
%TO.N,+5V*%
X70282000Y-101296000D02*
X77982000Y-101296000D01*
%TO.N,GND*%
X66782000Y-111146000D02*
X70382000Y-111146000D01*
X56644500Y-102596000D02*
X62332000Y-102596000D01*
X89492000Y-108186000D02*
X90632000Y-108186000D01*
%TO.N,Net-(J1-Pin_2)*%
X79194500Y-106631000D02*
X82260215Y-106631000D01*
%TO.N,Net-(D3-A)*%
X91732000Y-104546000D02*
X91732000Y-102546000D01*
%TO.N,Net-(D2-K)*%
X64982000Y-109646000D02*
X69732000Y-109646000D01*
%TO.N,Net-(D1-K)*%
X64882000Y-107846000D02*
X66782000Y-107846000D01*
%TO.N,Net-(D2-K)*%
X56644500Y-107346000D02*
X62682000Y-107346000D01*
%TO.N,Net-(D1-K)*%
X62382000Y-105346000D02*
X64882000Y-107846000D01*
X56644500Y-105346000D02*
X62382000Y-105346000D01*
X69482000Y-105696000D02*
X73232000Y-105696000D01*
%TO.N,+5V*%
X87209000Y-100601000D02*
X87932000Y-101324000D01*
%TO.N,Net-(D2-K)*%
X69732000Y-109646000D02*
X70382000Y-108996000D01*
X72982000Y-107846000D02*
X73232000Y-108096000D01*
X70382000Y-105046000D02*
X70382000Y-103396000D01*
X70382000Y-103396000D02*
X70282000Y-103296000D01*
%TO.N,+5V*%
X66732000Y-101296000D02*
X70282000Y-101296000D01*
%TO.N,Net-(D3-A)*%
X90632000Y-105646000D02*
X91732000Y-104546000D01*
%TO.N,Net-(D2-K)*%
X73232000Y-108096000D02*
X71482000Y-106346000D01*
%TO.N,Net-(D1-K)*%
X67332000Y-107846000D02*
X69482000Y-105696000D01*
%TO.N,+5V*%
X61382000Y-110096000D02*
X62932000Y-108546000D01*
%TO.N,Net-(D2-K)*%
X62682000Y-107346000D02*
X64982000Y-109646000D01*
%TO.N,Net-(J1-Pin_2)*%
X75232000Y-105696000D02*
X76167000Y-106631000D01*
%TO.N,Net-(J1-Pin_3)*%
X81647000Y-105361000D02*
X81682000Y-105396000D01*
%TO.N,Net-(D1-K)*%
X66782000Y-107846000D02*
X67332000Y-107846000D01*
%TO.N,Net-(J1-Pin_3)*%
X78417000Y-105361000D02*
X78032000Y-105746000D01*
%TO.N,+5V*%
X78582000Y-101896000D02*
X79877000Y-100601000D01*
X56644500Y-110096000D02*
X61382000Y-110096000D01*
X77982000Y-101296000D02*
X78582000Y-101896000D01*
%TO.N,Net-(J2-Pin_3)*%
X89732000Y-104080999D02*
X89732000Y-102546000D01*
%TO.N,Net-(J1-Pin_3)*%
X76132000Y-107646000D02*
X75682000Y-107646000D01*
X75682000Y-107646000D02*
X75232000Y-108096000D01*
X79194500Y-105361000D02*
X78417000Y-105361000D01*
%TO.N,Net-(J1-Pin_2)*%
X76167000Y-106631000D02*
X79194500Y-106631000D01*
%TO.N,Net-(J2-Pin_3)*%
X86369500Y-106631000D02*
X87181999Y-106631000D01*
X84767000Y-106631000D02*
X84632000Y-106496000D01*
%TO.N,+5V*%
X129309000Y-100501000D02*
X130032000Y-101224000D01*
%TO.N,Net-(J1-Pin_3)*%
X121294500Y-105261000D02*
X120517000Y-105261000D01*
X118232000Y-107546000D02*
X117782000Y-107546000D01*
%TO.N,+5V*%
X98744500Y-109996000D02*
X103482000Y-109996000D01*
%TO.N,Net-(J1-Pin_2)*%
X118267000Y-106531000D02*
X121294500Y-106531000D01*
%TO.N,Net-(D2-K)*%
X112482000Y-107746000D02*
X115082000Y-107746000D01*
%TO.N,Net-(J2-Pin_3)*%
X131832000Y-103980999D02*
X131832000Y-102446000D01*
%TO.N,Net-(D1-K)*%
X104482000Y-105246000D02*
X106982000Y-107746000D01*
%TO.N,Net-(D3-A)*%
X132732000Y-105546000D02*
X133832000Y-104446000D01*
%TO.N,Net-(D2-K)*%
X112482000Y-103296000D02*
X112382000Y-103196000D01*
%TO.N,Net-(J1-Pin_3)*%
X117782000Y-107546000D02*
X117332000Y-107996000D01*
X121294500Y-105261000D02*
X123747000Y-105261000D01*
%TO.N,Net-(J1-Pin_2)*%
X117332000Y-105596000D02*
X118267000Y-106531000D01*
%TO.N,Net-(D3-A)*%
X133832000Y-104446000D02*
X133832000Y-102446000D01*
%TO.N,GND*%
X125977000Y-107801000D02*
X121294500Y-107801000D01*
%TO.N,Net-(D2-K)*%
X111832000Y-109546000D02*
X112482000Y-108896000D01*
%TO.N,Net-(D1-K)*%
X108882000Y-107746000D02*
X109432000Y-107746000D01*
%TO.N,Net-(J1-Pin_2)*%
X82260215Y-106631000D02*
X82279536Y-106650321D01*
%TO.N,Net-(D1-K)*%
X98744500Y-105246000D02*
X104482000Y-105246000D01*
%TO.N,Net-(J1-Pin_3)*%
X79194500Y-105361000D02*
X81647000Y-105361000D01*
%TO.N,Net-(D1-K)*%
X106982000Y-107746000D02*
X108882000Y-107746000D01*
%TO.N,Net-(D2-K)*%
X112482000Y-108896000D02*
X112482000Y-107746000D01*
X98744500Y-107246000D02*
X104782000Y-107246000D01*
%TO.N,Net-(J2-Pin_3)*%
X87181999Y-106631000D02*
X89732000Y-104080999D01*
%TO.N,Net-(D2-K)*%
X115082000Y-107746000D02*
X115332000Y-107996000D01*
X115332000Y-107996000D02*
X113582000Y-106246000D01*
%TO.N,Net-(D1-K)*%
X109432000Y-107746000D02*
X111582000Y-105596000D01*
%TO.N,+5V*%
X108832000Y-101196000D02*
X112382000Y-101196000D01*
X120682000Y-101796000D02*
X121977000Y-100501000D01*
%TO.N,GND*%
X128272000Y-110096000D02*
X125977000Y-107801000D01*
%TO.N,Net-(D2-K)*%
X112482000Y-104946000D02*
X112482000Y-103296000D01*
%TO.N,+5V*%
X103482000Y-109996000D02*
X105032000Y-108446000D01*
X129587000Y-103991000D02*
X128469500Y-103991000D01*
%TO.N,GND*%
X115882000Y-111046000D02*
X119127000Y-107801000D01*
%TO.N,+5V*%
X112382000Y-101196000D02*
X120082000Y-101196000D01*
%TO.N,GND*%
X112482000Y-111046000D02*
X115882000Y-111046000D01*
X131592000Y-108086000D02*
X132732000Y-108086000D01*
%TO.N,Net-(J1-Pin_2)*%
X121294500Y-106531000D02*
X124360215Y-106531000D01*
%TO.N,Net-(D1-K)*%
X111582000Y-105596000D02*
X115332000Y-105596000D01*
%TO.N,Net-(D2-K)*%
X107082000Y-109546000D02*
X111832000Y-109546000D01*
%TO.N,+5V*%
X120082000Y-101196000D02*
X120682000Y-101796000D01*
%TO.N,GND*%
X98744500Y-102496000D02*
X104432000Y-102496000D01*
X108882000Y-111046000D02*
X112482000Y-111046000D01*
%TO.N,Net-(D2-K)*%
X104782000Y-107246000D02*
X107082000Y-109546000D01*
%TO.N,GND*%
X106382000Y-104446000D02*
X110732000Y-104446000D01*
%TO.N,Net-(J2-Pin_3)*%
X128469500Y-106531000D02*
X126867000Y-106531000D01*
%TO.N,GND*%
X104432000Y-102496000D02*
X106382000Y-104446000D01*
%TO.N,+5V*%
X130032000Y-103546000D02*
X129587000Y-103991000D01*
X121977000Y-100501000D02*
X129309000Y-100501000D01*
%TO.N,Net-(J2-1Pin_4)*%
X128469500Y-107801000D02*
X128977000Y-107801000D01*
%TO.N,Net-(J2-Pin_2)*%
X126687000Y-105261000D02*
X128469500Y-105261000D01*
%TO.N,Net-(J1-Pin_4)*%
X121294500Y-103991000D02*
X122587000Y-103991000D01*
X122587000Y-103991000D02*
X122632000Y-103946000D01*
%TO.N,GND*%
X129632000Y-110046000D02*
X131592000Y-108086000D01*
X129632000Y-110096000D02*
X129632000Y-110046000D01*
%TO.N,Net-(J2-Pin_2)*%
X123222000Y-101796000D02*
X126687000Y-105261000D01*
%TO.N,Net-(J2-1Pin_4)*%
X128977000Y-107801000D02*
X130032000Y-106746000D01*
%TO.N,GND*%
X128272000Y-110096000D02*
X129632000Y-110096000D01*
X119127000Y-107801000D02*
X121294500Y-107801000D01*
%TO.N,+5V*%
X130032000Y-101224000D02*
X130032000Y-103546000D01*
%TO.N,Net-(J2-Pin_3)*%
X128469500Y-106531000D02*
X129281999Y-106531000D01*
%TO.N,Net-(J1-Pin_3)*%
X120517000Y-105261000D02*
X120132000Y-105646000D01*
X123747000Y-105261000D02*
X123782000Y-105296000D01*
%TO.N,Net-(J2-Pin_3)*%
X126867000Y-106531000D02*
X126732000Y-106396000D01*
%TO.N,Net-(J1-Pin_2)*%
X124360215Y-106531000D02*
X124379536Y-106550321D01*
%TO.N,Net-(J2-Pin_3)*%
X129281999Y-106531000D02*
X131832000Y-103980999D01*
%TO.N,Net-(J2-1Pin_4)*%
X86977000Y-93701000D02*
X88032000Y-92646000D01*
%TO.N,Net-(J1-Pin_4)*%
X80587000Y-89891000D02*
X80632000Y-89846000D01*
%TO.N,Net-(J2-Pin_2)*%
X81222000Y-87696000D02*
X84687000Y-91161000D01*
%TO.N,Net-(J2-1Pin_4)*%
X86469500Y-93701000D02*
X86977000Y-93701000D01*
%TO.N,Net-(J2-Pin_2)*%
X84687000Y-91161000D02*
X86469500Y-91161000D01*
%TO.N,Net-(J1-Pin_4)*%
X79294500Y-89891000D02*
X80587000Y-89891000D01*
%TO.N,Net-(J2-Pin_3)*%
X86469500Y-92431000D02*
X84867000Y-92431000D01*
%TO.N,GND*%
X62432000Y-88396000D02*
X64382000Y-90346000D01*
X87632000Y-95996000D02*
X87632000Y-95946000D01*
X87632000Y-95946000D02*
X89592000Y-93986000D01*
X86272000Y-95996000D02*
X87632000Y-95996000D01*
%TO.N,+5V*%
X88032000Y-87124000D02*
X88032000Y-89446000D01*
X88032000Y-89446000D02*
X87587000Y-89891000D01*
X79977000Y-86401000D02*
X87309000Y-86401000D01*
X87587000Y-89891000D02*
X86469500Y-89891000D01*
%TO.N,GND*%
X83977000Y-93701000D02*
X79294500Y-93701000D01*
%TO.N,+5V*%
X70382000Y-87096000D02*
X78082000Y-87096000D01*
%TO.N,GND*%
X66882000Y-96946000D02*
X70482000Y-96946000D01*
X73882000Y-96946000D02*
X77127000Y-93701000D01*
X70482000Y-96946000D02*
X73882000Y-96946000D01*
X89592000Y-93986000D02*
X90732000Y-93986000D01*
X56744500Y-88396000D02*
X62432000Y-88396000D01*
X86272000Y-95996000D02*
X83977000Y-93701000D01*
X64382000Y-90346000D02*
X68732000Y-90346000D01*
%TO.N,Net-(D2-K)*%
X70482000Y-93646000D02*
X73082000Y-93646000D01*
X70482000Y-94796000D02*
X70482000Y-93646000D01*
X62782000Y-93146000D02*
X65082000Y-95446000D01*
X70482000Y-89196000D02*
X70382000Y-89096000D01*
%TO.N,Net-(J1-Pin_2)*%
X79294500Y-92431000D02*
X82360215Y-92431000D01*
%TO.N,Net-(D3-A)*%
X90732000Y-91446000D02*
X91832000Y-90346000D01*
X91832000Y-90346000D02*
X91832000Y-88346000D01*
%TO.N,Net-(D2-K)*%
X65082000Y-95446000D02*
X69832000Y-95446000D01*
X73332000Y-93896000D02*
X71582000Y-92146000D01*
%TO.N,Net-(D1-K)*%
X67432000Y-93646000D02*
X69582000Y-91496000D01*
X64982000Y-93646000D02*
X66882000Y-93646000D01*
%TO.N,Net-(D2-K)*%
X69832000Y-95446000D02*
X70482000Y-94796000D01*
X73082000Y-93646000D02*
X73332000Y-93896000D01*
X56744500Y-93146000D02*
X62782000Y-93146000D01*
%TO.N,Net-(D1-K)*%
X56744500Y-91146000D02*
X62482000Y-91146000D01*
X62482000Y-91146000D02*
X64982000Y-93646000D01*
X69582000Y-91496000D02*
X73332000Y-91496000D01*
%TO.N,Net-(D2-K)*%
X70482000Y-90846000D02*
X70482000Y-89196000D01*
%TO.N,+5V*%
X66832000Y-87096000D02*
X70382000Y-87096000D01*
X87309000Y-86401000D02*
X88032000Y-87124000D01*
X61482000Y-95896000D02*
X63032000Y-94346000D01*
%TO.N,Net-(D1-K)*%
X66882000Y-93646000D02*
X67432000Y-93646000D01*
%TO.N,+5V*%
X78682000Y-87696000D02*
X79977000Y-86401000D01*
X56744500Y-95896000D02*
X61482000Y-95896000D01*
X78082000Y-87096000D02*
X78682000Y-87696000D01*
%TO.N,Net-(J1-Pin_3)*%
X75782000Y-93446000D02*
X75332000Y-93896000D01*
X76232000Y-93446000D02*
X75782000Y-93446000D01*
X79294500Y-91161000D02*
X78517000Y-91161000D01*
%TO.N,Net-(J1-Pin_2)*%
X76267000Y-92431000D02*
X79294500Y-92431000D01*
%TO.N,Net-(J1-Pin_3)*%
X78517000Y-91161000D02*
X78132000Y-91546000D01*
%TO.N,Net-(J1-Pin_2)*%
X75332000Y-91496000D02*
X76267000Y-92431000D01*
%TO.N,Net-(J2-Pin_3)*%
X89832000Y-89880999D02*
X89832000Y-88346000D01*
X86469500Y-92431000D02*
X87281999Y-92431000D01*
X84867000Y-92431000D02*
X84732000Y-92296000D01*
%TO.N,Net-(J1-Pin_3)*%
X81747000Y-91161000D02*
X81782000Y-91196000D01*
%TO.N,Net-(J1-Pin_2)*%
X82360215Y-92431000D02*
X82379536Y-92450321D01*
%TO.N,Net-(J1-Pin_3)*%
X79294500Y-91161000D02*
X81747000Y-91161000D01*
%TO.N,Net-(J2-Pin_3)*%
X87281999Y-92431000D02*
X89832000Y-89880999D01*
%TO.N,Net-(D2-K)*%
X111932000Y-95346000D02*
X112582000Y-94696000D01*
%TO.N,Net-(D1-K)*%
X108982000Y-93546000D02*
X109532000Y-93546000D01*
%TO.N,Net-(D2-K)*%
X115182000Y-93546000D02*
X115432000Y-93796000D01*
X98844500Y-93046000D02*
X104882000Y-93046000D01*
%TO.N,Net-(D1-K)*%
X98844500Y-91046000D02*
X104582000Y-91046000D01*
%TO.N,+5V*%
X120782000Y-87596000D02*
X122077000Y-86301000D01*
%TO.N,Net-(D2-K)*%
X115432000Y-93796000D02*
X113682000Y-92046000D01*
%TO.N,Net-(D1-K)*%
X109532000Y-93546000D02*
X111682000Y-91396000D01*
%TO.N,+5V*%
X108932000Y-86996000D02*
X112482000Y-86996000D01*
%TO.N,Net-(D1-K)*%
X107082000Y-93546000D02*
X108982000Y-93546000D01*
%TO.N,Net-(D2-K)*%
X112582000Y-94696000D02*
X112582000Y-93546000D01*
%TO.N,GND*%
X126077000Y-93601000D02*
X121394500Y-93601000D01*
X128372000Y-95896000D02*
X126077000Y-93601000D01*
%TO.N,Net-(D2-K)*%
X112582000Y-90746000D02*
X112582000Y-89096000D01*
%TO.N,+5V*%
X129687000Y-89791000D02*
X128569500Y-89791000D01*
X103582000Y-95796000D02*
X105132000Y-94246000D01*
X112482000Y-86996000D02*
X120182000Y-86996000D01*
%TO.N,GND*%
X108982000Y-96846000D02*
X112582000Y-96846000D01*
%TO.N,Net-(D2-K)*%
X104882000Y-93046000D02*
X107182000Y-95346000D01*
%TO.N,GND*%
X115982000Y-96846000D02*
X119227000Y-93601000D01*
X112582000Y-96846000D02*
X115982000Y-96846000D01*
X131692000Y-93886000D02*
X132832000Y-93886000D01*
X98844500Y-88296000D02*
X104532000Y-88296000D01*
%TO.N,Net-(J1-Pin_2)*%
X121394500Y-92331000D02*
X124460215Y-92331000D01*
%TO.N,Net-(D1-K)*%
X111682000Y-91396000D02*
X115432000Y-91396000D01*
%TO.N,GND*%
X106482000Y-90246000D02*
X110832000Y-90246000D01*
%TO.N,Net-(D2-K)*%
X107182000Y-95346000D02*
X111932000Y-95346000D01*
%TO.N,+5V*%
X120182000Y-86996000D02*
X120782000Y-87596000D01*
X98844500Y-95796000D02*
X103582000Y-95796000D01*
%TO.N,Net-(D1-K)*%
X104582000Y-91046000D02*
X107082000Y-93546000D01*
%TO.N,Net-(D2-K)*%
X112582000Y-93546000D02*
X115182000Y-93546000D01*
X112582000Y-89096000D02*
X112482000Y-88996000D01*
%TO.N,Net-(D3-A)*%
X133932000Y-90246000D02*
X133932000Y-88246000D01*
X132832000Y-91346000D02*
X133932000Y-90246000D01*
%TO.N,+5V*%
X129409000Y-86301000D02*
X130132000Y-87024000D01*
%TO.N,Net-(J1-Pin_3)*%
X117882000Y-93346000D02*
X117432000Y-93796000D01*
X121394500Y-91061000D02*
X123847000Y-91061000D01*
X118332000Y-93346000D02*
X117882000Y-93346000D01*
%TO.N,Net-(J1-Pin_2)*%
X117432000Y-91396000D02*
X118367000Y-92331000D01*
%TO.N,Net-(J1-Pin_3)*%
X121394500Y-91061000D02*
X120617000Y-91061000D01*
%TO.N,Net-(J1-Pin_2)*%
X118367000Y-92331000D02*
X121394500Y-92331000D01*
%TO.N,Net-(J2-Pin_3)*%
X131932000Y-89780999D02*
X131932000Y-88246000D01*
%TO.N,Net-(J1-Pin_2)*%
X124460215Y-92331000D02*
X124479536Y-92350321D01*
%TO.N,Net-(J2-Pin_3)*%
X129381999Y-92331000D02*
X131932000Y-89780999D01*
%TO.N,Net-(J1-Pin_3)*%
X120617000Y-91061000D02*
X120232000Y-91446000D01*
%TO.N,Net-(J2-Pin_3)*%
X128569500Y-92331000D02*
X129381999Y-92331000D01*
X126967000Y-92331000D02*
X126832000Y-92196000D01*
%TO.N,Net-(J1-Pin_3)*%
X123847000Y-91061000D02*
X123882000Y-91096000D01*
%TO.N,Net-(J2-Pin_3)*%
X128587500Y-78135000D02*
X126985000Y-78135000D01*
%TO.N,GND*%
X104550000Y-74100000D02*
X106500000Y-76050000D01*
%TO.N,Net-(J2-Pin_2)*%
X123340000Y-73400000D02*
X126805000Y-76865000D01*
%TO.N,GND*%
X128390000Y-81700000D02*
X129750000Y-81700000D01*
X119245000Y-79405000D02*
X121412500Y-79405000D01*
%TO.N,+5V*%
X130150000Y-75150000D02*
X129705000Y-75595000D01*
%TO.N,Net-(J1-Pin_4)*%
X121412500Y-75595000D02*
X122705000Y-75595000D01*
%TO.N,Net-(J2-1Pin_4)*%
X129095000Y-79405000D02*
X130150000Y-78350000D01*
%TO.N,+5V*%
X122095000Y-72105000D02*
X129427000Y-72105000D01*
%TO.N,GND*%
X129750000Y-81700000D02*
X129750000Y-81650000D01*
%TO.N,Net-(J2-1Pin_4)*%
X128587500Y-79405000D02*
X129095000Y-79405000D01*
%TO.N,Net-(J1-Pin_4)*%
X122705000Y-75595000D02*
X122750000Y-75550000D01*
%TO.N,Net-(J2-Pin_2)*%
X126805000Y-76865000D02*
X128587500Y-76865000D01*
%TO.N,+5V*%
X130150000Y-72828000D02*
X130150000Y-75150000D01*
%TO.N,GND*%
X129750000Y-81650000D02*
X131710000Y-79690000D01*
X77145000Y-79505000D02*
X79312500Y-79505000D01*
%TO.N,Net-(J2-1Pin_4)*%
X86995000Y-79505000D02*
X88050000Y-78450000D01*
%TO.N,Net-(J1-Pin_4)*%
X80605000Y-75695000D02*
X80650000Y-75650000D01*
%TO.N,Net-(J2-Pin_2)*%
X81240000Y-73500000D02*
X84705000Y-76965000D01*
%TO.N,Net-(J2-1Pin_4)*%
X86487500Y-79505000D02*
X86995000Y-79505000D01*
%TO.N,Net-(J2-Pin_2)*%
X84705000Y-76965000D02*
X86487500Y-76965000D01*
%TO.N,Net-(J1-Pin_4)*%
X79312500Y-75695000D02*
X80605000Y-75695000D01*
%TO.N,Net-(J2-Pin_3)*%
X86487500Y-78235000D02*
X84885000Y-78235000D01*
%TO.N,GND*%
X62450000Y-74200000D02*
X64400000Y-76150000D01*
X87650000Y-81800000D02*
X87650000Y-81750000D01*
X87650000Y-81750000D02*
X89610000Y-79790000D01*
X86290000Y-81800000D02*
X87650000Y-81800000D01*
%TO.N,+5V*%
X88050000Y-72928000D02*
X88050000Y-75250000D01*
X88050000Y-75250000D02*
X87605000Y-75695000D01*
X79995000Y-72205000D02*
X87327000Y-72205000D01*
X87605000Y-75695000D02*
X86487500Y-75695000D01*
%TO.N,GND*%
X83995000Y-79505000D02*
X79312500Y-79505000D01*
%TO.N,+5V*%
X70400000Y-72900000D02*
X78100000Y-72900000D01*
%TO.N,GND*%
X66900000Y-82750000D02*
X70500000Y-82750000D01*
X73900000Y-82750000D02*
X77145000Y-79505000D01*
X70500000Y-82750000D02*
X73900000Y-82750000D01*
X89610000Y-79790000D02*
X90750000Y-79790000D01*
X56762500Y-74200000D02*
X62450000Y-74200000D01*
X86290000Y-81800000D02*
X83995000Y-79505000D01*
X64400000Y-76150000D02*
X68750000Y-76150000D01*
%TO.N,Net-(D2-K)*%
X70500000Y-79450000D02*
X73100000Y-79450000D01*
X70500000Y-80600000D02*
X70500000Y-79450000D01*
X62800000Y-78950000D02*
X65100000Y-81250000D01*
X70500000Y-75000000D02*
X70400000Y-74900000D01*
%TO.N,Net-(J1-Pin_2)*%
X79312500Y-78235000D02*
X82378215Y-78235000D01*
%TO.N,Net-(D3-A)*%
X90750000Y-77250000D02*
X91850000Y-76150000D01*
X91850000Y-76150000D02*
X91850000Y-74150000D01*
%TO.N,Net-(D2-K)*%
X65100000Y-81250000D02*
X69850000Y-81250000D01*
X73350000Y-79700000D02*
X71600000Y-77950000D01*
%TO.N,Net-(D1-K)*%
X67450000Y-79450000D02*
X69600000Y-77300000D01*
X65000000Y-79450000D02*
X66900000Y-79450000D01*
%TO.N,Net-(D2-K)*%
X69850000Y-81250000D02*
X70500000Y-80600000D01*
X73100000Y-79450000D02*
X73350000Y-79700000D01*
X56762500Y-78950000D02*
X62800000Y-78950000D01*
%TO.N,Net-(D1-K)*%
X56762500Y-76950000D02*
X62500000Y-76950000D01*
X62500000Y-76950000D02*
X65000000Y-79450000D01*
X69600000Y-77300000D02*
X73350000Y-77300000D01*
%TO.N,Net-(D2-K)*%
X70500000Y-76650000D02*
X70500000Y-75000000D01*
%TO.N,+5V*%
X66850000Y-72900000D02*
X70400000Y-72900000D01*
X87327000Y-72205000D02*
X88050000Y-72928000D01*
X61500000Y-81700000D02*
X63050000Y-80150000D01*
%TO.N,Net-(D1-K)*%
X66900000Y-79450000D02*
X67450000Y-79450000D01*
%TO.N,+5V*%
X78700000Y-73500000D02*
X79995000Y-72205000D01*
X56762500Y-81700000D02*
X61500000Y-81700000D01*
X78100000Y-72900000D02*
X78700000Y-73500000D01*
%TO.N,Net-(J1-Pin_3)*%
X75800000Y-79250000D02*
X75350000Y-79700000D01*
X76250000Y-79250000D02*
X75800000Y-79250000D01*
X79312500Y-76965000D02*
X78535000Y-76965000D01*
%TO.N,Net-(J1-Pin_2)*%
X76285000Y-78235000D02*
X79312500Y-78235000D01*
%TO.N,Net-(J1-Pin_3)*%
X78535000Y-76965000D02*
X78150000Y-77350000D01*
%TO.N,Net-(J1-Pin_2)*%
X75350000Y-77300000D02*
X76285000Y-78235000D01*
%TO.N,Net-(J2-Pin_3)*%
X89850000Y-75684999D02*
X89850000Y-74150000D01*
X86487500Y-78235000D02*
X87299999Y-78235000D01*
X84885000Y-78235000D02*
X84750000Y-78100000D01*
%TO.N,Net-(J1-Pin_3)*%
X81765000Y-76965000D02*
X81800000Y-77000000D01*
%TO.N,Net-(J1-Pin_2)*%
X82378215Y-78235000D02*
X82397536Y-78254321D01*
%TO.N,Net-(J1-Pin_3)*%
X79312500Y-76965000D02*
X81765000Y-76965000D01*
%TO.N,Net-(J2-Pin_3)*%
X87299999Y-78235000D02*
X89850000Y-75684999D01*
%TO.N,Net-(D2-K)*%
X111950000Y-81150000D02*
X112600000Y-80500000D01*
%TO.N,Net-(D1-K)*%
X109000000Y-79350000D02*
X109550000Y-79350000D01*
%TO.N,Net-(D2-K)*%
X115200000Y-79350000D02*
X115450000Y-79600000D01*
X98862500Y-78850000D02*
X104900000Y-78850000D01*
%TO.N,Net-(D1-K)*%
X98862500Y-76850000D02*
X104600000Y-76850000D01*
%TO.N,+5V*%
X120800000Y-73400000D02*
X122095000Y-72105000D01*
%TO.N,Net-(D2-K)*%
X115450000Y-79600000D02*
X113700000Y-77850000D01*
%TO.N,Net-(D1-K)*%
X109550000Y-79350000D02*
X111700000Y-77200000D01*
%TO.N,+5V*%
X108950000Y-72800000D02*
X112500000Y-72800000D01*
%TO.N,Net-(D1-K)*%
X107100000Y-79350000D02*
X109000000Y-79350000D01*
%TO.N,Net-(D2-K)*%
X112600000Y-80500000D02*
X112600000Y-79350000D01*
%TO.N,GND*%
X126095000Y-79405000D02*
X121412500Y-79405000D01*
X128390000Y-81700000D02*
X126095000Y-79405000D01*
%TO.N,Net-(D2-K)*%
X112600000Y-76550000D02*
X112600000Y-74900000D01*
%TO.N,+5V*%
X129705000Y-75595000D02*
X128587500Y-75595000D01*
X103600000Y-81600000D02*
X105150000Y-80050000D01*
X112500000Y-72800000D02*
X120200000Y-72800000D01*
%TO.N,GND*%
X109000000Y-82650000D02*
X112600000Y-82650000D01*
%TO.N,Net-(D2-K)*%
X104900000Y-78850000D02*
X107200000Y-81150000D01*
%TO.N,GND*%
X116000000Y-82650000D02*
X119245000Y-79405000D01*
X112600000Y-82650000D02*
X116000000Y-82650000D01*
X131710000Y-79690000D02*
X132850000Y-79690000D01*
X98862500Y-74100000D02*
X104550000Y-74100000D01*
%TO.N,Net-(J1-Pin_2)*%
X121412500Y-78135000D02*
X124478215Y-78135000D01*
%TO.N,Net-(D1-K)*%
X111700000Y-77200000D02*
X115450000Y-77200000D01*
%TO.N,GND*%
X106500000Y-76050000D02*
X110850000Y-76050000D01*
%TO.N,Net-(D2-K)*%
X107200000Y-81150000D02*
X111950000Y-81150000D01*
%TO.N,+5V*%
X120200000Y-72800000D02*
X120800000Y-73400000D01*
X98862500Y-81600000D02*
X103600000Y-81600000D01*
%TO.N,Net-(D1-K)*%
X104600000Y-76850000D02*
X107100000Y-79350000D01*
%TO.N,Net-(D2-K)*%
X112600000Y-79350000D02*
X115200000Y-79350000D01*
X112600000Y-74900000D02*
X112500000Y-74800000D01*
%TO.N,Net-(D3-A)*%
X133950000Y-76050000D02*
X133950000Y-74050000D01*
X132850000Y-77150000D02*
X133950000Y-76050000D01*
%TO.N,+5V*%
X129427000Y-72105000D02*
X130150000Y-72828000D01*
%TO.N,Net-(J1-Pin_3)*%
X117900000Y-79150000D02*
X117450000Y-79600000D01*
X121412500Y-76865000D02*
X123865000Y-76865000D01*
X118350000Y-79150000D02*
X117900000Y-79150000D01*
%TO.N,Net-(J1-Pin_2)*%
X117450000Y-77200000D02*
X118385000Y-78135000D01*
%TO.N,Net-(J1-Pin_3)*%
X121412500Y-76865000D02*
X120635000Y-76865000D01*
%TO.N,Net-(J1-Pin_2)*%
X118385000Y-78135000D02*
X121412500Y-78135000D01*
%TO.N,Net-(J2-Pin_3)*%
X131950000Y-75584999D02*
X131950000Y-74050000D01*
%TO.N,Net-(J1-Pin_2)*%
X124478215Y-78135000D02*
X124497536Y-78154321D01*
%TO.N,Net-(J2-Pin_3)*%
X129399999Y-78135000D02*
X131950000Y-75584999D01*
%TO.N,Net-(J1-Pin_3)*%
X120635000Y-76865000D02*
X120250000Y-77250000D01*
%TO.N,Net-(J2-Pin_3)*%
X128587500Y-78135000D02*
X129399999Y-78135000D01*
X126985000Y-78135000D02*
X126850000Y-78000000D01*
%TO.N,Net-(J1-Pin_3)*%
X123865000Y-76865000D02*
X123900000Y-76900000D01*
%TO.N,GND*%
X119345000Y-65205000D02*
X121512500Y-65205000D01*
%TO.N,Net-(J2-1Pin_4)*%
X129195000Y-65205000D02*
X130250000Y-64150000D01*
%TO.N,Net-(J1-Pin_4)*%
X122805000Y-61395000D02*
X122850000Y-61350000D01*
%TO.N,Net-(J2-Pin_2)*%
X123440000Y-59200000D02*
X126905000Y-62665000D01*
%TO.N,Net-(J2-1Pin_4)*%
X128687500Y-65205000D02*
X129195000Y-65205000D01*
%TO.N,Net-(J2-Pin_2)*%
X126905000Y-62665000D02*
X128687500Y-62665000D01*
%TO.N,Net-(J1-Pin_4)*%
X121512500Y-61395000D02*
X122805000Y-61395000D01*
%TO.N,Net-(J2-Pin_3)*%
X128687500Y-63935000D02*
X127085000Y-63935000D01*
%TO.N,GND*%
X104650000Y-59900000D02*
X106600000Y-61850000D01*
X129850000Y-67500000D02*
X129850000Y-67450000D01*
X129850000Y-67450000D02*
X131810000Y-65490000D01*
X128490000Y-67500000D02*
X129850000Y-67500000D01*
%TO.N,+5V*%
X130250000Y-58628000D02*
X130250000Y-60950000D01*
X130250000Y-60950000D02*
X129805000Y-61395000D01*
X122195000Y-57905000D02*
X129527000Y-57905000D01*
X129805000Y-61395000D02*
X128687500Y-61395000D01*
%TO.N,GND*%
X126195000Y-65205000D02*
X121512500Y-65205000D01*
%TO.N,+5V*%
X112600000Y-58600000D02*
X120300000Y-58600000D01*
%TO.N,GND*%
X109100000Y-68450000D02*
X112700000Y-68450000D01*
X116100000Y-68450000D02*
X119345000Y-65205000D01*
X112700000Y-68450000D02*
X116100000Y-68450000D01*
X131810000Y-65490000D02*
X132950000Y-65490000D01*
X98962500Y-59900000D02*
X104650000Y-59900000D01*
X128490000Y-67500000D02*
X126195000Y-65205000D01*
X106600000Y-61850000D02*
X110950000Y-61850000D01*
%TO.N,Net-(D2-K)*%
X112700000Y-65150000D02*
X115300000Y-65150000D01*
X112700000Y-66300000D02*
X112700000Y-65150000D01*
X105000000Y-64650000D02*
X107300000Y-66950000D01*
X112700000Y-60700000D02*
X112600000Y-60600000D01*
%TO.N,Net-(J1-Pin_2)*%
X121512500Y-63935000D02*
X124578215Y-63935000D01*
%TO.N,Net-(D3-A)*%
X132950000Y-62950000D02*
X134050000Y-61850000D01*
X134050000Y-61850000D02*
X134050000Y-59850000D01*
%TO.N,Net-(D2-K)*%
X107300000Y-66950000D02*
X112050000Y-66950000D01*
X115550000Y-65400000D02*
X113800000Y-63650000D01*
%TO.N,Net-(D1-K)*%
X109650000Y-65150000D02*
X111800000Y-63000000D01*
X107200000Y-65150000D02*
X109100000Y-65150000D01*
%TO.N,Net-(D2-K)*%
X112050000Y-66950000D02*
X112700000Y-66300000D01*
X115300000Y-65150000D02*
X115550000Y-65400000D01*
X98962500Y-64650000D02*
X105000000Y-64650000D01*
%TO.N,Net-(D1-K)*%
X98962500Y-62650000D02*
X104700000Y-62650000D01*
X104700000Y-62650000D02*
X107200000Y-65150000D01*
X111800000Y-63000000D02*
X115550000Y-63000000D01*
%TO.N,Net-(D2-K)*%
X112700000Y-62350000D02*
X112700000Y-60700000D01*
%TO.N,+5V*%
X109050000Y-58600000D02*
X112600000Y-58600000D01*
X129527000Y-57905000D02*
X130250000Y-58628000D01*
X103700000Y-67400000D02*
X105250000Y-65850000D01*
%TO.N,Net-(D1-K)*%
X109100000Y-65150000D02*
X109650000Y-65150000D01*
%TO.N,+5V*%
X120900000Y-59200000D02*
X122195000Y-57905000D01*
X98962500Y-67400000D02*
X103700000Y-67400000D01*
X120300000Y-58600000D02*
X120900000Y-59200000D01*
%TO.N,Net-(J1-Pin_3)*%
X118000000Y-64950000D02*
X117550000Y-65400000D01*
X118450000Y-64950000D02*
X118000000Y-64950000D01*
X121512500Y-62665000D02*
X120735000Y-62665000D01*
%TO.N,Net-(J1-Pin_2)*%
X118485000Y-63935000D02*
X121512500Y-63935000D01*
%TO.N,Net-(J1-Pin_3)*%
X120735000Y-62665000D02*
X120350000Y-63050000D01*
%TO.N,Net-(J1-Pin_2)*%
X117550000Y-63000000D02*
X118485000Y-63935000D01*
%TO.N,Net-(J2-Pin_3)*%
X132050000Y-61384999D02*
X132050000Y-59850000D01*
X128687500Y-63935000D02*
X129499999Y-63935000D01*
X127085000Y-63935000D02*
X126950000Y-63800000D01*
%TO.N,Net-(J1-Pin_3)*%
X123965000Y-62665000D02*
X124000000Y-62700000D01*
%TO.N,Net-(J1-Pin_2)*%
X124578215Y-63935000D02*
X124597536Y-63954321D01*
%TO.N,Net-(J1-Pin_3)*%
X121512500Y-62665000D02*
X123965000Y-62665000D01*
%TO.N,Net-(J2-Pin_3)*%
X129499999Y-63935000D02*
X132050000Y-61384999D01*
%TO.N,GND*%
X77245000Y-65305000D02*
X79412500Y-65305000D01*
X56862500Y-60000000D02*
X62550000Y-60000000D01*
X86390000Y-67600000D02*
X84095000Y-65305000D01*
X64500000Y-61950000D02*
X68850000Y-61950000D01*
X62550000Y-60000000D02*
X64500000Y-61950000D01*
X89710000Y-65590000D02*
X90850000Y-65590000D01*
X87750000Y-67550000D02*
X89710000Y-65590000D01*
X87750000Y-67600000D02*
X87750000Y-67550000D01*
X67000000Y-68550000D02*
X70600000Y-68550000D01*
X70600000Y-68550000D02*
X74000000Y-68550000D01*
X86390000Y-67600000D02*
X87750000Y-67600000D01*
X84095000Y-65305000D02*
X79412500Y-65305000D01*
X74000000Y-68550000D02*
X77245000Y-65305000D01*
%TO.N,+5V*%
X70500000Y-58700000D02*
X78200000Y-58700000D01*
X87705000Y-61495000D02*
X86587500Y-61495000D01*
X88150000Y-58728000D02*
X88150000Y-61050000D01*
X80095000Y-58005000D02*
X87427000Y-58005000D01*
X88150000Y-61050000D02*
X87705000Y-61495000D01*
X87427000Y-58005000D02*
X88150000Y-58728000D01*
X78800000Y-59300000D02*
X80095000Y-58005000D01*
X61600000Y-67500000D02*
X63150000Y-65950000D01*
X56862500Y-67500000D02*
X61600000Y-67500000D01*
X66950000Y-58700000D02*
X70500000Y-58700000D01*
X78200000Y-58700000D02*
X78800000Y-59300000D01*
%TO.N,Net-(D1-K)*%
X67000000Y-65250000D02*
X67550000Y-65250000D01*
X67550000Y-65250000D02*
X69700000Y-63100000D01*
X56862500Y-62750000D02*
X62600000Y-62750000D01*
X65100000Y-65250000D02*
X67000000Y-65250000D01*
X62600000Y-62750000D02*
X65100000Y-65250000D01*
X69700000Y-63100000D02*
X73450000Y-63100000D01*
%TO.N,Net-(D2-K)*%
X56862500Y-64750000D02*
X62900000Y-64750000D01*
X73200000Y-65250000D02*
X73450000Y-65500000D01*
X69950000Y-67050000D02*
X70600000Y-66400000D01*
X73450000Y-65500000D02*
X71700000Y-63750000D01*
X70600000Y-62450000D02*
X70600000Y-60800000D01*
X70600000Y-60800000D02*
X70500000Y-60700000D01*
X70600000Y-66400000D02*
X70600000Y-65250000D01*
X70600000Y-65250000D02*
X73200000Y-65250000D01*
X62900000Y-64750000D02*
X65200000Y-67050000D01*
X65200000Y-67050000D02*
X69950000Y-67050000D01*
%TO.N,Net-(D3-A)*%
X91950000Y-61950000D02*
X91950000Y-59950000D01*
X90850000Y-63050000D02*
X91950000Y-61950000D01*
%TO.N,Net-(J1-Pin_2)*%
X79412500Y-64035000D02*
X82478215Y-64035000D01*
X82478215Y-64035000D02*
X82497536Y-64054321D01*
X75450000Y-63100000D02*
X76385000Y-64035000D01*
X76385000Y-64035000D02*
X79412500Y-64035000D01*
%TO.N,Net-(J1-Pin_3)*%
X76350000Y-65050000D02*
X75900000Y-65050000D01*
X79412500Y-62765000D02*
X78635000Y-62765000D01*
X75900000Y-65050000D02*
X75450000Y-65500000D01*
X79412500Y-62765000D02*
X81865000Y-62765000D01*
X81865000Y-62765000D02*
X81900000Y-62800000D01*
X78635000Y-62765000D02*
X78250000Y-63150000D01*
%TO.N,Net-(J2-Pin_3)*%
X87399999Y-64035000D02*
X89950000Y-61484999D01*
X84985000Y-64035000D02*
X84850000Y-63900000D01*
X86587500Y-64035000D02*
X87399999Y-64035000D01*
X89950000Y-61484999D02*
X89950000Y-59950000D01*
X86587500Y-64035000D02*
X84985000Y-64035000D01*
%TO.N,Net-(J1-Pin_4)*%
X79412500Y-61495000D02*
X80705000Y-61495000D01*
X80705000Y-61495000D02*
X80750000Y-61450000D01*
%TO.N,Net-(J2-Pin_2)*%
X81340000Y-59300000D02*
X84805000Y-62765000D01*
X84805000Y-62765000D02*
X86587500Y-62765000D01*
%TO.N,Net-(J2-1Pin_4)*%
X86587500Y-65305000D02*
X87095000Y-65305000D01*
X87095000Y-65305000D02*
X88150000Y-64250000D01*
%TD*%
M02*
