M48
; DRILL file {KiCad 9.0.6} date 2025-12-18T22:23:12+0530
; FORMAT={-:-/ absolute / metric / decimal}
; #@! TF.CreationDate,2025-12-18T22:23:12+05:30
; #@! TF.GenerationSoftware,Kicad,Pcbnew,9.0.6
; #@! TF.FileFunction,Plated,1,2,PTH
FMAT,2
METRIC
; #@! TA.AperFunction,Plated,PTH,ViaDrill
T1C0.300
; #@! TA.AperFunction,Plated,PTH,ComponentDrill
T2C0.900
; #@! TA.AperFunction,Plated,PTH,ComponentDrill
T3C1.000
%
G90
G05
T1
X62.65Y-151.15
X62.732Y-136.946
X62.832Y-122.746
X62.932Y-108.546
X63.032Y-94.346
X63.05Y-80.15
X63.15Y-65.95
X68.35Y-147.15
X68.432Y-132.946
X68.532Y-118.746
X68.632Y-104.546
X68.732Y-90.346
X68.75Y-76.15
X68.85Y-61.95
X70.1Y-147.65
X70.182Y-133.446
X70.282Y-119.246
X70.382Y-105.046
X70.482Y-90.846
X70.5Y-76.65
X70.6Y-62.45
X71.2Y-148.95
X71.282Y-134.746
X71.382Y-120.546
X71.482Y-106.346
X71.582Y-92.146
X71.6Y-77.95
X71.7Y-63.75
X75.85Y-150.25
X75.932Y-136.046
X76.032Y-121.846
X76.132Y-107.646
X76.232Y-93.446
X76.25Y-79.25
X76.35Y-65.05
X77.75Y-148.35
X77.832Y-134.146
X77.932Y-119.946
X78.032Y-105.746
X78.132Y-91.546
X78.15Y-77.35
X78.25Y-63.15
X80.25Y-146.65
X80.332Y-132.446
X80.432Y-118.246
X80.532Y-104.046
X80.632Y-89.846
X80.65Y-75.65
X80.75Y-61.45
X81.4Y-148.0
X81.482Y-133.796
X81.582Y-119.596
X81.682Y-105.396
X81.782Y-91.196
X81.8Y-77.0
X81.9Y-62.8
X81.998Y-149.254
X82.08Y-135.05
X82.18Y-120.85
X82.28Y-106.65
X82.38Y-92.45
X82.398Y-78.254
X82.498Y-64.054
X84.35Y-149.1
X84.432Y-134.896
X84.532Y-120.696
X84.632Y-106.496
X84.732Y-92.296
X84.75Y-78.1
X84.85Y-63.9
X87.65Y-149.45
X87.732Y-135.246
X87.832Y-121.046
X87.932Y-106.846
X88.032Y-92.646
X88.05Y-78.45
X88.15Y-64.25
X104.75Y-151.05
X104.832Y-136.846
X104.932Y-122.646
X105.032Y-108.446
X105.132Y-94.246
X105.15Y-80.05
X105.25Y-65.85
X110.45Y-147.05
X110.532Y-132.846
X110.632Y-118.646
X110.732Y-104.446
X110.832Y-90.246
X110.85Y-76.05
X110.95Y-61.85
X112.2Y-147.55
X112.282Y-133.346
X112.382Y-119.146
X112.482Y-104.946
X112.582Y-90.746
X112.6Y-76.55
X112.7Y-62.35
X113.3Y-148.85
X113.382Y-134.646
X113.482Y-120.446
X113.582Y-106.246
X113.682Y-92.046
X113.7Y-77.85
X113.8Y-63.65
X117.95Y-150.15
X118.032Y-135.946
X118.132Y-121.746
X118.232Y-107.546
X118.332Y-93.346
X118.35Y-79.15
X118.45Y-64.95
X119.85Y-148.25
X119.932Y-134.046
X120.032Y-119.846
X120.132Y-105.646
X120.232Y-91.446
X120.25Y-77.25
X120.35Y-63.05
X122.35Y-146.55
X122.432Y-132.346
X122.532Y-118.146
X122.632Y-103.946
X122.732Y-89.746
X122.75Y-75.55
X122.85Y-61.35
X123.5Y-147.9
X123.582Y-133.696
X123.682Y-119.496
X123.782Y-105.296
X123.882Y-91.096
X123.9Y-76.9
X124.0Y-62.7
X124.098Y-149.154
X124.18Y-134.95
X124.28Y-120.75
X124.38Y-106.55
X124.48Y-92.35
X124.498Y-78.154
X124.598Y-63.954
X126.45Y-149.0
X126.532Y-134.796
X126.632Y-120.596
X126.732Y-106.396
X126.832Y-92.196
X126.85Y-78.0
X126.95Y-63.8
X129.75Y-149.35
X129.832Y-135.146
X129.932Y-120.946
X130.032Y-106.746
X130.132Y-92.546
X130.15Y-78.35
X130.25Y-64.15
T2
X90.35Y-148.25
X90.35Y-150.79
X90.432Y-134.046
X90.432Y-136.586
X90.532Y-119.846
X90.532Y-122.386
X90.632Y-105.646
X90.632Y-108.186
X90.732Y-91.446
X90.732Y-93.986
X90.75Y-77.25
X90.75Y-79.79
X90.85Y-63.05
X90.85Y-65.59
X132.45Y-148.15
X132.45Y-150.69
X132.532Y-133.946
X132.532Y-136.486
X132.632Y-119.746
X132.632Y-122.286
X132.732Y-105.546
X132.732Y-108.086
X132.832Y-91.346
X132.832Y-93.886
X132.85Y-77.15
X132.85Y-79.69
X132.95Y-62.95
X132.95Y-65.49
T3
X78.27Y-152.8
X78.3Y-144.5
X78.352Y-138.596
X78.382Y-130.296
X78.452Y-124.396
X78.482Y-116.096
X78.552Y-110.196
X78.582Y-101.896
X78.652Y-95.996
X78.67Y-81.8
X78.682Y-87.696
X78.7Y-73.5
X78.77Y-67.6
X78.8Y-59.3
X80.81Y-152.8
X80.84Y-144.5
X80.892Y-138.596
X80.922Y-130.296
X80.992Y-124.396
X81.022Y-116.096
X81.092Y-110.196
X81.122Y-101.896
X81.192Y-95.996
X81.21Y-81.8
X81.222Y-87.696
X81.24Y-73.5
X81.31Y-67.6
X81.34Y-59.3
X83.35Y-152.8
X83.38Y-144.5
X83.432Y-138.596
X83.462Y-130.296
X83.532Y-124.396
X83.562Y-116.096
X83.632Y-110.196
X83.662Y-101.896
X83.732Y-95.996
X83.75Y-81.8
X83.762Y-87.696
X83.78Y-73.5
X83.85Y-67.6
X83.88Y-59.3
X85.89Y-152.8
X85.92Y-144.5
X85.972Y-138.596
X86.002Y-130.296
X86.072Y-124.396
X86.102Y-116.096
X86.172Y-110.196
X86.202Y-101.896
X86.272Y-95.996
X86.29Y-81.8
X86.302Y-87.696
X86.32Y-73.5
X86.39Y-67.6
X86.42Y-59.3
X120.37Y-152.7
X120.4Y-144.4
X120.452Y-138.496
X120.482Y-130.196
X120.552Y-124.296
X120.582Y-115.996
X120.652Y-110.096
X120.682Y-101.796
X120.752Y-95.896
X120.77Y-81.7
X120.782Y-87.596
X120.8Y-73.4
X120.87Y-67.5
X120.9Y-59.2
X122.91Y-152.7
X122.94Y-144.4
X122.992Y-138.496
X123.022Y-130.196
X123.092Y-124.296
X123.122Y-115.996
X123.192Y-110.096
X123.222Y-101.796
X123.292Y-95.896
X123.31Y-81.7
X123.322Y-87.596
X123.34Y-73.4
X123.41Y-67.5
X123.44Y-59.2
X125.45Y-152.7
X125.48Y-144.4
X125.532Y-138.496
X125.562Y-130.196
X125.632Y-124.296
X125.662Y-115.996
X125.732Y-110.096
X125.762Y-101.796
X125.832Y-95.896
X125.85Y-81.7
X125.862Y-87.596
X125.88Y-73.4
X125.95Y-67.5
X125.98Y-59.2
X127.99Y-152.7
X128.02Y-144.4
X128.072Y-138.496
X128.102Y-130.196
X128.172Y-124.296
X128.202Y-115.996
X128.272Y-110.096
X128.302Y-101.796
X128.372Y-95.896
X128.39Y-81.7
X128.402Y-87.596
X128.42Y-73.4
X128.49Y-67.5
X128.52Y-59.2
M30
